<?xml version="1.0" encoding="utf-8"?>
<!DOCTYPE svg PUBLIC "-//W3C//DTD SVG 1.0//EN" "http://www.w3.org/TR/2001/REC-SVG-20010904/DTD/svg10.dtd">
<svg version="1.0" xmlns="http://www.w3.org/2000/svg" width="180px" height="180px" viewBox="0 0 180 180"
  preserveAspectRatio="xMidYMid meet">
  <!-- <g fill="#ffffff">
    <path
      d="M0 90 l0 -90 90 0 90 0 0 90 0 90 -90 0 -90 0 0 -90z m98.10 67.80 c3.65 -1.75 8.55 -4.45 10.85 -5.95 l4.20 -2.75 -5.20 -2.55 c-9.05 -4.40 -16.85 -6.35 -30.95 -7.80 -8.95 -0.95 -15.60 -2.30 -21.10 -4.20 -3.60 -1.30 -3.80 -1.30 -3.30 -0.40 0.85 1.65 8.45 9.30 11.95 12.15 1.80 1.45 4.95 3.70 7 5 4.95 3.25 17.45 9.65 18.80 9.70 0.60 0 4.05 -1.45 7.75 -3.20z m31.70 -25.55 c1.05 -1.50 1.75 -2.85 1.65 -2.95 -0.75 -0.70 -9.75 -3.40 -13.55 -4.10 -6.50 -1.10 -16.95 -1 -25.15 0.30 -15.30 2.40 -17.85 2.60 -25.25 2.35 -7.10 -0.25 -7.20 -0.25 -4.50 0.50 2.10 0.55 5 0.70 12.50 0.60 26.60 -0.45 33.20 -0.10 42.25 2.30 2.50 0.65 5.75 1.70 7.25 2.40 1.50 0.70 2.80 1.30 2.85 1.30 0.10 0.05 0.95 -1.20 1.95 -2.70z m-58.90 -15.05 c2.10 -0.45 4.15 -0.95 4.45 -1.15 0.40 -0.20 -4.10 -3.90 -12.10 -9.80 -12 -8.95 -12.70 -9.60 -12.75 -11.10 0 -1.50 0.20 -1.65 2.15 -2.15 3.15 -0.85 6.10 -1.65 6.25 -1.80 0.10 -0.05 -1.55 -4.05 -3.65 -8.90 -2.65 -6.20 -3.75 -9.40 -3.75 -10.85 l0 -2.05 2.90 0.25 c1.55 0.15 5.90 1.20 9.60 2.30 3.70 1.10 6.90 2.05 7.05 2.05 0.20 0 0.60 -2.20 0.90 -4.85 0.80 -6.65 0.85 -6.65 2.70 -6.65 1.40 0.05 2.40 0.95 8.30 7.30 3.65 4 6.75 7.15 6.85 7.10 0.05 -0.10 -0.75 -4 -1.85 -8.65 -3.30 -14.15 -3.95 -17.35 -3.95 -19.60 0 -2.05 0.05 -2.15 1.45 -2.15 0.80 0 4 1.35 7.35 3.15 l5.95 3.15 3.80 -10.25 3.75 -10.30 -1.50 -0.35 c-0.85 -0.20 -5.15 -0.55 -9.55 -0.70 -8.85 -0.35 -17.90 0.25 -27.50 1.85 -10.80 1.80 -26.05 6.05 -28.35 7.90 l-1.15 0.95 0.05 27.95 c0.05 36.25 0.20 37.30 6 41.80 7.30 5.60 16.75 7.60 26.60 5.55z m24.75 -7.70 c10.70 -2.80 21.20 -3.90 30.20 -3 4.70 0.45 7.20 0.90 13.60 2.55 1.70 0.45 3.20 -13.05 2.95 -26.25 l-0.15 -7.95 -8.40 9.10 c-8.15 8.75 -8.50 9.05 -10.40 9.05 -1.75 0 -1.95 -0.10 -1.95 -1.30 0 -0.70 0.55 -3.45 1.20 -6.10 0.65 -2.65 1.80 -7.55 2.55 -10.85 0.75 -3.30 1.90 -8.35 2.55 -11.25 0.70 -2.90 1.35 -5.75 1.45 -6.35 0.25 -1 0 -0.95 -3.45 0.90 -4.65 2.50 -7.45 2.70 -8.20 0.60 -4.25 -11.65 -6.10 -16.65 -6.60 -17.90 -0.60 -1.45 -0.65 -1.30 -3.30 5.75 -1.50 4 -3.20 8.65 -3.75 10.40 l-1.10 3.10 -2 0 c-1.35 0 -3.20 -0.60 -5.40 -1.75 -1.90 -0.95 -3.55 -1.75 -3.75 -1.75 -0.15 0 -0.15 0.60 0.05 1.40 0.20 0.75 0.85 3.70 1.50 6.60 0.65 2.90 1.85 8.30 2.70 12 2.35 10.10 3.05 13.60 3.05 15.40 0 1.50 -0.10 1.60 -1.60 1.55 -1.75 -0.05 -1 0.70 -16.45 -16.05 l-3.80 -4.10 -0.35 3.15 c-0.20 1.70 -0.50 3.45 -0.65 3.85 -0.40 1.10 -2.55 0.85 -9.15 -1.05 -3.35 -1 -6.30 -1.75 -6.55 -1.65 -0.20 0.10 -0.10 0.85 0.30 1.65 3.50 7.60 5.25 12.35 5.25 14.40 0 2.20 0 2.20 -2 2.55 -1.10 0.15 -2 0.50 -2 0.70 0.05 0.20 4.90 3.95 10.85 8.35 l10.85 8.05 3.15 -1.15 c1.75 -0.65 5.70 -1.80 8.80 -2.65z m44.55 -42.25 l2.20 -2.50 0.10 -11 c0.05 -6.05 0.05 -11.40 0.05 -11.85 -0.05 -0.55 -0.80 -1.20 -1.90 -1.65 -3.95 -1.65 -23 -6.75 -25.20 -6.75 -0.35 0 -0.40 0.35 -0.20 0.90 0.20 0.45 1.70 4.55 3.35 9.10 1.65 4.55 3.20 8.45 3.40 8.70 0.25 0.25 3 -0.95 6.15 -2.65 3.50 -1.85 6.40 -3.05 7.30 -3.05 1.45 0 1.55 0.10 1.55 1.90 0 1 -1.35 7.70 -3 14.85 -1.65 7.15 -3 13.25 -3 13.50 0.05 0.50 4.60 -4.25 9.20 -9.50z" />
  </g> -->
  <g fill="#231f21">
    <path
      d="M83.55 160.25 c-15.15 -7.40 -25 -14.90 -32.50 -24.75 -2.85 -3.75 -5.25 -7.50 -4.95 -7.80 0.10 -0.05 1.45 0.65 3.05 1.65 6.30 3.85 16.30 6.50 29.60 7.90 9.20 0.95 15.70 2.20 21.75 4.10 5.35 1.70 15.25 6.65 15.25 7.65 0 1.90 -20.45 13.30 -24.75 13.85 -1.35 0.15 -3 -0.40 -7.45 -2.60z" />
    <path
      d="M124.65 135.65 c-2 -0.90 -5.75 -2.20 -8.25 -2.90 -9.25 -2.40 -15.35 -2.75 -40.65 -2.25 -10.65 0.20 -11.15 0.15 -16.10 -1.10 -6.05 -1.55 -10.35 -3.60 -14.30 -6.70 -2.65 -2.05 -4.95 -5.30 -4.25 -6 0.15 -0.15 1.50 0.65 2.95 1.80 6.10 4.65 14.25 7.30 23.95 7.80 5.85 0.30 7.80 0.10 23.25 -2.30 8.90 -1.40 21.25 -1.55 28.15 -0.30 4.45 0.80 13.80 3.80 14.70 4.70 0.45 0.45 -3.80 7.35 -5.15 8.40 -0.55 0.40 -1.55 0.15 -4.30 -1.15z" />
    <path
      d="M58.80 119.45 c-1.95 -0.20 -5.05 -0.90 -6.95 -1.50 -3.55 -1.15 -9.70 -4.85 -11.70 -7 -3 -3.30 -3.35 -7.85 -3.40 -41.60 l0 -28.95 1.15 -0.95 c2.30 -1.85 17.55 -6.10 28.35 -7.90 9.95 -1.65 18.60 -2.20 29 -1.85 10.95 0.40 13.25 0.65 13.25 1.55 0 0.90 -8.30 23.25 -8.80 23.75 -0.25 0.25 -3.40 -1.20 -7.20 -3.20 -3.70 -2 -6.80 -3.45 -6.90 -3.20 -0.20 0.40 1.10 6.30 5.30 24.55 1.35 5.70 2.25 10.35 2.10 10.35 -0.20 0 -4.35 -4.35 -9.30 -9.70 -5.20 -5.60 -9.10 -9.45 -9.25 -9.10 -0.20 0.30 -0.60 2.80 -0.95 5.55 -0.30 2.75 -0.75 5.25 -0.90 5.55 -0.25 0.35 -3.10 -0.25 -8.60 -1.90 -10.35 -3 -11 -3.15 -11 -2.45 0 0.30 1.95 5.05 4.30 10.60 2.35 5.50 4.15 10.15 4.05 10.30 -0.15 0.10 -2.20 0.75 -4.60 1.40 -2.40 0.70 -4.45 1.30 -4.55 1.35 -0.05 0.10 6.10 4.80 13.70 10.45 7.60 5.65 13.85 10.50 13.95 10.75 0.20 0.60 -7 2.55 -10.85 2.95 -5.50 0.60 -6.80 0.60 -10.20 0.20z" />
    <path
      d="M127.65 83 c0.15 -0.70 2 -8.75 4.10 -17.90 2.10 -9.20 3.75 -16.75 3.65 -16.85 -0.10 -0.10 -3.30 1.50 -7.10 3.55 -3.85 2.05 -7.15 3.55 -7.35 3.35 -0.15 -0.25 -1.30 -3.10 -2.45 -6.40 -1.20 -3.30 -3.10 -8.55 -4.25 -11.65 -1.20 -3.05 -2 -5.70 -1.85 -5.80 0.60 -0.35 13.70 2.55 20.85 4.65 9.10 2.60 10.55 3.25 10.90 4.65 0.15 0.65 0.20 5.30 0.10 10.40 -0.15 5.10 -0.25 10.60 -0.25 12.30 l0 3.05 -7.80 8.45 c-9.65 10.45 -8.90 9.70 -8.55 8.20z" />
  </g>
  <g fill="#eb1d25">
    <path
      d="M70.70 106.25 c-6.85 -5.10 -12.50 -9.45 -12.60 -9.70 -0.15 -0.50 4.05 -2.05 5.50 -2.05 0.50 0 0.90 -0.35 0.90 -0.80 0 -0.65 -2.85 -7.70 -5 -12.45 -0.95 -2.10 -2.45 -6.45 -2.30 -6.60 0.10 -0.10 1.30 0.15 2.60 0.55 8.80 2.75 14.45 4.15 14.75 3.65 0.20 -0.35 0.60 -2.35 0.90 -4.55 0.30 -2.15 0.65 -4.10 0.80 -4.30 0.15 -0.25 1.55 0.95 3.15 2.65 9.30 10 18.10 19.30 18.10 19.20 0 -0.35 -1.75 -8.30 -3.05 -13.85 -0.85 -3.70 -1.95 -8.65 -2.45 -11 -0.55 -2.35 -1.40 -6.15 -1.95 -8.50 -0.60 -2.35 -1.05 -4.55 -1.05 -4.90 0 -0.90 1.05 -0.50 6.05 2.20 6.05 3.25 6.15 3.25 7.10 0.35 1.40 -4.25 7.75 -21.25 8.05 -21.55 0.45 -0.45 0.50 -0.30 3.50 7.90 5.40 14.65 5.95 16 6.40 16 0.30 0 3.05 -1.35 6.20 -3.05 3.15 -1.65 5.70 -2.80 5.70 -2.55 0 0.20 -0.80 3.90 -1.80 8.15 -1 4.25 -2.10 9.05 -2.45 10.70 -1 4.80 -3.15 13.95 -3.95 16.95 -0.40 1.55 -0.50 2.80 -0.30 2.80 0.25 0 4.75 -4.65 10.05 -10.35 5.30 -5.75 9.80 -10.45 10.05 -10.55 0.45 -0.20 0.45 -1.10 0.40 12.50 -0.05 11.20 -0.55 19.35 -1.55 24.40 -0.80 4.10 -1 4.30 -3.30 3.55 -13.55 -4.45 -26.80 -4.35 -43.80 0.45 -2.85 0.80 -6.75 2.05 -8.60 2.75 -1.85 0.70 -3.40 1.25 -3.50 1.25 -0.05 0 -5.70 -4.15 -12.55 -9.25z" />
  </g>
</svg>