<?xml version="1.0" encoding="utf-8"?>
<!-- Generator: Adobe Illustrator 26.0.0, SVG Export Plug-In . SVG Version: 6.00 Build 0)  -->
<svg version="1.1" id="Layer_1" focusable="false" xmlns="http://www.w3.org/2000/svg" xmlns:xlink="http://www.w3.org/1999/xlink"
	 x="0px" y="0px" viewBox="0 0 685.7 685.7" style="enable-background:new 0 0 685.7 685.7;" xml:space="preserve">
<style type="text/css">
	.st0{fill:#FFFFFF;}
</style>
<path class="st0" d="M677.2,8.5C671.6,2.8,664.9,0,657.1,0h-200c-7.7,0-14.4,2.8-20.1,8.5c-5.6,5.7-8.5,12.4-8.5,20.1
	s2.8,14.4,8.5,20.1l64.3,64.3L353.1,261.2c-3,3-4.5,6.4-4.5,10.3c0,3.9,1.5,7.3,4.5,10.3l50.9,50.9c3,3,6.4,4.5,10.3,4.5
	c3.9,0,7.3-1.5,10.3-4.5l148.2-148.2l64.3,64.3c5.7,5.7,12.4,8.5,20.1,8.5s14.4-2.8,20.1-8.5c5.6-5.7,8.5-12.4,8.5-20.1v-200
	C685.7,20.8,682.9,14.1,677.2,8.5L677.2,8.5z M281.7,353.1c-3-3-6.4-4.5-10.3-4.5c-3.9,0-7.3,1.5-10.3,4.5L112.9,501.3L48.7,437
	c-5.7-5.6-12.3-8.5-20.1-8.5s-14.4,2.8-20.1,8.5C2.8,442.7,0,449.4,0,457.1v200c0,7.7,2.8,14.4,8.5,20.1c5.7,5.7,12.4,8.5,20.1,8.5
	h200c7.7,0,14.4-2.8,20.1-8.5c5.7-5.7,8.5-12.4,8.5-20.1s-2.8-14.4-8.5-20.1l-64.3-64.3l148.2-148.2c3-3,4.5-6.4,4.5-10.3
	c0-3.9-1.5-7.3-4.5-10.3L281.7,353.1z"/>
</svg>
