<svg xmlns="http://www.w3.org/2000/svg" viewBox="0 0 517.41 548.5">
    <defs>
        <style>
            .cls-1 {
                fill: #fff;
            }
        </style>
    </defs>
    <g id="Layer_2" data-name="Layer 2">
        <g id="Layer_1-2" data-name="Layer 1">
            <path class="cls-1"
                d="M220.61,545.4c1.4-1.6,2.6-2.9,2.9-2.9a36,36,0,0,0,4.9-4.5,49,49,0,0,1,4.8-4.5c.5,0,3-2.8,3.4-3.8a1.19,1.19,0,0,1,1-.8c.4,0,.8-.3.8-.6a11.2,11.2,0,0,1,2.2-3,11.71,11.71,0,0,0,2.2-2.8,11.45,11.45,0,0,1,2-2.3c1-1.1,3.5-3.9,5.5-6.2s3.9-4.6,4.3-5a3,3,0,0,0,.8-1.2,10.61,10.61,0,0,1,1.6-2,39.93,39.93,0,0,0,3.8-4.5c1.2-1.7,3.2-4.2,4.3-5.8s2.3-3,2.5-3.2a20,20,0,0,0,2.1-4.1,1.54,1.54,0,0,0-.8-.2.71.71,0,0,0-.8.7,28.83,28.83,0,0,1-3.6,4.4c-2,2.1-5.1,5.4-6.9,7.4s-4,4.4-4.9,5.3a7.43,7.43,0,0,0-1.6,2c0,.5-2.6,2.9-3.2,3-.2,0-.5.4-.4.8a2.2,2.2,0,0,1-.6,1.5c-.5.5-.8.5-.8,0,0-.3-.2-.5-.5-.3a.84.84,0,0,0-.2,1c.1.3-.4.9-1,1.2s-1.2.8-1,1c.3.5-3.8,4.6-4.6,4.6-.2,0-.6.5-.8,1.2s-.7,1.2-1.1,1.2c-.9,0,.5-2.2,3.5-5.5,2.5-2.8,3.5-5,1.8-4-1.5.8-8,9.2-7.5,9.5s-2.8,3.5-4,4.1a23.33,23.33,0,0,0-2,2.3c-.9,1.2-1.7,2-1.9,1.7-.5-.8.2-1.8,3.2-4.3,2.8-2.3,3.9-3.7,3.1-3.7a4.06,4.06,0,0,0-1.4,1c-.5.5-1.1,1-1.5,1s-2.5,1.5-6.5,4.9a28.83,28.83,0,0,1-2.8,2.1c-1,.7-2,1.5-2.4,1.8s-1.1.9-1.6,1.2-1,.8-1,1.2-1.2,1.5-2.7,2.5a14.65,14.65,0,0,0-3,2.3c-.5.7-4.4-.5-5.2-1.5a7.2,7.2,0,0,0-1.8-1.1,25.85,25.85,0,0,1-4.2-3.1c-3.2-2.8-5.4-4-3-1.8s1.6,2.5-.9.5c-4.3-3.4-11.3-8-12.1-8a1.05,1.05,0,0,1-1-.8,1.51,1.51,0,0,0-1.3-.8c-1.5,0-2.5-.7-7.4-4.5-.4-.2-.8-.4-1-.2-1.1.7-7-4.3-7-6,0-.4-.2-.8-.5-.8s-.5.3-.3.8c.5,1.1-.4,1.3-1.8.3-.7-.5-2.1-1.5-3.2-2.2s-3-1.9-4.5-2.7a38.39,38.39,0,0,1-5.8-3.8,6.94,6.94,0,0,0-1.5-.9c-2-1-3.2-2-2.9-2.4.2-.2.6,0,1.1.3a1.63,1.63,0,0,0,1.5.3.91.91,0,0,1,1.2.5c.4.7.6.7,1.1.3,1-.8,3.9-1.1,3.9-.3,0,.3-.4.7-.8.9s-.8.5-.8.8c0,1,2.5,3,4,3.3,1.3.3,1.5.2,1.1-.6-.5-1.3-1.7-2.7-2.5-2.7-.4,0-.6-.3-.6-.8s.2-.8.5-.8c1.4,0,.2-1.4-2.1-2.3-2.1-1-2.5-1.2-1.9-1.9a4.14,4.14,0,0,1,2.4-1,7,7,0,0,0,2.6-1.2,5.93,5.93,0,0,1,2.5-1.5c2.6-.9,6-2.7,6-3.1,0-.2.5-.4,1-.4.8,0,1,.2.7,1-.2.6-.1,1,.2,1s.7-.5.9-1c.2-.8,1.6-1.9,6.4-4.8a14.94,14.94,0,0,1,2.8-1.3c7.9-3.5,12.5-6.2,12.8-7.2a1.47,1.47,0,0,1,1.3-1.2c1,0,7.5-3.8,10-5.8,1.5-1.2,2.5-1.2,2,.2-.2.5.9-.3,2.4-1.7s4.3-3.9,6.2-5.5c4.5-3.9,23.6-23.3,28.3-29,2-2.3,4.5-5.5,5.5-6.9a66.15,66.15,0,0,1,4.8-5.8,51.34,51.34,0,0,0,4.1-5,54.79,54.79,0,0,1,3.5-4.8c1.3-1.6,3-4,3.9-5.2,2-2.8,8.3-11.5,8.8-12.2.2-.2,1.2-1.5,2.2-2.8s2.8-3.7,4.2-5.5a38.54,38.54,0,0,1,3.2-4.2,38.54,38.54,0,0,0,2.9-3.8,39.83,39.83,0,0,1,4-5,12.21,12.21,0,0,0,2-2.6.46.46,0,0,1,.5-.4c.6,0-4.8,8.1-5.8,8.7-.4.2-.6.7-.4.9s0,.9-.5,1.3a14.76,14.76,0,0,0-1.6,2.6,19,19,0,0,1-2.2,3.3c-1.7,2-3.3,4.3-3.3,4.7a30.06,30.06,0,0,1-2,2.8c-4.6,5.5-8.7,11.2-8.2,11.5.3.2-.4,1-1.5,1.8a5.67,5.67,0,0,0-2,2,5.86,5.86,0,0,1-1.5,1.7c-1,.8-1.5,1.5-1.2,2.2s-.5,1.5-2.5,3.2a14.78,14.78,0,0,0-3,3.3c-.1.7.9,0,3.4-2.2,3.8-3.4,7.8-7.7,7.8-8.2a8.6,8.6,0,0,1,1.5-2,5.94,5.94,0,0,0,1.5-2.2.54.54,0,0,1,.5-.5c.5,0,5.5-5,5.5-5.4,0-.7,3.8-5,5.2-6a6,6,0,0,0,1.8-1.6c0-.7,3.5-4.7,4.8-5.6a8.53,8.53,0,0,0,2.2-2.4c1.2-1.9,1.6-2,2.5-.2,1.6,3,.4,7-3.3,11a14.24,14.24,0,0,0-2.2,2.8,5.29,5.29,0,0,1-1,1.4,3.43,3.43,0,0,0-1,1.7c0,.3-.5.8-1,1s-1.2.7-1.3,1.2a15.05,15.05,0,0,1-1,1.7l-2,2.5c-1.2,1.5-1.2,1.6-.3,1.6a1.94,1.94,0,0,0,1.5-1.2,9.11,9.11,0,0,1,2.8-2.8c1.2-.9,2.3-1.9,2.3-2.3a.77.77,0,0,1,.8-.7,1.21,1.21,0,0,0,1.1-.8,12.86,12.86,0,0,1,2.2-2.7,56.23,56.23,0,0,0,4-4.8c2.2-3,3-3.5,3-1.6,0,.5.2,1.1.5,1.2,1,.6.5,3.2-1.1,5.3a8.38,8.38,0,0,1-2,2.3,1,1,0,0,0-.4.8,8.14,8.14,0,0,1-1.7,2.5c-1.3,1.4-1.5,1.9-1,2.1,1,.5,1.2.4.8-.5-.2-.4,0-.8.3-.8.8,0,3.8-3.1,5.7-6,1-1.5,1.5-2,2-1.6s.4.8,0,1.6c-.7,1-.5,2,.5,2,.2,0,.5-.3.5-.8,0-1,.8-.5,1.2.8.2.7,0,.9-.5.7-.8-.2-1,1.5-.4,3,.2.7.5.6,1.5-.5,1.2-1.3,1.2-1.3,1.2-.3,0,.6.3,1.2.7,1.3s.5.3,0,.6c-1.2.5-.7,2.1,1,2.7l1.6.5-1.3,1.4a16.19,16.19,0,0,0-2,2.8l-.7,1.4-1.2-1a8.82,8.82,0,0,0-1.3-1c-.3,0,.5,1.8,1,2,.9.6-.8,4.1-2.2,4.7-1,.3-1.3.8-1.1,1.4s0,.8-.5.6-.9.1-1.1.8-.6,1-.9,1-1.2,1-2,2.4a47.31,47.31,0,0,1-3.1,4.3,8.73,8.73,0,0,0-1.8,2.3c0,.2-.5.7-1,1s-.9.8-.8,1-.4,1-1.2,1.6c-1.2.9-1.5,1.3-1.2,2.4s.2,1.2-.3.7-.8-.5-1.5.2a2.85,2.85,0,0,0-.9,1.7,3.64,3.64,0,0,1-1.2,2c-.7.7-1.1,1.5-1,1.8.2.5-.1.7-.8.7s-1,.3-1,1-.2,1-1,.7c-1.1-.3-1.3.5-.5,1.8.5.7.7.5,1.7-.8a21.8,21.8,0,0,1,2.5-2.8c.9-.8,1.2-1.5,1-2.1s0-.8.8-.8,1.6-.6,2.4-1.8a7.47,7.47,0,0,1,2.2-2.2,1.53,1.53,0,0,0,.9-1.2,1.15,1.15,0,0,1,.8-1,2.69,2.69,0,0,0,1.2-1.5c.2-.7.8-1.2,1.1-1.2s1.2-.9,1.9-2a6.87,6.87,0,0,1,2.1-2.3c.5-.2.9-.5.9-1,0-.3.5-.8,1-.9a1.38,1.38,0,0,0,1-1.3,1.22,1.22,0,0,1,1-1.3,1.52,1.52,0,0,0,1-1.2c0-.5.2-1,.4-1s.8-.7,1.2-1.5a38.23,38.23,0,0,1,3.3-3.9,28.49,28.49,0,0,0,3-3.5l.5-1.1,1.3,1.3c.8.8,1,1.5.7,1.6a1,1,0,0,0-.5,1c0,.5.3.7.7.5s.7.1.5,1c-.2,1.2-.2,1.2.9.7s1.1-.5.8.3c-.8,2-.8,2.7-.2,2.7a1.76,1.76,0,0,0,1.3-.6c.7-.7.8-.1.6,1.8-.2,1.6-2.9,6.6-3.8,7-.5.2-.7.5-.5.8s-1.8,3.3-2.8,4.1a8.51,8.51,0,0,0-1,1.3,44.66,44.66,0,0,1-4.8,6.8,1.39,1.39,0,0,0-.5,1c0,.6,2.7-2,3-3,.2-.5,2.5-3.7,6.8-9.3,3.5-4.5,4.7-6.9,4.3-8.2-.2-.5.1-.4.8.4a5,5,0,0,1,1,1.9,9.67,9.67,0,0,0,1.5,2.8c1.5,2.2,2,3.8,1,3.8a11.71,11.71,0,0,0-2.8,2.2c-1.7,1.7-2.3,2.7-2.6,4.2a6.71,6.71,0,0,1-2.1,3.7,11.21,11.21,0,0,0-2.5,3.2c-.4.8-.9,1.3-1.2,1.3s-.4.3-.4.8a2.39,2.39,0,0,1-.5,1.4c-.3.3-2,2.7-3.8,5.1s-4.2,5.8-5.5,7.3a22.51,22.51,0,0,0-2.2,3.2,8.26,8.26,0,0,1-1.4,1.9c-1.4,1.5-4.6,6-4.6,6.5a16.54,16.54,0,0,1-1.8,2.2c-3.7,3.8-7.2,8.2-7.2,9,0,.5-1.5,2.5-3.5,4.3a33.36,33.36,0,0,0-3.5,4,1.93,1.93,0,0,1-.8,1.2,2.13,2.13,0,0,0-.7.9,2,2,0,0,1-1.7,2.1c-.5,0-1,.2-1,.5s-.4.5-.9.5c-.9,0-2.1,1.8-2.1,3.2,0,.3-.7,1-1.5,1.3a4.73,4.73,0,0,0-2.2,2c-.3.8-.8,1.3-1,1.3s-.4.3-.4.7c0,.8-2,3-3.6,3.8-.8.4-1.4.8-1.4,1,0,.8-5.8,7.3-11.5,13-11.8,11.5-17.6,17-18.4,17a23.7,23.7,0,0,0-3.4,2.9l-3,2.8,2.8-3.1Zm-66.2-45.6c0-.5-.5-.8-1.2-.8-1.5,0-1.7.8-.4,1.2C154.31,500.6,154.41,500.5,154.41,499.8Zm4-.3c0-.5-1.2-1-2.4-1-.6,0-.6.2-.1.8S158.41,500.3,158.41,499.5Zm3.5-3c0-.2-.6-.5-1.3-.5s-1.1.2-1,.5.8.5,1.3.5S161.91,496.8,161.91,496.5Zm27.4-12.3c.5-1.2-.2-1.5-.9-.3-.4.8-.4,1,0,1S189,484.7,189.31,484.2Zm84.1-6.3c.8-1.5.2-1-1.3,1-1.2,1.5-1.2,1.7-.2.8A7.48,7.48,0,0,0,273.41,477.9Zm-1.3-24.5c-.5-.8-2.2-.4-2.5.6-.5,1.6.2,2,1.5.9C271.81,454.3,272.21,453.7,272.11,453.4Zm1.5-2.2a1.33,1.33,0,0,0-1-.8c-.6,0-.6.2-.2,1C273,452.7,274,452.4,273.61,451.2Zm35-25.5c.7-1.6.7-2.8,0-2.1s-1.7,4-1.2,4a5,5,0,0,0,1.2-1.9Zm-3-.3c.2-.5-.3-.7-1.2-.7-1.2,0-1.3.1-.9.6.7.8,1.7.9,2.1.1Zm1.9-5c-.8-.8-1.3,0-.5,1,.5.5.8.6.8.2A1.31,1.31,0,0,0,307.51,420.4Zm-25.6-3.4c0-.7-.2-.5-1.5.8l-1.2,1.3,1.4-.9c.7-.4,1.3-1,1.3-1.2Zm15.9.2c-.2-.2-.5-.1-.8.1-.5.3-.5.5,0,.8a.6.6,0,0,0,.8-.9Zm-13-2.7a.75.75,0,0,0-.7-.5c-.3,0-.5.2-.7.5s.2.5.7.5S284.91,414.8,284.81,414.5Zm-9.9-1c.3-.5.3-1,.2-1s-.7.5-1,1-.4,1-.1,1,.6-.5.9-1Zm11.4-2c.7-.8,1.5-1.5,1.8-1.5a1.39,1.39,0,0,0,1-.5c.2-.3-.3-.5-1.2-.5-1.2,0-1.6.3-2.1,1.5-.3.8-.8,1.5-1,1.5a.54.54,0,0,0-.5.5C284.41,413.5,285.21,413,286.31,411.5Zm14.7-1.2-1.7-1.6,1.2,2.2c.8,1.5,1.3,2,1.7,1.6S302.11,411.5,301,410.3Z" />
            <path class="cls-1"
                d="M0,533.8c-.1-.2.4-1,.9-1.8s1-1,1-.7a4.12,4.12,0,0,1-1,1.8C.41,533.7,0,534,0,533.8Z" />
            <path class="cls-1"
                d="M50.71,532.4a42.11,42.11,0,0,1,5-6.8c.4-.1,1.2-1.2,2-2.3a14.27,14.27,0,0,1,1.7-2.3c.1-.2,1.2-2,2.3-4.2,3.5-6.8,5.6-10.5,6.1-10.3.4,0,.5,0,.3-.3-.5-.7.8-4.1,1.5-4.1.4,0,1-.8,1.4-1.8s1-1.7,1.2-1.5.7-.4,1-1.2c.5-1.3.4-1.5-.4-1.5a2.59,2.59,0,0,0-1.8,1.4c-1.6,2.5-3.3,4-4.3,3.8-.5-.2-1,0-1,.3s.4.5.8.3.7,0,.6.6-.5.8-1.2.7c-.9-.1-1.2.2-1.5,1.2-.4,1.6-1.6,3.2-2.2,2.9-.2-.2-.3.2-.1.8s0,1-.2,1-.7.8-.9,1.8a9.88,9.88,0,0,1-1.7,3.4c-1.5,1.6-1.5,1.8-1.5,3.2,0,.5-.1.7-.4.5-.5-.5-.3-3.5.2-3.8s3.6-6,3.6-6.9a4.13,4.13,0,0,1,1-1.8,4.38,4.38,0,0,0,1-1.9,4.13,4.13,0,0,1,1-1.8,3.66,3.66,0,0,0,1-1.8,1.5,1.5,0,0,1,.5-1.2,2.46,2.46,0,0,0,.5-1.7,5.28,5.28,0,0,1,1-2.5c.5-.6,1-1.2,1-1.5s.7-2,2.5-5.7a18,18,0,0,1,2.1-3.5c.3-.2.2-.7-.1-1.1s-.5-.8-.4-.8a4.5,4.5,0,0,0,.8-.2c.5,0,2-1.8,2-2.4,0-.2-.4-.4-.9-.5s-.2-.3.8-.8c1.5-.7,1.8-1.2,1.6-2.5a.68.68,0,0,1,.7-.7c.5,0,.8-.5.8-1.5,0-.8-.2-1.5-.4-1.5-.7,0-3.6,3.4-3.6,4.2,0,.4-.2.8-.5.8a.68.68,0,0,0-.5.7,4.74,4.74,0,0,1-1,1.8,4,4,0,0,0-1,2.2,1.3,1.3,0,0,1-1,1.3,3.2,3.2,0,0,0-1.5,1.7c-.4.8-.8,1.5-1,1.5s-.5.5-.5,1-.6,1.3-1.5,1.8c-1.4.7-1.5.7-1.5-.1a5.22,5.22,0,0,1,1-2.2,5.24,5.24,0,0,0,1-2,1.9,1.9,0,0,1,.5-1.3c.4-.4.3-.8-.5-1.7l-1-1.2v1.2c0,1.1,0,1.1-.5.2-.5-1.4.5-2.5,1.8-1.8s2.2.2,1.9-1.2a2,2,0,0,1,.8-2.2c1.2-1.2,1.2-1.5.3-2.8-.6-.8-.8-.8-1.5-.1-1,.9-1.2,1-2.2.3s-.2-1.4,1.9-1.8a2.78,2.78,0,0,1,2.9,1c1.5,1.5,1.9,1.2,1.5-.8-.2-1.3-.9-1.6-2.8-1.5-.6,0-.9-.2-.9-.9a.87.87,0,0,0-.9-1c-1.1,0-3.2,2.1-3,3,.1.4-.2.7-.9.7s-1,.4-1.1,1.1a2.94,2.94,0,0,1-1,1.8,6.68,6.68,0,0,0-2.1,4.7,1.45,1.45,0,0,1-1,1.5c-.8.2-1,.6-.7,1.5s0,1.3-1,2a2.71,2.71,0,0,0-1.3,1.8.92.92,0,0,1-.8,1c-.5,0-1.1.8-1.5,1.7l-.7,1.6v-2.3c0-1.7-.2-2.5-.9-2.8s-.8-.6-.2-1.2c.6-.8,1.8-.6,1.3.2s.8,1,2.2.2,2.1-2.2,1-2.2a.54.54,0,0,0-.5.5c0,.3-.5.5-1.1.5-.9,0-1-.2-.5-.6.8-.8.8-2.9,0-2.9-.2,0-.4-.2-.2-.4s1-.3,1.8-.2a2.86,2.86,0,0,0,2.6-.8c1-.8,1-1,.3-1-.5,0-.9.2-.9.5s-.5.5-1,.5q-1.05,0-.6-.6a3.87,3.87,0,0,0,.4-1.7,2,2,0,0,1,1.1-1.5c1-.4,1.1-.8.9-1.8s0-1.4.5-1.6.6-.5.5-.8a.74.74,0,0,1,.4-.9,7.2,7.2,0,0,0,1.8-2.5,7,7,0,0,1,1.5-2.4,1.91,1.91,0,0,0,.5-1,2.57,2.57,0,0,1,1-1.6,1.73,1.73,0,0,0,.7-1.8c-.5-1.1-1.2-1.1-1.6,0-.3.8-.9,1.6-3.5,5a2.58,2.58,0,0,1-1.7,1.2c-1,0-1.1,2.5-.3,3.1a.54.54,0,0,1,.2.8c-.2.2-.6,0-.8-.3-.5-.8-1.5-.3-1.5.7,0,.3-.9,1-1.9,1.2a12.28,12.28,0,0,0-2.4,1c-.3.2-.6.5-.9.5-.5,0,.2-1.3,2.2-4.3a11.69,11.69,0,0,0,1.4-2.5,3.27,3.27,0,0,1,1.2-1.5c.7-.7,1.1-1.5,1-1.8s0-.7.3-.7.5-.5.5-1a2.15,2.15,0,0,1,1-1.5,2.15,2.15,0,0,0,1-1.5c0-.5.2-1,.5-1s.5-.3.5-.8a3.66,3.66,0,0,1,1-1.8,3.66,3.66,0,0,0,1-1.8c0-.5.2-.8.5-.8s.5-.5.5-1a2.57,2.57,0,0,1,1-1.6,2.37,2.37,0,0,0,1-1.5c0-.5.2-.9.5-.9s.5-.5.5-1,.2-1,.5-1,.5-.4.5-.9a2.57,2.57,0,0,1,1-1.6,2.57,2.57,0,0,0,1-1.6c0-.5.2-.9.5-.9s.5-.5.5-1,.2-1,.5-1,.5-.8.5-1.7c0-1.2.2-1.8,1-2,1.2-.3,1.3-1.5,0-2.6s-2.1-.5-3.4,2.2a12.48,12.48,0,0,1-1.5,2.5,1.56,1.56,0,0,0-.6,1,5.71,5.71,0,0,1-1.2,1.8,5,5,0,0,0-1.2,2c0,.3-.5.8-1,1.2a2.19,2.19,0,0,0-1,1.4,2.56,2.56,0,0,1-2,2.2c-.4,0-.5.4-.2,1,.1.5.1,1-.1,1a4.39,4.39,0,0,0-1.4,1.7,8.6,8.6,0,0,1-1.9,2.2c-.5.3-.8.8-.7,1s-.8,1.6-2,3.1a14.27,14.27,0,0,0-2.2,3.3,1,1,0,0,1-.4.8,40.63,40.63,0,0,0-3.4,4.4,67.15,67.15,0,0,1-5.2,7,10.18,10.18,0,0,0-1.5,2.2c0,.5-1.4,2.3-4.5,5.8a88.82,88.82,0,0,0-6.8,8.8c-.5.6-1,1.1-1.4,1.1s-.2-.3.2-.8a5.76,5.76,0,0,0,1.1-2.5,5.6,5.6,0,0,1,2.2-3,27.55,27.55,0,0,0,4.1-5.8c1.2-2.4,2.6-4.6,3.1-4.8a1.86,1.86,0,0,0,.9-1.5c0-.5.2-1,.4-1,.5,0,2.6-3.7,2.6-4.7a2,2,0,0,1,1-1.3c.5-.3,1-.8,1-1.2s.2-.8.5-.8.5-.5.5-1a2.15,2.15,0,0,1,1-1.5,2,2,0,0,0,1-1.8,1.38,1.38,0,0,1,1-1.5,3.22,3.22,0,0,0,1.6-1.5c1-1.8,2.6-4.3,3.1-4.5a1.18,1.18,0,0,0,.4-1,2,2,0,0,1,1-1.5,3.65,3.65,0,0,0,1.2-2.4c.2-1,.6-1.9,1-2a2.75,2.75,0,0,0,1-1.7,5.73,5.73,0,0,1,1.5-2.6,3.37,3.37,0,0,0,1.2-1.6c0-.5.5-1.2,3.9-5.4a9.42,9.42,0,0,0,1.9-3.2,1.92,1.92,0,0,1,1.2-1.4c.9-.2,1.2-1.3,1-3.7,0-.6.1-1.2.5-1.4.2-.2.5.1.5.6,0,.8.1.8.8,0,1-1.4,1-2.3-.3-2.3-.7,0-1.2.5-1.6,1.5-.3.8-.9,1.5-1.2,1.5s-.9.5-1.2,1.2a5,5,0,0,1-1.3,1.5.66.66,0,0,0-.4.8.71.71,0,0,1-.3.8c-.4.2-.5.2-.2-.2s.1-.6-.2-.6-1,.7-1.4,1.5-1,1.5-1.2,1.5-.4.5-.4,1-.2,1-.5,1a.56.56,0,0,0-.5.6,10.93,10.93,0,0,1-1.9,2.8,24.07,24.07,0,0,0-2.5,3.7c-.3.8-.9,1.3-1.2,1.3-.8,0-3,3.5-2.3,3.5.3,0,0,.5-.8,1s-1.3,1.2-1.3,1.5a7,7,0,0,1-1.1,2.1c-.6.9-1.7,2.4-2.3,3.5-1,1.7-1,1.8-.2,2.7.5.5.6,1,.5,1.2s-.5,0-.6-.2a1.11,1.11,0,0,0-.9-.7c-1.1,0-1.4,1-.5,1.8s.9.7.1.8c-1.8,0-3.9,3-3.9,5.5,0,.8-.2,1.7-.5,1.8a.3.3,0,0,1-.5-.2c0-.9-3,2.5-5.4,6.1a17.09,17.09,0,0,1-2.5,3.3c-.3,0-.2-.1,2.2-4,1.5-2.3,3.5-5.2,5.4-7.8.2-.2,1-1.8,1.9-3.5a47.43,47.43,0,0,1,2.8-4.8,51.27,51.27,0,0,0,2.9-5.8c1-2.2,1.9-4.1,2-4.2a7.35,7.35,0,0,0,.9-1.2c3.1-5.8,3.9-7,4.2-7.5a2.57,2.57,0,0,0,.5-1.2c0-.8.6-1.7,3.3-4.4a8.44,8.44,0,0,0,2.4-3.9q.3-1.8,3-4.5c2.6-2.8,7.9-10.6,7.9-11.9a5.43,5.43,0,0,1,1.7-2.3,24.42,24.42,0,0,0,3.5-5.2,26.58,26.58,0,0,1,2.9-4.8,70.72,70.72,0,0,0,5.9-8.7,17.49,17.49,0,0,1,2.2-3c.9-.8,3-4.2,4.8-7.3,7.8-13.8,24.8-48.2,27.8-56a17.73,17.73,0,0,1,1.4-3c.3-.2.9-1.5,2-4,.2-.7.9-2,1.2-3,.5-1,1.2-3,1.9-4.5s1.6-4,2.3-5.5a26.82,26.82,0,0,0,1.6-3.8c.7-1.7,3.4-8.2,5.2-12.8,5.2-12.6,6.3-15.5,6.9-17.5a37.1,37.1,0,0,1,2-5c.8-1.5,1.8-4,2.4-5.5,2.7-7.2,4.4-11.3,4.6-11.8a6.17,6.17,0,0,0,.7-2,25.7,25.7,0,0,1,1.6-4.1c.6-1.5,1.2-2.8,1.2-3,0-.4,1.7-4.8,5.8-15.1,1.5-3.7,3.5-8.9,4.4-11.5s2-5.5,2.4-6.5,1-2.7,1.5-3.9a15.8,15.8,0,0,0,.9-2.6,16.69,16.69,0,0,1,1-2.6c.5-1.2,1.5-4,2.2-6.1s2.8-8.5,4.7-14c4-11.7,3.6-10.5,5.1-15.2s2-6.5,2.5-7.8,2.2-6.4,3-9.2c.4-1.2.8-2.9,1-3.7.9-2.7.6-3.3-.9-2.9-.8.2-3.1,1-5.1,1.5a68.53,68.53,0,0,0-9.8,3.5,38.34,38.34,0,0,1-4.1,1.5,10,10,0,0,0-3.6,1.6c0,.2-.5.4-1,.4s-1,.2-1,.5-.4.5-.9.5a17.32,17.32,0,0,0-3.9,1.5,12.74,12.74,0,0,1-3.6,1.5c-.4,0-.6.2-.6.5s-.4.5-.8.5a19.86,19.86,0,0,0-6,3,1.43,1.43,0,0,1-1.1.5c-.9,0,6.3-5.5,7.3-5.5a.56.56,0,0,0,.6-.5c0-.2.4-.5.8-.5a4.13,4.13,0,0,0,1.8-1,4.13,4.13,0,0,1,1.8-1c.4,0,.8-.2.8-.5s.5-.5,1-.5,1-.2,1-.5.4-.5.9-.5a2.2,2.2,0,0,0,1.5-.6q.6-.6.6-.3c0,.2,1.3-.3,2.9-1a91.1,91.1,0,0,1,10.1-4.5c1.5-.6,3.5-1.4,4.5-1.9,3-1.4,4.6-2,7.2-3s4.9-2.2,4-2.2c-1.5,0-19.1,5.8-23.8,7.9-1,.4-2.3,1-3,1.2a20.92,20.92,0,0,0-2.1,1,6.69,6.69,0,0,1-1.9.5c-.5,0-1,.2-1,.5s-.4.5-.8.5a3.68,3.68,0,0,0-1.6.5,18.94,18.94,0,0,0-2.1,1c-.7.3-2.2.9-3.4,1.4s-2.1,1.1-2.1,1.4c0,1-3.7,3.9-5,3.9h-1.3l1.5-1c.9-.5,2-1.5,2.8-2l1.2-1h-1.1c-.6,0-1.1.2-1.1.5s-.3.5-.7.5c-.6,0-3.9,1.6-8,4-1.1.6-3.1,1.8-4.5,2.5-4.1,2.2-6.5,3.6-6.8,4a15.84,15.84,0,0,1-4.1,2.4,1.35,1.35,0,0,0-.9.6c0,.2-.6.6-1.4,1a22.41,22.41,0,0,0-6,3.8c-.9.6-1.7,1-1.9.9s-.5.1-.6.8-.6,1.1-1,1.1a2.39,2.39,0,0,0-1.6,1,5.54,5.54,0,0,1-1.9,1.2c-1,.4-2.6,2-4,4.1-.5.9-.6.9-1.1.2s-.7-.5-1.6.7c-1.6,2.1-4.5,4.8-4.9,4.5-.2-.1-.9.4-1.5,1.1a66.05,66.05,0,0,0-6.5,8.3,3.07,3.07,0,0,1-1.6,1.6c-.9.2-1.4,1.6-1.4,3.4v1l.5-1a22,22,0,0,1,2.9-3.2c1.3-1.2,3.3-3.4,4.5-4.8,1.4-1.6,1.8-1.9,1-.8a49.41,49.41,0,0,1-5.4,6.2c-4.9,5.2-9,10.7-10.2,13.4a12.48,12.48,0,0,1-1.5,2.5c-1,1-4.8,9-6.1,13a46.71,46.71,0,0,1-1.9,4.9,14.57,14.57,0,0,0-1,3.9c-.3,2.2-.2,2.6.6,3.1.6.4,1.1.4,1.3,0,.5-.8,1.2-.6,1.2.3,0,.5.2.7.8.5a1.63,1.63,0,0,1,1.5.3c1.2,1,15,.5,20.1-.6,5.8-1.4,7.2-1.7,11.1-2.9a23.81,23.81,0,0,1,4-1c.6,0,8.6-2.8,16-5.5,2.1-.9,4-1.4,4.1-1.2s-3,1.8-3.8,1.8c-.4,0-5.5,2.4-6.9,3.1a9.72,9.72,0,0,1-2.5,1.2c-.8.4-1.9.9-2.4,1.2a7.19,7.19,0,0,1-2.4.5c-1.4,0-2.5.8-2,1.3s8.9-2,8.9-2.6c0-.8,1.1-.9,1.9,0,.5.5.8.4,1.3-.4s.9-.9,1.5-.4.9.5,1.4-.2.6-.8-.3-.5c-.6.2-.5,0,.5-.9l1.5-1.2.2,1.3c.3,1.5,1.6,1.9,1.9.5.1-.5-.1-.9-.5-.9s-.2-.4.3-1a3.29,3.29,0,0,1,1.8-1c1.3,0,4-2.4,3.6-3.2-.1-.5.1-.8.9-.8s1,.2.8,1c-.2.6-.1,1,.3,1s.5.1,0,.7a1.29,1.29,0,0,1-1.2.5c-.9-.4-4.8,2.7-4.8,3.6,0,.4,0,.6.1.6a67.18,67.18,0,0,0,8.5-3.4l5-2.5,2.5-1.1-3.6,3.5a25.34,25.34,0,0,1-4,3.5c-.9,0-5.7,3.8-8.6,6.6-2.3,2.2-3.2,2.9-4,2.6s-.9-.1-.4.2.4.5-.6.8c-1.4.4-4.1,3.6-3.6,4.1.2.2.9,0,1.5-.4s1.8-1,2.5-1.4a4.21,4.21,0,0,0,1.7-1.4,1,1,0,0,1,.8-.7,11.17,11.17,0,0,0,2.8-1.8c5.3-4,7.2-5.4,7.4-5.1s-.8,1.1-4.1,3.4c-1,.7-3.2,2.5-4.9,4s-3.9,3.5-4.8,4.2-3,2.5-4.5,3.9a105,105,0,0,1-8.2,7c-6.8,5.4-16.2,13.9-16.2,14.5s2.1.2,3.4-.5a18,18,0,0,1,5.8-1.8c.5,0,.9-.2.9-.4s.8-.7,1.8-1,3.6-1.8,5.9-3.1a49,49,0,0,1,5.1-3,13,13,0,0,0,1.8-1.5c1.1-1.2,2.5-1.1,2.1.1-.2.8-.4.9-.7.4s-.6-.2-.5.8c0,.2-.5.5-1.1.8a4.9,4.9,0,0,0-1.5,1.2,1.17,1.17,0,0,1-1.1.8,1,1,0,0,0-.8,1c0,.5-.2,1-.5,1a11.38,11.38,0,0,0-2.8,2,11.38,11.38,0,0,1-2.8,2,2,2,0,0,0-1,.7,17.6,17.6,0,0,1-3.5,2.4c-5.8,3.1-6.6,3.9-6.4,5a2.88,2.88,0,0,0,1.4,1.5c1,.5,1,.6-.7,1-1,.2-2.4.5-3.1.7s-1.4.5-1.4.7-.5.5-1.1.5c-1.1,0-3.1.8-5.5,2a6.69,6.69,0,0,1-1.9.5c-.5,0-1.1.2-1.2.5s-.9.5-1.6.7c-1.9.3-7.3,2.3-7.9,2.9-.2.2,0,.4.5.2s3.1-.5,5.7-.8,5.9-.9,7.2-1.2a69.8,69.8,0,0,0,8.9-2.8,5.82,5.82,0,0,1,1.6-.5,3.68,3.68,0,0,0,1.6-.5c10.9-5.4,15-7.9,21.6-12.8,2.6-2,5-3.6,5.2-3.8a62.68,62.68,0,0,0,5.6-5.4,64.12,64.12,0,0,1,5.5-5.2c.7,0-11.2,12-12,12a2.84,2.84,0,0,0-1,.6c-1.6,1.5-7.5,5.9-7.9,5.9-.2,0-.5.1-.5.4a6.57,6.57,0,0,1-2,1.6,6.57,6.57,0,0,0-2,1.6c0,.2-.5.4-1,.4s-1,.1-1.1.4c-.2.5-5.8,4.2-7.6,5.1-.8.4-2.6,1.4-4,2.2-3.1,1.9-5,2.8-6.2,2.8a2.24,2.24,0,0,0-1.5.8,2.48,2.48,0,0,1-1.5.8,1.42,1.42,0,0,0-1.1.4c-.3.5,3.8,0,5.5-.7a9.3,9.3,0,0,0,1.9-1.1c.7-.6,1-.6,1.3-.1s1.4.1,4.5-1.4a46.59,46.59,0,0,0,4.7-2.5c.3-.2,1.4-.9,2.5-1.5s2.5-1.5,3.2-1.9q2-1.2-3,3a36.32,36.32,0,0,1-5.8,3.9,2,2,0,0,0-1.1.7,73.74,73.74,0,0,1-10.5,5.4c-1,.4-2.8,1.2-4.1,1.8a14.32,14.32,0,0,1-3.8,1,5.35,5.35,0,0,0-1.8.3c-.6.6-5.8,1.6-8.5,1.7-2.9,0-4.5.8-3.1,1.2.8.3,9.1-.3,12.9-1a82.89,82.89,0,0,0,8.5-1.8c.7-.2,2.2-.7,3.5-1a6.23,6.23,0,0,0,2.5-1,4.68,4.68,0,0,1,1.5-.8,70.41,70.41,0,0,0,10.8-5.9c2.5-1.6,5.1-3.5,6-4.2l1.5-1.3-1.2,1.4a31.74,31.74,0,0,1-5.2,4c-2.2,1.5-5.5,3.6-7.5,4.9a52.34,52.34,0,0,1-9.8,5,10.93,10.93,0,0,0-1.5.8c-1,.5-4.9,2.3-6.2,2.9a7.86,7.86,0,0,1-2.5.5c-.8.2-2.4.5-3.5.9a5.76,5.76,0,0,1-2.4.5c-.2-.2-.9,0-1.5.3a15.2,15.2,0,0,1-4.6.5c-2.3,0-3.4,0-3,.4.6.6,5.9.8,12.4.3a31.33,31.33,0,0,0,8.6-1.6c2.1-.7,3.9-1.2,4-1s-.9.7-2.2,1.1a9.08,9.08,0,0,0-2.8,1.3,2.29,2.29,0,0,1-1.4.5,4.48,4.48,0,0,0-2.3,1,10.46,10.46,0,0,1-3.4,1.2,55.92,55.92,0,0,0-6.2,1.2,30,30,0,0,1-5.2.2c-4.1,0-5.8-.2-12.2-1.5-4.1-.8-15.3-6.9-20.6-11.2-8.1-6.5-18.4-18.3-22.6-26a67.49,67.49,0,0,1-5.3-12.9c-.4-1.2-1-3.2-1.4-4.5-1.5-4.5-2.5-13.5-1.6-13.5.2,0,.5.5.5,1.2,0,1.8.5,2.8,1.3,2.5.4-.1.6-.4.5-.6a36.19,36.19,0,0,1-1.3-7.9c0-.6-.2-1.1-.5-1.1s-.5,1-.3,2.6c.2,1.9.1,2.2-.1,1.4-.6-1.7-.6-7.5,0-8.5.4-.5.5-.5,1,.6a8.5,8.5,0,0,1,.5,2.5c0,2.6,1.9,10.8,3.2,14.4.5,1.2,1.3,3.5,1.9,5,1.8,4.9,5.9,13.6,6.2,13.3a27.38,27.38,0,0,0-1.6-5c-1.7-4.5-2.5-8.6-3.8-19.5-1-8.5-1.1-11.6-.5-12,.4-.2.5.5.5,2.3a54.26,54.26,0,0,0,.8,6.9l.6,4.2-.2-7c-.2-4.9-.1-7.4.3-8.1a51.08,51.08,0,0,0,1.4-8,83.67,83.67,0,0,1,1.5-9.1,31.24,31.24,0,0,0,1.2-5.4,18.18,18.18,0,0,1,1.5-4.8,8.13,8.13,0,0,0,1-2.4,2.33,2.33,0,0,1,.7-1.5,1.29,1.29,0,0,0,.5-1.2,12.33,12.33,0,0,1,1.2-4,14.78,14.78,0,0,0,1.5-4.4c0-1,1.4-4.5,5.5-14.2.2-.5,1.1-2.9,2-5.2a23.2,23.2,0,0,1,3-5.8,41.62,41.62,0,0,0,3.4-5.3,164.15,164.15,0,0,1,16.9-25.8c4.3-5.4,12.5-14,10.5-11a17.5,17.5,0,0,1-2,2.5,31.6,31.6,0,0,0-2.3,3.2,25.13,25.13,0,0,1-2.3,3.2,73.45,73.45,0,0,0-4.4,6.5,115.17,115.17,0,0,0-10.3,19.3c-.9,2-2.6,5.9-3.9,8.5-5,10.5-6,13.1-7.6,18.5-.4,1.2-.8,2.8-1,3.5s-.9,3.3-1.5,5.8a42.6,42.6,0,0,1-1.5,5.5c-1,2.2-2,13.5-1,12.2a7.81,7.81,0,0,0,.5-3.2c0-2.9,2.1-12,3-13a7.37,7.37,0,0,0,1-2.6c1.2-5.9,6.1-18.6,10.4-27.4,1-2.2,2.3-4.8,2.7-5.8a29,29,0,0,1,2.4-5,19.42,19.42,0,0,0,1.1-2.4c.4-.9.8-1.6,1-1.6s.4-.5.4-1c0-1.7,5.1-9.5,11.5-17.3,3.6-4.5,7-8.5,8.5-10.2a38.32,38.32,0,0,0,2.4-3.1,4,4,0,0,1,1.6-1.6c.5-.1,2.1-1.8,3.8-3.6s3.2-3.5,3.6-3.9,1.6-1.5,2.9-2.7,2.4-2,2.6-1.9a.91.91,0,0,0,.9-.3c.2-.4.1-.5-.4-.2s.1-.4,1-1.4c2-2.1,2.5-2.4,1.2-.5-.5.7-.8,1.4-.6,1.5.4.4,2-1.8,2-2.7,0-.5.9-1.6,1.9-2.5,1.4-1.3,1.8-1.4,1.5-.6-.4,1.6.8,1.7,1.6.1a9,9,0,0,1,1.2-1.8c1.6-1-1.8,3.2-7.3,9-14.3,14.9-19.2,20.3-19.2,21.2a.46.46,0,0,1-.4.5,2.14,2.14,0,0,0-1.1,1.2c-.5.9-1,1.1-1.5,1s-.9,0-1.1.8c-.1.5-.5,1-.8.8-.5-.3-2.4,3.6-2,4,.1.1.8-.2,1.4-.8s1.2-1,1.3-.9a14.57,14.57,0,0,1-2.5,3.1,25.4,25.4,0,0,0-2.8,3.2,2.19,2.19,0,0,1-.6,1,57.44,57.44,0,0,0-6.6,9.7c-.4,1-.8,1.7-1,1.7-.6,0,4-9.8,5.5-11.5,1.2-1.4,2.3-4,1.6-3.8s-5.5,8.3-8.5,13.8a11.65,11.65,0,0,1-1.5,2.5,34,34,0,0,0-1.7,3.1c-.8,1.6-1.5,3-1.8,3.1s-1.7,2.8-3.2,5.9c-2.9,5.9-5.6,14-5,14.9a1.1,1.1,0,0,1-.1,1.1,10.07,10.07,0,0,0-.8,2.6c-.3,2.1-.4,2.3,1.6-2.5a30.21,30.21,0,0,1,2.5-4.5,15.94,15.94,0,0,0,1.9-3.6c.2-.6.5-1.1.8-1.1s1.2-1.7,2.2-3.9,1.9-3.7,2-3.5a2.51,2.51,0,0,1-.5,1.7,40.11,40.11,0,0,0-1.6,4.4,30.74,30.74,0,0,1-1.2,3.5c-1.2,1.9-4,13.8-5,21.2-.6,4.3-.5,16.4,0,15a61,61,0,0,0,1.1-7.5,107.26,107.26,0,0,1,2-10.8,33.06,33.06,0,0,0,1.3-4.9c0-.5.2-1,.5-1.1s.5-.8.5-1.4a15,15,0,0,1,1.5-4.1c.8-1.6,1.4-2.5,1.1-1.8-.1.7-.5,2.1-.8,3.2s-.7,3.4-1,5-.6,3.7-.8,4.5-.2,4-.2,7c.1,12.8,0,17-.6,17.4s-.5.5,0,.7a1,1,0,0,1,.6.9,1,1,0,0,0,.6,1c.4.2.5,0,.2-.8-.5-1.8.6-13.4,1.9-19.3.1-.8.5-2.3.6-3.2a26.06,26.06,0,0,1,1.5-4.5,10.91,10.91,0,0,0,1-3.6c-.1-.6.1-1.1.5-1.2s1.1-1.2,1.7-2.5,1.1-2.2,1.4-2.2a5.55,5.55,0,0,0,1.8-1.1c.6-.6,2.5-2.2,4-3.6s3.1-2.7,3.5-3,1.7-1.4,3-2.5,2.9-2.4,3.4-2.9a51.32,51.32,0,0,1,4.8-3.6,33.42,33.42,0,0,0,4.5-3.5,2.32,2.32,0,0,1,1.3-.8,1.17,1.17,0,0,0,1-.6,2.68,2.68,0,0,1,1.3-1,1.17,1.17,0,0,0,.9-1.1c0-.4.2-.8.5-.8a5.49,5.49,0,0,0,1.9-.6,8.45,8.45,0,0,1,1.8-.5.73.73,0,0,0,.6-.6c.1-.4.4-1.1.5-1.5a.66.66,0,0,1,.8-.5c.4.2.4.6-.1,1.1s-.5.7.1.5a1.08,1.08,0,0,0,.8-1c0-1.4.9-2,2.2-1.9,1,.1,1.4,0,1.2-.5-.1-1.1.3-1.8.8-1.1.1.4.7.5,1.1.2a.61.61,0,0,0,.5-.9c-.2-.3,0-.4.3-.1a1.54,1.54,0,0,0,1.5-.4,4.6,4.6,0,0,1,1.8-1c.5-.2.8-.6.6-1s-.5-1.1-.6-1.5-.1-.8.2-.8.6.5.8,1.1l.3,1.1,1.2-1.1a3.9,3.9,0,0,1,1.7-1.1,4.06,4.06,0,0,0,1.4-1c.5-.5,1.1-1,1.5-1s.9-.5,1.3-1,1-.9,1.6-.7.9,0,.9-.5.6-1,1.4-1.4a36.17,36.17,0,0,0,3.4-2,36,36,0,0,1,3.5-2,16.82,16.82,0,0,0,1.8-1,7.21,7.21,0,0,1,3.2-1.5c.4,0,.8-.2.8-.5s.4-.5.8-.5a6.8,6.8,0,0,0,3.2-1.5c.5-.6,14-7,14.9-7a29.89,29.89,0,0,0,4.6-2,25.3,25.3,0,0,1,4.3-1.9c.1.1-.7.6-1.8,1.1s-2,1.1-2,1.4-.2.4-.6.4a31.08,31.08,0,0,0-6.4,3,3,3,0,0,1-1.5.4,3.86,3.86,0,0,0-2,.8,18.16,18.16,0,0,1-2.6,1.5c-1,.5-1.9,1-1.9,1.4a.49.49,0,0,1-.6.4c-1-.1-3.4,1-3.4,1.5,0,.2-.5.5-1,.5a1.73,1.73,0,0,0-1.3.5c-.3.5-8.1,4.5-8.9,4.5-.3,0-1,.6-1.7,1.3-.9.9-1.5,1.1-2.2,1s-1-.1-1,.7c0,.6-.2,1-.6,1a7,7,0,0,0-2.1,1.1c-.9.6-1.8,1.3-2,1.4-1.4.5-10.2,6.6-10.2,7,0,.2-.5.5-1,.5s-1,.2-1,.4a17.68,17.68,0,0,1-3.6,3.3c-5,4-14.9,13.6-14.9,14.6,0,1.5,2.6.2,5-2.4,3.7-4.1,4-4.4,9.6-8.5a54.15,54.15,0,0,0,5.1-4,7.09,7.09,0,0,1,2-1.4c.3,0,.9-.5,1.2-1a2.51,2.51,0,0,1,1.2-1,8.18,8.18,0,0,0,2.2-1.5,5.68,5.68,0,0,1,2.4-1.5c.4,0,.6-.2.6-.5a.65.65,0,0,1,.6-.5,8.12,8.12,0,0,0,2.4-1.5,7,7,0,0,1,2.4-1.5.56.56,0,0,0,.6-.5c0-.2.5-.5,1-.5s1-.2,1-.4a6.26,6.26,0,0,1,2.5-1.6,8.42,8.42,0,0,0,2.5-1.5c0-.2.5-.4,1-.4s1-.2,1-.5.4-.5.9-.7c1.1-.4,3.8-2,4-2.5a.82.82,0,0,1,.6-.4,25.18,25.18,0,0,0,3.7-2,17.12,17.12,0,0,1,4-2,1.33,1.33,0,0,0,1-.8,1.08,1.08,0,0,1,.6-.7,7.63,7.63,0,0,0,3.6-1.5,45.13,45.13,0,0,1,4.9-2.4,72.43,72.43,0,0,0,6.8-3.5,30.28,30.28,0,0,1,6-2.6,10.28,10.28,0,0,0,3.1-1.1,2.11,2.11,0,0,1,1.4-.4c1.4,0,4.6-1.1,4.8-1.6.4-1.2-.5-1.3-2.6-.4-3.4,1.5-3.5,1.3-.4-.5s3.7-1.9,4.6-.5l.7,1.1,2.2-1.1a14.39,14.39,0,0,1,3-1,5.34,5.34,0,0,0,2-.5,14.06,14.06,0,0,1,3.4-1c3-.9,8.5-2.5,9.8-3,.5-.2,2-.6,3.2-1s2.8-.8,3.5-1,2.2-.6,3.5-1,2.8-.8,3.5-1,2.2-.6,3.5-1c8.5-2.5,12.2-4,11.4-4.9-.2-.2-.6,0-.9.5-.6,1-1.6,1.1-1.2.1.1-.5,0-.8-.5-.8a1.17,1.17,0,0,0-1,1c-.3,1.1-1.1,1.4-1.1.2,0-.6-.5-.6-2.4-.4a39.33,39.33,0,0,1-4.5.4q-2.1,0-2.1.6c0,.6-1.9,1.4-2.4,1-.2-.1,0-.3.2-.3.4,0,.6-.2.6-.5,0-.7-3.2-.6-3.9.1-.4.4-.6.4-.6.1s1.6-1.2,3.6-2.2,4.5-2.1,5.5-2.6a11,11,0,0,1,2.5-.9,3.68,3.68,0,0,0,1.5-.8c.9-.6.9-.8.1-1.5-1-1-1.5-1-1.2-.1a1.19,1.19,0,0,1-.5,1.3c-.5.5-.7.4-.7-.6,0-.7-.4-1.4-.8-1.5-1-.4-1.5.6-.7,1.2.5.3.1.4-.9.1-1.2-.2-1.7-.1-2,.5a.59.59,0,0,1-.8.5,1.2,1.2,0,0,0-1.2.4c-.6.5-.6.5-.4-.2s.1-.8-.6-.5a5.3,5.3,0,0,0-1.5.8,1.45,1.45,0,0,1-1.2.3c-1.1-.4,2.1-2,4-2,1.1,0,2-.2,2-.4a3.46,3.46,0,0,1,.3-1.2c.2-.6,0-.8-.9-.7-2.4.2-3,0-3-1.1a73.31,73.31,0,0,1,3-10.6,136.53,136.53,0,0,0,4.4-15.2,3.87,3.87,0,0,1,1-1.8c.4-.2,1.2-2.8,1.9-5.5a71.45,71.45,0,0,1,2.8-9.5c.2-.5.9-2.9,1.5-5.2s1.5-5.5,2-7,1.1-4.1,1.5-5.8.9-4.2,1.2-5.8a89.22,89.22,0,0,0,1.8-15c0-1.4.2-2.5.5-2.5,1.2,0,9.2,4.9,13,8.1a28.1,28.1,0,0,0,4.6,3.4c.2,0,.1-.4-.3-.7-1.1-.9-1.1-1.3-.1-1.3,1.5,0,9,5.1,9,6.1,0,.8,2,1.9,3.2,1.9a8.51,8.51,0,0,1,3,1.1c1,.6,3,2,4.5,3a14.56,14.56,0,0,0,3.2,1.9c.3,0,2.8,1.4,18.1,10.1,7.8,4.5,18.1,11.2,19.2,12.5a10.27,10.27,0,0,0,3.2,2.1,42.29,42.29,0,0,1,5.1,3.2,9.77,9.77,0,0,0,5,2.3l2.3.4-2.3,2a16.24,16.24,0,0,0-3,3.1,18.57,18.57,0,0,1-2.7,3.3c-1.8,2-3.8,5.2-7.1,11.6a42.52,42.52,0,0,0-3,7.9c-1.8,5.6-2.2,5.2,6.3,5.6,4,.2,8.6.5,10.1.8,9.4,1.5,14.6,2.6,18.8,3.9a122.5,122.5,0,0,1,15.6,6c4,1.9,4.6,2,3.5.9a2.22,2.22,0,0,1-.8-1.2c0-.6,1.8-.6,2.2,0,.5.9,7.9,5.6,12,7.6a23.43,23.43,0,0,1,4.1,3c1.2,1.1,2.2,1.9,2.2,1.7,0-.9-5.1-6.8-8.6-9.9-6.3-5.5-11.5-9.1-16.8-11.7-6.3-3-17.5-6.8-21.7-7.2-1.8-.2-4.7-.6-6.5-1s-4.7-.8-6.5-1c-2.7-.4-2.2-.4,3-.2,10.2.4,15.3,1.2,23.2,3.9,12,4,23.6,10.6,29.8,17.1,4,4.3,10.5,13.2,12.5,17.1,1,2,2.3,3,1.8,1.2-.2-.5-.5-1.9-.8-3a11.27,11.27,0,0,0-2.7-4.8c-2.6-3-5.2-7.2-4.7-7.7,1.4-1.4,14.9,17.5,17.8,24.8.5,1.5,3.1,6.8,5.7,11.8,4.5,8.9,8.7,18.8,9.8,23.3.6,2.6,1,4,1.7,6.5l.7,3.5c.2,1,.5,2.9.8,4.2.6,3.6.6,7.2,0,7.2-.3,0-.5-.4-.3-.8s.1-.9-.2-1a6.71,6.71,0,0,1-.8-2.2c-.3-1.1-.5-2-.8-2s-.5-.6-.5-1.5a2.4,2.4,0,0,0-.5-1.8,2.37,2.37,0,0,1-.5-1.5,5,5,0,0,0-.5-2.1c-.2-.5-.8-1.9-1.2-3.1-.5-1.7-1-2.3-1.9-2.4s-1,0-.8.8c1.5,3.5,3.5,16.3,4,26,.2,4.7-.3,5.1-1.3.8a8.67,8.67,0,0,0-1-3,4.07,4.07,0,0,1-.4-2.2c0-1-.2-2-.5-2s-.5-.4-.5-.8a9.63,9.63,0,0,0-1-2.5,8.66,8.66,0,0,1-1-2.8c0-.6-.2-1-.5-1s-.5.6-.2,2.1c.2,1.1.5,4.1.8,6.6s.6,5.5.8,6.6c.2,1.7.1,2.2-.5,2.5a1.38,1.38,0,0,1-1.6-.6c-.7-.9-.8-.9-.2.1a32.5,32.5,0,0,1,1.5,4.5c.8,2.8.8,3.6.3,4.3-.8,1.1-1.2.5-1.2-1.5,0-.9-.3-1.9-.7-2a9.06,9.06,0,0,1-2-2.4c-1.7-2.4-1.8-1.1-.3,1.8.5,1.1.8,2,.5,1.9s-2-3.5-3.8-7.6c-4.2-9.7-8-17.2-8.8-17.2s-.5.9.3,1.5a2.72,2.72,0,0,1,.8,1.7,13.72,13.72,0,0,0,.9,3.5,44.14,44.14,0,0,1,1.5,5.5c.3,1.6.8,3.8,1,4.8a71.93,71.93,0,0,1,1.2,11.5,12.75,12.75,0,0,1-.3,3.2c-.2.7-.4,0-.4-1.9,0-1.6-.2-2.9-.5-2.9s-.4.9-.3,2,0,2-.3,2a.46.46,0,0,1-.5-.4,2.93,2.93,0,0,0-.8-1.4c-.8-1-.8-1-.5,0a20,20,0,0,1,.6,4c.2,2.8.2,3-.5,2.3a2.05,2.05,0,0,1-.8-1.4c0-.4-.3-.5-.7-.4-.8.2-2.8-2-2.8-3s-.5-2.3-1-2.3c-.7,0-.2,2.6.7,4s1.8,4.8,1,4.3-3-5.4-4.6-9.6c-.7-1.6-1.3-3.5-1.5-4s-.8-2-1.2-3.2c-2.2-5.9-10.8-23.3-13.4-26.9-3.3-4.6-7.3-9.5-9.1-11.1l-1.9-1.8,1.3,1.8a80,80,0,0,1,6.5,9.1,30.09,30.09,0,0,0,2.2,3.6,106.44,106.44,0,0,1,6.8,13.3c.8,1.9,2.5,6.9,3.3,9.8.2.9.7,2.5,1,3.5s.7,2.6,1,3.6.7,2.8,1,4c1.2,4.5,2.3,10.5,2.1,10.8a3.26,3.26,0,0,1-1.2.2c-.6,0-.9-.6-1.2-2.2a48.14,48.14,0,0,0-1.5-5.6c-1-3-1.2-3.2-1.2-1.6a21.93,21.93,0,0,0,1,5.2,32.41,32.41,0,0,1,.8,3.7c-.2.1-.3-.1-.5-.5s-.8-2.4-1.5-4.5-2-6.2-2.8-9.2c-4.8-18.5-11.3-32.4-22.1-46.4-7.5-9.7-17.5-17-30.9-22.5-4-1.6-10.8-3.9-11.8-3.9-.5,0-.4,2.6.5,14,.4,4.5.7,8.6.7,9,0,1.2,1,9.9,1.7,14.2.3,2.2.8,5.7,1,7.8s.7,5.4,1,7.2c.3,2,.8,5.1,1,7s.7,4.9,1,6.5.7,4.6,1,6.5c1.2,8.1,2.2,13.8,3,17.8.3,1.5.8,4,1,5.5s.7,4,1,5.5.7,4,1,5.5.8,4.4,1.2,6.2c.4,2,.9,4.4,1,5.4l.3,1.9-4.1,2.3c-2.2,1.3-4.9,2.8-5.8,3.4a26.14,26.14,0,0,0-3,1.9,46.54,46.54,0,0,1-4.5,2.5c-3.8,2-14.9,8.8-17.8,11-2,1.5-2.7,2.5-1.7,2.5a.47.47,0,0,0,.5-.5c0-.2.8-.5,1.7-.5a4.55,4.55,0,0,0,2.8-1c1.8-1.4,10.2-5.5,11.3-5.5a10.8,10.8,0,0,0,2.2-.9,12.12,12.12,0,0,1,3.5-1.2c1.5-.2,1.3,0-1.2,1.2a41.64,41.64,0,0,0-6.3,3.6,4.48,4.48,0,0,1-1.9.9c-.5,0-2,1.2-2,1.7a14.46,14.46,0,0,0,3.2-1.5,79.25,79.25,0,0,1,10.2-5c1.2-.5,7-3.4,12.8-6.4,24.9-12.6,52.7-26.2,60.3-29.5,2.6-1.1,7.7-3.3,11.2-4.9,28.8-12.9,36.1-15.9,36.9-15s2.2.7,2.5,0c.2-.5.5-.5,1.7.2.8.5,2.3,1.2,3.3,1.8s1.8,1.2,1.8,1.8c0,.8.2.8,1,.4s1-.4,1,.2.3.8,1,.5c.5-.1,1-.1,1,.2s.5.6,1,.8a1.68,1.68,0,0,1,1,1.2c0,.9,2,2.5,3.1,2.5a10.12,10.12,0,0,1,2.9,2.4,24.78,24.78,0,0,0,5.8,4.5,17.72,17.72,0,0,1,4.9,3.9A33,33,0,0,0,472,234c1.5,1.2,4.2,3.3,5.8,4.8,3.7,3.4,7,5.6,8.2,5.6s10.2,4.6,12.6,6.5a13.68,13.68,0,0,0,2.7,1.7c.8.3.8.5.3,1.1a2.32,2.32,0,0,1-1.3.8,25,25,0,0,0-4,1.5,26.34,26.34,0,0,1-3.5,1.5c-.2,0-3.5,1.5-7.4,3.4s-10,4.6-13.5,6-7.2,3.4-8.3,4.4a31.76,31.76,0,0,1-4.9,3c-1.6.6-3.5,1.5-4.2,1.8a26,26,0,0,1-2.5,1,8.27,8.27,0,0,0-2.1.9,6.52,6.52,0,0,1-1.5.5c-.8,0-4.5,1.8-6.3,3a14.64,14.64,0,0,1-3.5,1.5c-1.2.4-2.5.9-2.8,1a11.56,11.56,0,0,1-2.8,1.2c-1.2.5-3,1.2-4,1.6s-2.3,1-3,1.2a13.9,13.9,0,0,0-2.1,1,5.09,5.09,0,0,1-1.4.4,15.22,15.22,0,0,0-3.1,1.2c-4.7,2.1-5.3,1.9-.9-.2a24.74,24.74,0,0,0,4.5-2.5,6.49,6.49,0,0,1,2.2-1c1-.4,1.8-.8,1.8-1a5.79,5.79,0,0,1,2.4-1.2c3.4-1.4,8-3.7,7.3-3.8a27.88,27.88,0,0,0-4.2,1.2,40,40,0,0,1-4.5,1.2,33.45,33.45,0,0,0-7,2.5,5.92,5.92,0,0,1-1.9.5c-.5,0-1,.2-1,.5s-.5.5-1.2.5-1.4.2-1.5.5a1.91,1.91,0,0,1-1.5.5,1.91,1.91,0,0,0-1.5.5c-.2.4-5.8,2.2-7,2.3a4.72,4.72,0,0,0-1.6.7,5.64,5.64,0,0,1-2,.6,24,24,0,0,0-3.8,1c-1.6.5-3,1-3.2.8s.3-.4,1-.6a134.63,134.63,0,0,0,14.2-5.9,37.93,37.93,0,0,1,4.5-2.1,38.57,38.57,0,0,0,6.3-2.8,6.52,6.52,0,0,1,1.5-.5,36.91,36.91,0,0,0,7.1-3.4,22,22,0,0,1,3-1.4c1.1-.5,1.8-1,1.5-1s-2.5.8-5,2-4.7,2.1-5,2.2c-1.3.4-13.6,4.8-14.3,5.2a5.49,5.49,0,0,1-1.7.5c-.5,0-.8.2-.8.5s-.7.5-1.5.5-1.7.2-1.8.5a1.81,1.81,0,0,1-1.4.5,6.22,6.22,0,0,0-2.6.9,19.74,19.74,0,0,1-3.8,1.6,8.83,8.83,0,0,0-2.8,1.1,6,6,0,0,1-2.5.6,31.16,31.16,0,0,0-5.5,1.5c-4.1,1.5-4.8,1.6-3.4.5,1.2-.9.3-1-1.3,0-.7.4-1,.7-.5.8s.5.2.4.3c-.5.5-3.5.5-4.5,0s-1.2.5-.3,1.5c.7.7,2.6.8,2.2.2-.2-.2.3-.5,1-.5a25.29,25.29,0,0,0,5.5-1.7c4.3-1.6,6.2-1.8,2.5-.3-1.2.5-2.7,1.1-3.4,1.4a8.42,8.42,0,0,0-1.8.7c-1,.3-4,1.3-4.8,1.7-1,.5-2,.1-2-.8,0-.4-.5-.7-1-.7-1.2,0-1.3.8-.2,1.2.9.3,1,1.8.2,1.8a11,11,0,0,1-2.7-.8c-2.8-1-3.2-.9-1.5.5,1.2,1,1.4,1.3.8,1.8-.8.5-2.1-.6-2.7-2.2-.2-.5-.4-.5-.8,0s-.5.8,0,1.6c1,2,.2,2.2-1.5.5-1.2-1.2-2-.8-.8.5s1,1.8-.2,1.5a1.11,1.11,0,0,0-1.5.7c-.3.5-.8,1-1,1s-.4-.2-.2-.5-.4-.7-1.2-1c-1.7-.7-2-1.5-.5-1.5.5,0,1,.2,1,.5s.5.5,1,.5,1-.2,1-.5-.3-.5-.8-.5c-.7,0-.7-.2-.2-1,.3-.5.8-1,1.2-1a4.74,4.74,0,0,0,1.8-1,5.52,5.52,0,0,1,2.1-1,2,2,0,0,0,1.4-1,2.15,2.15,0,0,1,1.5-1,1.9,1.9,0,0,0,1.5-.8,5.61,5.61,0,0,1,2.2-1.5c2.6-1.4,5-2.7,5.8-3.2.4-.2,2.1-1.2,3.8-2s4.3-2.1,6-3c6.7-3.4,12.5-6,19.8-9,2.6-1.1,6.7-2.8,9-3.8s5.7-2.4,7.5-3,4.7-1.9,6.5-2.7,3.7-1.6,4.2-1.8.8-.5.7-.5a15.37,15.37,0,0,0-3.7,1.1c-5.5,2.2-11.2,4.4-14.5,5.3a31.17,31.17,0,0,0-4,1.3l-5.1,2c-2.3.9-6,2.2-8.2,3-9.5,3.5-12.3,4.7-13,5.2-1.5,1.2-3.5,1.4-4.5.3s-1-1-2.8,0a13.53,13.53,0,0,1-3.2,1.1,28.3,28.3,0,0,0-6.7,2.5,7.62,7.62,0,0,1-2,.6c-1.3.1-3.8,1.8-2.8,1.8.4,0,.6.1.5.3s-.8,0-1.3-.3c-.8-.4-1-.4-1,.1s-.5.6-1.7.6a3.51,3.51,0,0,0-2.2.5,11.24,11.24,0,0,1-4.7,1.8c-.5,0-1,.2-1,.5s-.4.5-.9.5a1.73,1.73,0,0,0-1.3.5,29.44,29.44,0,0,1-4.4,2,56.94,56.94,0,0,0-5.7,2.6,14.39,14.39,0,0,1-2.2,1,8.75,8.75,0,0,0-2,1c-.8.5-1.8,1-2.1.8s1-1,3-2.2a18.74,18.74,0,0,0,3.7-2.3c0-.4-5.3,2.3-6.2,3.2a3.43,3.43,0,0,1-1.7.5c-.7,0-1.2.3-1.2.8s.3.6.9.4.7-.2.5,0a44.14,44.14,0,0,1-6.5,3.3,66.87,66.87,0,0,0-6.3,2.8c-9.3,4.4-10.4,4.9-10.7,5.2a15.72,15.72,0,0,1-2.6,1.4c-1.3.7-2.4,1.3-2.4,1.6s-.5.5-1,.5a1.9,1.9,0,0,0-1.2.4c-.3.8-4.7,2.7-4.8,2.1s-1.1-.2-1.1.5c0,.3.8.4,2,.2,1.5-.2,2-.2,1.8.2a1.73,1.73,0,0,1-1.3.5,10.83,10.83,0,0,0-3.4,1.5c-2.8,1.7-3.1,1.8-3.1.8,0-.4-.3-.7-.6-.5-2.5.8-2.7.8-1.9,1.3.6.3.5.7-.8,1.7l-1.5,1.2-1.2-1c-1.4-1.3-1.5-3-.2-2.8.5.1.9-.2,1-1,.2-1,0-1.1-.8-.6-.6.3-1,.8-1,1s-.3.5-.8.2c-1-.3-1-.1.5,2.5l1.3,2.2-1.2.8c-1.2.9-2.9,1.7-2.9,1.3a8.46,8.46,0,0,1,1.5-1c1.7-.9,2-1.8.5-1.8a1.41,1.41,0,0,1-1.2-.6c-.2-.3-.2-.2,0,.5s0,1.1-.5,1.1a5.41,5.41,0,0,0-2.3,1.5,8.6,8.6,0,0,1-2,1.5,5.26,5.26,0,0,0-1.5,1,4.06,4.06,0,0,1-2.1,1,5,5,0,0,0-2.4,1,5.6,5.6,0,0,1-1.8,1,3.49,3.49,0,0,0-1.5,1,3.06,3.06,0,0,1-1.7,1c-1.2,0-3.2,1.5-2.8,2.2a2.14,2.14,0,0,1-.8,1.6c-1,.9-1,.9-.5-.2a2.92,2.92,0,0,0,.4-1.5c-.5-.4-2.3.3-2.3,1s-2.1,2.3-3.1,2.4c-.5,0-.9.2-.9.5s-.5.8-1.2,1.2c-3.9,2.1-4.6,2.6-5,3.2a1.11,1.11,0,0,1-1.1.4c-.4-.2-.8,0-.8.2s-.9,1-1.9,1.5a9.65,9.65,0,0,0-2.1,1.2,10.37,10.37,0,0,1-2.5,1.4,39.91,39.91,0,0,0-4.5,2.6,6.94,6.94,0,0,1-1.5.9,12.75,12.75,0,0,0-2.5,1.5c-.7.5-3.5,2.3-6.3,4.2a27.77,27.77,0,0,0-5.3,4.1c-.1.4-1.6,1.3-3.4,2.2-1.6.8-2.8,1.2-2.5.9.6-.7.6-1.8,0-1.8-.2,0-.5.3-.5.8s-.2.8-.5.8-.5.3-.3.8c.5,1.1-.6,1.5-1.6.5-.9-.8-.9-.8-.6.2.3,1.2-.6,1.9-1.6,1.1-.5-.5-.8-.5-.8,0a.47.47,0,0,0,.5.5c.4,0,.4.2,0,.8a2.48,2.48,0,0,1-1.5.8,3.34,3.34,0,0,0-2,1.2,4.76,4.76,0,0,1-1.5,1.2,8.6,8.6,0,0,0-2,1.5,8.6,8.6,0,0,1-2,1.5,19.37,19.37,0,0,0-3.4,2,20.4,20.4,0,0,1-3.3,2,11.68,11.68,0,0,0-1.5,1c-1.3,1-2,.8-2.8-1-.2-.4-.2,0,0,.9.2,1.2.1,1.6-.5,1.6s-.8-.2-.8-.5a.54.54,0,0,0-.5-.5c-.2,0-.4.3-.2.8.4,1-.3,2-.9,1.2-.3-.5-.5-.5-.8.2a.94.94,0,0,1-.8.8,5.79,5.79,0,0,0-2,1.2,29.45,29.45,0,0,1-4.1,2.5c-1.4.8-4,2.3-5.9,3.5a23,23,0,0,1-3.9,2.2.54.54,0,0,0-.5.5,2.07,2.07,0,0,1-1.5,1c-.8.3-1.5.8-1.5,1a.54.54,0,0,1-.5.5,11.2,11.2,0,0,0-2.7,1.5,14.8,14.8,0,0,1-2.5,1.5c-.7,0-5,3.3-7.2,5.6-2,2-3.4,4.2-6.4,10.3-2,4.2-3.7,7.8-3.7,7.9s-2.5,5.7-5,10.7a32.75,32.75,0,0,0-2,4.8c0,.3-.2.7-.5.7a.68.68,0,0,0-.5.7,19.53,19.53,0,0,1-1.5,3.6,15.67,15.67,0,0,0-1.5,4.3,4.55,4.55,0,0,1-1.6,2.8,17,17,0,0,0-3.3,5.5,44.12,44.12,0,0,1-2.1,4.5c-.2.2-2.6,4.9-5.4,10.2s-5.5,10.5-6.2,11.5a23.72,23.72,0,0,0-1.9,3.4c-.4.8-.8,1.5-1,1.5s0-1,.5-2.1a45.59,45.59,0,0,0,2-6.2c1.2-4.3,1.9-6.4,2.5-8,.9-2.2,2-5.3,2-5.5s-.4,0-.8.3a2.24,2.24,0,0,0-.8,1.5c0,.5-1.3,2.8-3,5.3s-3.2,5.2-3.6,6.1a6.26,6.26,0,0,1-1,1.6c-.2,0-.4.4-.4.9a4.93,4.93,0,0,1-1,2.1,5.24,5.24,0,0,0-1,2,4,4,0,0,1-1.2,2,4,4,0,0,0-1.2,2.2,4.22,4.22,0,0,1-.8,2c-.8.9-.8.9-.2-.2a6.55,6.55,0,0,0,.5-2.5,19.15,19.15,0,0,1,1.5-4.9c1.7-4,1.6-3.8,1-3.8-.2,0-.5.4-.5,1a5.22,5.22,0,0,1-1,2.2,5.6,5.6,0,0,0-1,1.8,31.8,31.8,0,0,1-3,8.3c-2,2.5-2.8,5-1.1,3.7.8-.7.8-.6.1.2a2.05,2.05,0,0,1-1.4.8c-.4,0-.7-.4-.8-.8s-.6,1-1.5,3.3c-1.6,4.5-3,6.8-1.7,2.8,1.4-4.2,1.3-4.5-.1-1.2a58.31,58.31,0,0,1-2.8,5.6,5.7,5.7,0,0,0-1.1,2.5c.1.1-.1.5-.5.8a2.12,2.12,0,0,0-.8,1.2,5.72,5.72,0,0,1-1.3,2c-1.5,1.7-1.6,2,3.1-7.8a77,77,0,0,0,4.1-9c.9-2.3,3.5-8.2,4-8.5.5-.5,5.5-10.7,5.5-11.4a3.74,3.74,0,0,1,.5-1.5c.2-.5,1.5-3.2,3-6.1,6.6-13.8,8.1-17,13.1-27.2,3-6,6.2-12.8,7.2-15,3.6-7.7,7.8-16.5,8.3-17.4.3-.5.4-1,.2-1.2s-1.6,2.4-3.2,5.7-3.6,7.3-4.5,9a14.16,14.16,0,0,0-1.5,3.7.56.56,0,0,1-.5.6c-.2,0-.5.4-.5.9a2.17,2.17,0,0,1-.5,1.4c-.2.2-2.2,4-4.5,8.2-6.8,13.2-9.2,17.7-10.1,18.9a19.68,19.68,0,0,0-1.5,2.9c-.3,1-.8,1.7-1,1.7s-.5.5-.5,1.2a2.1,2.1,0,0,1-1,1.8,3.71,3.71,0,0,0-1.4,1.6,10.31,10.31,0,0,1-2,3,5.83,5.83,0,0,0-1.7,3,1.19,1.19,0,0,1-1.1,1.4c-1.6.2-1.9,2.2-.4,2.5s1.9,1.4.2,1.4c-.6,0-1.4-.2-1.5-.5-.5-.8-1.1-.5-1.5.6s-2.2,4-2.8,4.3c-.1,0-.2.7-.1,1.3.2.8,0,1.2-.9,1.5-.6.2-1,.5-.8.8.3.5-.7,1.5-1.4,1.5-.3,0-.6.6-.9,1.5-.3,1.2-.6,1.5-1.5,1.3s-1-.1-.7,1,0,1.6-1.2,2.8a4.75,4.75,0,0,0-1.5,2.6,3.26,3.26,0,0,1-.8,1.8,4.19,4.19,0,0,0-.8,2.2c0,1.2-.1,1.3-.6.8s-.4-1.1.8-3.5a13.71,13.71,0,0,0,1.4-3.7,1.39,1.39,0,0,1,.5-1,1.39,1.39,0,0,0,.5-1,11.35,11.35,0,0,1,1.5-3.1c.9-1.3,1.4-2.7,1.2-3a6.31,6.31,0,0,1,1-3c.6-1.3,1.6-3.2,2.2-4.3s1.3-2.6,1.6-3.3,1-1.4,1.5-1.4c.7,0,1-.3,1-1.5,0-.8.2-1.5.6-1.7a.52.52,0,0,0,.2-.8c-.3-.5-.6-.4-1.4.2-1.4,1.2-1.2,0,.2-2,1-1.5,3.4-5.7,6.2-11.3a15.58,15.58,0,0,1,1.8-3,10.45,10.45,0,0,0,1.4-2.6c1.8-4.2,4.1-8.9,4.6-9.2a1.6,1.6,0,0,0,.5-1c0-1.3-.8-.7-1.8,1.5-1.1,2.6-5.2,9-6.1,9.5a1.85,1.85,0,0,0-.7,1.2,4.87,4.87,0,0,1-.9,2.2c-2.2,3.6-5.9,9.7-6.4,10.5-.2.5-.6,1-.9,1s-.4.3-.4.7a6.93,6.93,0,0,1-1.5,2.3,6.26,6.26,0,0,0-1.5,2.3c0,.3-.1.7-.4.7s-1.6,2.4-1.6,3.2c0,.5-1.2,1.8-1.7,1.8s-.3-1.4.4-2a10.22,10.22,0,0,0,1.6-2.9c.5-1.3,1.5-3.8,2.2-5.5a24.62,24.62,0,0,0,1.5-4.2,9.54,9.54,0,0,1,1-2.8,4.86,4.86,0,0,0,.8-2.2c-.5-.7-1.8-.5-1.8.2a5,5,0,0,1-1.5,2.3,15.57,15.57,0,0,0-1.5,1.8,8.81,8.81,0,0,1-1.5,2.2,8.18,8.18,0,0,0-1.5,2.5c0,.3-.5.8-1,1.2a2.15,2.15,0,0,0-1,1.5.88.88,0,0,1-.8.9c-.5,0-.7.3-.5.8a1,1,0,0,1-.4,1.1,28.66,28.66,0,0,0-4.4,5.3,5.56,5.56,0,0,1-.9,1.7c-1.5,2.2-4.6,8.1-4.2,8.1.2,0-.3.7-1.1,1.5-1,1-1.2,1.7-.8,1.8s.6.5.6.7-.2.3-.5.2c-.9-.5-1.8.5-2.8,3.2a8.17,8.17,0,0,1-1.6,2.8,1.49,1.49,0,0,0-.6,1.3c0,.5-.2,1.1-.5,1.2-1.2.8-7,10.2-10,16a21.27,21.27,0,0,1-3.5,4.8,19.56,19.56,0,0,0-2.8,3.6.94.94,0,0,1-.8.8.47.47,0,0,0-.5.5c0,.8-2.1,3.5-2.6,3.5.9.8.9.5,1.1.2Zm17.6-34.3c.3-.9-.8-.7-1.1.2-.2.5,0,.7.3.6a1.56,1.56,0,0,0,.8-.8Zm35.5-2.3a4.11,4.11,0,0,0,.5-1.9c-.1-.4-.5,0-1,1-.5.8-1.1,1.7-1.5,1.8s-.2.3.4.3a1.93,1.93,0,0,0,1.6-1.2Zm-29.4-2.3c0-.6-1.4-.5-1.8,0-.5.8.2,1.6,1,1A1.65,1.65,0,0,0,74.41,493.5Zm-2.1-1.6c.2-1.2-.8-1-1,.2-.1.7,0,1,.3.8A1.53,1.53,0,0,0,72.31,491.9Zm2.1-1.4c0-.8-.2-1.5-.5-1.5s-.5.7-.5,1.5.2,1.5.5,1.5S74.41,491.4,74.41,490.5Zm23.2-4.6a3.14,3.14,0,0,0,.6-1.8c-.4-.4-1.3.5-1.3,1.2,0,.4-.2.7-.5.5s-.5,0-.7.4a.91.91,0,0,0,.3,1c.4.1.6.2.7.2s.5-.6.9-1.5Zm-21.2-.9a1,1,0,0,0-.8-1c-.8,0-1,1.5-.5,2.2C75.71,486.7,76.41,486,76.41,485Zm2.6-4.6c-.5-.5-.8-.5-1.2,0s-.4.6.6.6S79.41,480.9,79,480.4Zm33.4-1.5c0-.9-.1-1-.5-.3-.6,1-.6,2.2,0,1.8A2.25,2.25,0,0,0,112.41,478.9Zm-32,.4c0-.4-.2-.8-.5-.8s-.5.3-.5.8.2.8.5.8A.79.79,0,0,0,80.41,479.3Zm3.7-2.8c.7-1.3.7-1.5,0-1.5a1,1,0,0,0-.8,1c0,.5-.2,1.2-.5,1.3s-.5.5-.5.8C82.41,478.9,83.31,478.1,84.11,476.5Zm19.5-5.4a2.08,2.08,0,0,1,1.5-1.2c.7-.2,1.2-.7,1.2-1,0-.7-.2-.7-1.4.1-2.1,1.3-3.4,3.2-2.2,3.2a2,2,0,0,0,.9-1.1ZM79.41,470c.7,0,3.6-4.6,3.1-5-.2-.2-1.5,1-2.8,2.7-1.9,2.3-2.3,3.2-1.8,3.5s.7.2.8-.3.4-.9.7-.9Zm-4.5-2.3a6.37,6.37,0,0,1,1.4-2.8c.8-.5,2.3-3.3,2-3.7-.5-.5-2.8,2-2.8,3a1.5,1.5,0,0,1-.5,1.2,7.64,7.64,0,0,0-1,1.5,1.8,1.8,0,0,1-1.5,1.2c-.5,0-1,.3-1,.7,0,1,.5,1.3,1.8,1.3.7-.1,1.1-.5,1.6-2.4Zm-18.5.7c0-.7-1.1-.2-1.4.5-.1.3.1.5.6.3S56.41,468.7,56.41,468.4Zm14-.5a4.69,4.69,0,0,1,1.1-1.8c1-1,1-1.3.5-2.3s-.6-1,.1-.5c1,.8,1.8.2,2.9-2.2.4-.9,1-1.7,1.4-1.8s1-.9,1.4-1.8c.7-1.6.6-1.7-.5-1.7-1.5,0-2.1.8-.9,1.2.7.2.6.3-.5.8-.8.3-1.4.8-1.3,1,.2,1.3-.1,2.2-1,2.2a1.27,1.27,0,0,0-1.2.7c-.2.5-.4.4-.8-.2s-.5-.5-.5.3c0,.6-.2,1.2-.5,1.2-.5.2-.5.5,0,1.3.6,1,.5,1.1-.4.6-1.2-.7-2,.2-1,1.2.5.5.5.8,0,.8a.47.47,0,0,1-.5-.5.54.54,0,0,0-.5-.5c-.6,0-1.1,1.5-.8,2,.2.8,3,.7,3,0Zm-24.6-1.8a.93.93,0,0,0,.5-1c-.1-.3-.5-.2-1,.5C44.41,466.6,44.61,466.8,45.81,466.1Zm12.4-.5c1.7-1.5,3.1-5.2,1.7-4.3a1.88,1.88,0,0,0-.5,1.1,3.64,3.64,0,0,1-1.2,2,4,4,0,0,0-1.2,1.7C56.91,466.7,57.11,466.7,58.21,465.6Zm52.7-2.4a51.48,51.48,0,0,1,2-5.6c.4-.8.2-1.2-.3-1.5-1.1-.4-1.6.3-.8.9.6.3.6.5.1.8a2.19,2.19,0,0,0-.8,1.5,1.52,1.52,0,0,1-1,1.3c-.5.2-.9.5-.7.9a6.48,6.48,0,0,1-.7,2.7c-1.1,2.4-1.2,2.3.1,1.8,1-.2,1.6-1.1,2.1-2.8Zm-26.5-.5q0-.75-.6-.6c-.9.3-1,1.4-.2,1.4a.79.79,0,0,0,.8-.8Zm1.5-1.9c0-.4-.2-.8-.5-.8s-.5.3-.5.8.2.8.5.8A.79.79,0,0,0,85.91,460.8Zm14.3-1.1c-.1-.8-.2-1.5-.2-1.5s-.4.2-.9.7-.7,1-.2,1.5c.9,1,1.4.8,1.3-.7Zm-19.6-1.2c.4-.8.5-1.5.3-1.5s-.8.7-1.2,1.5-.5,1.5-.3,1.5S80.21,459.4,80.61,458.5Zm21.2-2.5c.9-1.3.2-2-.7-.8a3.53,3.53,0,0,0-.7,1.4c0,.8.8.4,1.4-.6Zm25.1-2.9a5.31,5.31,0,0,0,.4-1.9c-.2-.2-2.3,4.2-2.3,4.8s1.4-1.4,1.9-2.9Zm-47.5,1.4c0-.2-.6-.5-1.5-.5-1.8,0-2,.8-.4,1.1,1.3.3,1.9.1,1.9-.6Zm0-2.1c0-.8-.1-1-.5-.5a.94.94,0,0,0-.2,1.1C79.21,453.8,79.41,453.6,79.41,452.4Zm24.5-.7c.7-1.9.2-2-.7-.2-.5.8-.5,1.5-.3,1.5S103.61,452.4,103.91,451.7Zm-22.7-.9a1.91,1.91,0,0,0,0-1.1c-.4-.5-1.9.9-1.5,1.4.4.7,1.2.5,1.5-.3Zm1.2-3.4c0-.6-.8-.5-1,.2-.1.3,0,.5.4.4s.6-.4.6-.6ZM118,444c-.3-.3-1.6,1.5-1.6,2.2,0,.3.5,0,1-.7S118.21,444.2,118,444Zm-1.7-2.1c1-2.7,1-3.5,0-1.7a17.85,17.85,0,0,0-1,2.4C115.41,443.4,115.91,443,116.31,441.9Zm-41.4-10.4c.4-.8.8-1.5,1-1.5s.5-.5.5-1,.2-1,.5-1,.5-.5.5-1,.2-1,.5-1,.5-.5.5-1,.1-1,.4-1,1.6-2.3,1.6-3.1a9.8,9.8,0,0,1,1.5-2.5c1.6-2.5,1.6-2.9-.1-1.7-.8.5-1.1,1.1-1,1.5s0,.8-.5.8-1.3,1-2.1,2.8c-.7,1.5-1.6,2.9-2,3a1.39,1.39,0,0,0-.7,1.2c0,.5-.2,1-.5,1s-.5.5-.5,1a.9.9,0,0,1-1,1c-1.9,0-1.3,3.9.5,4A4.23,4.23,0,0,0,74.91,431.5Zm-.4-13.8a7.2,7.2,0,0,1,1.8-2.5c.9-.3.8-1.8-.1-1.5a3.08,3.08,0,0,0-1.4,1.4c-.4.7-1,2-1.5,2.8a5.38,5.38,0,0,0-.8,2.2c-.1,1,.9-.2,2-2.4Zm10.8-5.4c.7-1.6.8-2.2.3-1.5a3.42,3.42,0,0,0-.8,1.6c0,.3-.4.8-.8,1.2a2.25,2.25,0,0,0-.8,1.4C83.41,416.2,84.21,415.1,85.31,412.3Zm-5.7-4.3c.3-1.2.2-1.2-.7.2a5.08,5.08,0,0,0-1,2C77.91,411.1,79.31,409.3,79.61,408Zm87.9-10.6a9,9,0,0,0,1.9-1.1c0-.4-3.6,1.2-4.2,1.8S164.61,398.7,167.51,397.4Zm4.2-8.4c4.9-3,9.2-5.7,9.6-5.8s3.6-2.2,7-4.6c5.8-4,13.1-8.6,18.1-11.4,1.1-.7,2.8-1.7,3.6-2.3s1.9-1.2,2.4-1.5.9-.5.9-.9.4-.5.8-.2.8,0,.8-.2.5-.7,1.2-1a2.43,2.43,0,0,0,1.4-1.7c.1-.7.1-1.3,0-1.3a15.12,15.12,0,0,0-4,2.3,2.19,2.19,0,0,1-1.2.7,13,13,0,0,0-2.9,1.8c-2.8,2.3-6.1,4.2-7.5,4.2-.5,0-1,.3-1,.7,0,.8-1.2,1.8-3.5,3-6.8,3.5-13.4,7.8-13.9,9-.1.2-.5.3-.8.3-1,0-18.6,12.2-19.9,13.8-.4.4-.5.8-.4.8s4.4-2.7,9.3-5.7Zm12.9-4.2a15.77,15.77,0,0,1,4-1.8,1.66,1.66,0,0,0,1-.3c.2-.5,5-3.7,7.9-5.2,1.2-.7,4.7-2.8,7.6-4.6l5.5-3.3a79.09,79.09,0,0,0,7.4-5,50,50,0,0,1,4.8-3.2,51.1,51.1,0,0,0,8.1-5.8,2.38,2.38,0,0,1,1.7-.6c.5.1.9,0,.9-.3,0-.6-1.6-1-2.2-.5a70.85,70.85,0,0,1-7,4.9c-.2,0-.7.5-1.1,1a16.25,16.25,0,0,1-3.4,2.3,18,18,0,0,0-3.5,2.2,52.16,52.16,0,0,1-6.8,4.7c-.4.2-2.1,1.2-3.8,2.3s-4,2.5-5.1,3c-1.2.7-2.1,1.3-2.1,1.5s-.3.4-.7.4c-.6,0-6.6,3.7-8.1,4.9a17.2,17.2,0,0,1-2.4,1.2c-1,.3-1.9.8-1.9,1s-.5.4-1,.4-1,.2-1,.5-.3.5-.7.5a1.7,1.7,0,0,0-1.3.8c-1,1.1-.3.9,3.2-1Zm14.8-4.1c1.2-.8,3.5-2.2,4.9-3s2.6-1.5,2.6-1.8-.5-.2-1.1.2a8.64,8.64,0,0,1-1.4.7,11.5,11.5,0,0,0-2,1.2c-1,.6-1.9.8-1.9.6s-.4-.3-.7-.2-.2.5.1.8c.5.3.5.5-.3.8-1.5.5-3.8,2.2-3.8,2.8s.4.2,3.6-2.1Zm25.3-14.9c.9-.8.9-.8-.5-.7a2.69,2.69,0,0,0-1.7.8c-.3.9,1,.8,2.2-.1Zm-4.1-8.3a1.66,1.66,0,0,1,1.3-1,1.21,1.21,0,0,0,1.2-.8c.3-.8,2-1,2.4-.3.1.2.1,0,0-.3-.2-1,1.1-2.2,2-1.8.5.2.8,0,.8-.5s.2-.8,1.1-.5,1,.2.5-.4c-.9-1-.3-1.5,1.1-1.1.8.2,1.2.1,1.2-.2,0-1-1.2-1.2-2.6-.5-2.9,1.5-11.4,7.6-11.1,8a1.21,1.21,0,0,0,2.1-.6Zm14.8-4c0-.2.4-.5.8-.5s.8-.2.8-.5-.4-.5-.8-.5-.8.2-.8.5-.4.5-.8.5-.8.2-.8.5.4.5.8.5S235.41,353.8,235.41,353.5Zm3.9-2.1c-.3-.9-1.4-1-1.4-.2a.79.79,0,0,0,.8.8C239.11,352,239.41,351.8,239.31,351.4Zm2.1-.8c0-.5-1.3-1.1-1.7-.7-.6.6-.2,1.2.7,1.2C240.91,351,241.41,350.8,241.41,350.6Zm2-1c0-.5-1.5-1.2-1.9-.8a.8.8,0,0,0,.1.8C242,350.1,243.41,350.2,243.41,349.6Zm-8-1.3a.86.86,0,0,0-.8-.8c-.8,0-1,.6-.4,1.2S235.41,349.1,235.41,348.3Zm10.2-.1c.9-.7.9-.8.2-1.2q-1.5-.9-1.5,0a3.46,3.46,0,0,1-.3,1.2C243.71,349.2,244.31,349.2,245.61,348.2Zm3.8-2.4a1,1,0,0,1,1-.8c1,0,2.4-1.8,1.8-2.3-.4-.5-3.8,2-3.8,2.8a.56.56,0,0,1-.5.6.54.54,0,0,1-.5-.5.54.54,0,0,0-.5-.5c-.7,0-.6,1.2.1,1.9S249.41,346.8,249.41,345.8Zm-10,0c0-.5.5-1,1.2-1.2a2.18,2.18,0,0,0,1.2-.7c0-.5-2.8,0-3.1.5-.5.8-.5,2.2.1,2.2A.76.76,0,0,0,239.41,345.8Zm15.7-1.3a1.37,1.37,0,0,0-1-.5c-.4,0-.6.2-.5.5s.6.5,1,.5S255.31,344.8,255.11,344.5Zm2.3-.7c0-.4.2-.8.6-.8s.4-.2.2-.3c-.4-.4-1.9.7-1.9,1.3a.54.54,0,0,0,.5.5C257.21,344.5,257.41,344.2,257.41,343.8Zm-11-1.2c0-.6-1-1.2-1.4-.9s.3,1.3.9,1.3a.46.46,0,0,0,.5-.4Zm9.9,0a4.88,4.88,0,0,0-.4-1.1c-.5-1-.6-1-1.5-.2-.5.5-1,1-1,1.2C253.41,342.9,255,342.9,256.31,342.6Zm-7.5-3c.1-.4,0-.6-.5-.5a1.45,1.45,0,0,0-.9.8c-.1.4,0,.6.5.5A1.45,1.45,0,0,0,248.81,339.6Zm10.6.5c0-.2-.4-.5-.8-.8s-.8,0-.8.5a.86.86,0,0,0,.8.8C259,340.6,259.41,340.3,259.41,340.1Zm2.7-1.6c.2-.2-.2-.5-.7-.5s-1,.2-1,.5.3.5.7.5S262,338.8,262.11,338.5Zm3.3-1.9a1.65,1.65,0,0,0-.8-1c-.7-.5-.8-.5-.8.5,0,.6.3,1,.8,1S265.41,336.8,265.41,336.6Zm-74.9-1.5c1.5-.8,4.9-2.8,7.6-4.3s6.7-3.9,8.9-5.1c5.1-2.8,7.7-4.5,8.1-5.2a2.37,2.37,0,0,1,1.5-.5,2.73,2.73,0,0,0,1.9-.8,15,15,0,0,1,3.2-2,53.32,53.32,0,0,0,6.2-3.5,48,48,0,0,1,5.5-3.2,14.78,14.78,0,0,0,2.5-1.2,52.67,52.67,0,0,1,4.8-2.8c2.2-1.2,5-2.8,6.3-3.6s2.6-1.3,3.1-1.1,1.6-.3,3-1.4a78.06,78.06,0,0,1,7.4-4.7,61.22,61.22,0,0,0,6.6-4.1,6,6,0,0,1,1.6-1.2c.5.1.4-.3-.3-1.9a35.77,35.77,0,0,1-1.3-3.6c-.3-1.2-.8-3-1.1-3.8a15.05,15.05,0,0,1-.5-2.8,20.06,20.06,0,0,0-1-3.9,17.08,17.08,0,0,1-1-3.9,18.77,18.77,0,0,0-.8-4.1,27.79,27.79,0,0,1-1-5.2c-.1-1.2-.5-3.7-.8-5.5s-.7-3.8-.8-4.5-.4-2.2-.7-3.5c-1-4.2-1.5-7.2-2-10-.2-1.5-.6-3.9-.9-5.2s-.6-3.6-.8-5-.5-3.6-.8-5-.7-4.4-1-6.8-1.1-7.6-1.8-11.8-1.4-8.8-1.5-10.2-.5-3.8-.8-5a35.44,35.44,0,0,1-.7-5c-.1-1.5-.5-4.5-.8-6.8s-.5-4.2-.5-4.5-.6.8-1.4,2.2-1.5,3.1-1.8,3.6a6.07,6.07,0,0,0-.5,1.8,14.7,14.7,0,0,1-1.6,5,2.33,2.33,0,0,0-.4,1.4,22.83,22.83,0,0,1-1.6,6c-.2.8-.6,1.4-.9,1.4s-.5.5-.5,1.2c0,1.7-1.1,5.8-1.6,5.8-.2,0-.4.5-.4,1a4.49,4.49,0,0,1-.5,1.9,16.11,16.11,0,0,0-1,3.1c-.4,1.2-.8,2.7-1,3.2s-1.1,3.2-2,6-2.4,7-3.2,9.5-1.8,5.2-2,6a6.17,6.17,0,0,1-.7,2,28.68,28.68,0,0,0-1.5,3.8c-.6,1.8-1.3,3.7-1.5,4.2s-1,2.5-1.5,4.2a15,15,0,0,1-1.5,3.7,3.36,3.36,0,0,0-.5,1.6,2.07,2.07,0,0,1-.5,1.5,2,2,0,0,0-.5,1.3,4.49,4.49,0,0,1-.5,1.9,25.8,25.8,0,0,0-2.2,6.1,22.87,22.87,0,0,1-1.5,3.8,11.56,11.56,0,0,0-1.2,3.5,18.44,18.44,0,0,1-1.6,4.2,29,29,0,0,0-1.6,4.5,23.33,23.33,0,0,1-2,5.2,106.77,106.77,0,0,0-5.1,13.2,41.68,41.68,0,0,1-1.7,4c-.7,1.5-1.6,3.7-2,4.8s-.8,2.4-1,2.8a6,6,0,0,0-.5,1.4,17.6,17.6,0,0,1-1.2,3.2c-.6,1.5-1.6,3.8-2,5.2s-1.2,3.5-1.8,4.7c-1.5,3.4-1.7,3.9-3.9,9-1.1,2.6-2,4.8-2,4.9,0,.5.5.3,3.1-1.1Zm79-1.3c-.2-.4,0-.8.3-.8s.5-.3.5-.8-.2-.8-.3-.8c-.5,0-1.7,2.5-1.3,3.1C269.11,335.3,269.91,334.6,269.51,333.8Zm5.4-1.8c.2,0,.5-.3.7-.8s0-.8-.3-.8c-.7,0-1.9,2.3-1.4,2.8.2.2.3,0,.5-.5C274.41,332.4,274.61,332,274.91,332Zm10.6-7.1c.8-.5,1.2-1.4.5-1.4a2.76,2.76,0,0,0-1.3.8,3.9,3.9,0,0,1-1.9.8c-.5,0-.9.2-.9.5C281.91,326.1,284,325.7,285.51,324.9Zm13.4-4c0-.8-.8-.8-2,0-1.7,1.2-.9,2.3.7,1.2C298.31,321.7,298.91,321.1,298.91,320.9Zm1-4c1.8-1,3.5-1.9,3.6-1.9a22.7,22.7,0,0,0,3.5-2,20.12,20.12,0,0,1,3.8-2,.56.56,0,0,0,.6-.5c0-.2.5-.5,1-.5s1-.2,1-.5c0-1.2-1.6-.6-6.4,2.3-2.8,1.8-5.7,3.4-6.3,3.7a20.6,20.6,0,0,0-3,1.7c-1.1.7-3.1,1.8-4.4,2.5s-2.2,1.5-2.1,1.8,1.5-.2,2.9-1.1S298.11,318,299.91,316.9Zm15.5-8.3a15,15,0,0,1,4.2-2.5c6.7-3.5,11.5-6.2,12.1-6.6.2-.2,0-.5-.5-.5a4.45,4.45,0,0,0-2.1,1,4.13,4.13,0,0,1-1.8,1c-.4,0-.8.2-.8.5s-.5.5-1,.5-1,.2-1,.5-.5.5-1,.5-1,.2-1,.4a5.52,5.52,0,0,1-2.2,1.3,9.35,9.35,0,0,0-2.8,1.6,5.24,5.24,0,0,1-2,.8c-1.3.2-2.1,1.9-.8,1.9.3,0,.7-.2.7-.4Zm12.2-3.1c.2-.2,0-.5-.5-.5a1,1,0,0,0-1,.5c-.2.3,0,.5.5.5A1,1,0,0,0,327.61,305.5Zm4.6-2.1c.9-.5,1.6-1.1,1.5-1.2s-5.3,2.3-5.3,2.7S330.41,304.5,332.21,303.4Zm-18.8-5.2c0-.5-1-.2-2,.8l-1.2,1,1.7-.8C312.61,298.8,313.41,298.4,313.41,298.2Zm59.3.3c0-.5-.3-1-.7-1-.8,0-.8.6,0,1.4.3.3.6.6.7.6C372.61,299.5,372.71,299.1,372.71,298.5Zm-37.9-.4a6.87,6.87,0,0,1,1.8-1c.5,0,1-1.1.5-1.1-.7,0-2.8,1.2-2.8,1.6,0,.2-.5.4-1,.4s-1,.2-1,.5C332.41,299.3,333.31,299.1,334.81,298.1Zm5.2-2.7c.8-.3,1.3-.8,1.3-1s.9-.5,2-.7,2-.6,2-1c0-.9-.8-.9-1.7,0a3,3,0,0,1-1.7.8,2.25,2.25,0,0,0-1.6.8,1.88,1.88,0,0,1-1.3.8,1.39,1.39,0,0,0-1,.5C337.71,296.2,338.41,296.2,340,295.4Zm-18.3-2.2c-.3-.3-2.3,1-2.3,1.5,0,.2.5,0,1.2-.5S321.81,293.3,321.71,293.2Zm65.5.1a6,6,0,0,0,2.5-.8c.3-.6-2-.6-2.5,0a8.84,8.84,0,0,1-2,.7,2.69,2.69,0,0,0-1.7.8c-.2.5,0,.6.7.2a12,12,0,0,1,3-.9Zm-39.3-1.8a.68.68,0,0,0-.7-.5c-.4,0-.9.2-1,.5s.2.5.7.5S347.91,291.8,347.91,291.5Zm45.2.1c.5-.2.8-.5.5-.7-.5-.3-2.7.4-2.7.8s1,.3,2.2-.1Zm2.5-2.3a1.52,1.52,0,0,0-1-.8c-.6,0-.6.1-.1.8C395.31,290.2,395.91,290.2,395.61,289.3Zm-7-5.8c.2-.2,0-.5-.5-.5a1,1,0,0,0-1,.5c-.2.3,0,.5.5.5A1,1,0,0,0,388.61,283.5Zm-42.4-2.5c3.2-1.8,3.6-2.6.5-1.1-1.5.8-2.8,1.5-2.8,1.8,0,.5.3.4,2.3-.7Zm-254.4-3.1c1.9-.5,3.4-1.2,3.5-1.5s.8-.3,1.5-.1c1,.2,1.1.1.6-.2s-.5-.6-.1-.8a.8.8,0,0,1,.9.2,2,2,0,0,0,1.3.5c.8,0,1-.2.6-1.1a5.31,5.31,0,0,0-.5-1.4c-.3-.4-4.2,1.5-4.2,2,0,.2-.4.4-.9.4s-1.1.1-1.3.4a17.8,17.8,0,0,1-3.7,1.5c-1.8.6-2.9,1.1-2.2,1.1a20.86,20.86,0,0,0,4.5-1Zm344.8-1.4c.2-.2,0-.5-.5-.5a1,1,0,0,0-1,.5c-.2.3,0,.5.5.5A1,1,0,0,0,436.61,276.5Zm6-2.2c2-.7,3.1-1.2,2.7-1.2-1,0-7.4,2.2-7.8,2.8-.5.4.8,0,5.1-1.6Zm-145,0c.5-.4.9-.9.8-1s-.8.2-1.5.7-1,1-.8,1A3.26,3.26,0,0,0,297.61,274.3Zm63.3-1a.79.79,0,0,0-.8-.8c-.8,0-1,.6-.4,1.1C360.31,274.3,360.91,274.1,360.91,273.3ZM17.71,261.2c-1-2.7-2.4-6.5-3.1-8.5s-1.9-5.1-2.5-7.1c-1.4-4-2.1-4.5-1.2-.8.4,1.3.9,3.3,1.1,4.4a62.61,62.61,0,0,0,2.2,6.8c1,3,4.8,10.5,5,10.3a45.93,45.93,0,0,0-1.5-5.1Zm13.2-17.7c-.5-1.1-.5-1.1-.5-.1a2.65,2.65,0,0,0,.3,1.4C31.31,245.3,31.41,244.7,30.91,243.5Zm90.4-1.6c.1-.5-.1-.9-.6-.9a.91.91,0,0,0-.8,1c0,1.3,1.1,1.1,1.4-.1ZM30,238.1a88.39,88.39,0,0,1-2.9-14.5c-.7-10.5-.8-15.8-.3-19,.4-2,.8-5,1-6.7s.6-3.9.8-4.9.1-1.9-.2-1.9c-.9,0-2,2.9-2,5.1a5.81,5.81,0,0,1-.6,2.8c-.5.5-.6,3.8-.6,13.1,0,9.6.1,12.6.6,12.8a1.28,1.28,0,0,1,.6,1.2c0,2.1,3.8,16.1,3.9,14.6a8,8,0,0,0-.3-2.6Zm-8.5-10.2a20.63,20.63,0,0,0-.6-4.5c-.4-.4-.1,4,.3,7S21.81,232,21.51,227.9Zm88.1,2.9c-.2-.4-.5-.6-.8-.5-.7.4-.5,1.2.3,1.2C109.61,231.5,109.71,231.2,109.61,230.8Zm-41.1-3.6c.8-6,2.6-11.1,6.5-18.5.3-.5,1.3-2.5,2.2-4.4s2-3.8,2.6-4.2a14.61,14.61,0,0,0,1.9-2.6c1.4-2.5,4-5.2,4.2-4.4.1.4.4-.3.5-1.5s.6-2.1.9-2.1.5-.4.5-.9.1-.6.3-.2.6-.2,1.2-1.4,1.3-2,1.7-2a1.62,1.62,0,0,0,1.2-1.1c1-1.9,4.5-5.9,5.1-5.9.8,0,4-3,5.8-5.4.7-.9,1.5-1.6,2-1.6a1.52,1.52,0,0,0,1.2-.7c1-1.1,8.8-7.3,9.3-7.3a2.39,2.39,0,0,0,1.1-1,2.39,2.39,0,0,1,1.1-1,6.21,6.21,0,0,0,2.1-1.5,8.18,8.18,0,0,1,2.2-1.5c.4,0,1-.5,1.4-1a7.21,7.21,0,0,1,2.8-2c1.2-.5,1.8-1,1.5-1-.6,0,1.5-2,2.1-2a5.26,5.26,0,0,0,1.5-1,2.29,2.29,0,0,1,2-.8,1.44,1.44,0,0,0,1.5-.5,1.91,1.91,0,0,1,1.2-.7,1.1,1.1,0,0,0,.9-.4,15.87,15.87,0,0,1,3.4-2.1,20.4,20.4,0,0,0,3.5-2c.1-.1,1.3-.8,2.6-1.5a6.41,6.41,0,0,0,2.4-1.6c0-.2.5-.4,1-.4s1-.2,1-.5.5-.5,1-.5,1-.2,1-.5.4-.5.8-.5a2.56,2.56,0,0,0,2.2-2,.47.47,0,0,0-.5-.5.54.54,0,0,0-.5.5c0,.3-.5.5-1,.5s-1,.2-1,.5-.2.4-.5.2a1.1,1.1,0,0,0-1.1.4,2,2,0,0,1-1.1.6c-.9,0-4.2,1.9-4.2,2.4,0,.2-.4.4-.8.4-.9,0-2.5.9-4,2.1-.5.5-1.1.8-1.4.6a.66.66,0,0,0-.7.2,14.5,14.5,0,0,1-3.1,1.9,17.8,17.8,0,0,0-3,1.8,1.42,1.42,0,0,1-1.1.4c-.5,0-1,.2-1,.5s-.5.5-1,.5a1.64,1.64,0,0,0-1.2.7c-.1.4-1.1.9-2,1.1s-1.8.5-1.8.8-.4.5-.8.5a4.38,4.38,0,0,0-1.9,1,4.74,4.74,0,0,1-1.8,1c-.4,0-.6.2-.6.5s-.8.8-1.8,1.3-1.9,1.1-2,1.5a1,1,0,0,1-.9.7,8.74,8.74,0,0,0-3,2.2,19.52,19.52,0,0,1-3.3,2.5c-.5.1-.9.5-.9.8s-.4.5-.8.5a1.68,1.68,0,0,0-1.2,1,1.88,1.88,0,0,1-1.2,1,1,1,0,0,0-.8.8,1.33,1.33,0,0,1-.8,1.1c-1,.4-7.2,6.4-7.2,7a14.6,14.6,0,0,1-2.5,3c-1.4,1.4-3.1,3.4-4,4.5a41.79,41.79,0,0,1-5.5,6.6c-.9,1-1,1.3-.5,1.6s.3.5-.5.7c-1,.2-4.9,4.8-4.9,5.6,0,.1-.9,1.6-1.9,3.4a60,60,0,0,0-4.4,8.8,40.25,40.25,0,0,0-2,5.1c-.2.7-.7,2-1.1,3a33.45,33.45,0,0,0-2.1,6c-.4,1.2-.8,2.9-1,3.6-.3,1-.2,1.5.5,1.9,1.7.5,2.1,0,2.5-2.6ZM64.61,212a38.47,38.47,0,0,0,1.8-5.4c0-.4.2-.6.5-.6s.5-.5.5-1,.1-1,.4-1,.6-.6,1-1.5.9-2.1,1.2-3,.8-1.5,1-1.5.5-.8.7-1.6c.3-1.4.4-1.5.7-.7.5,1.5,1.2.1.9-1.6-.2-.9-.2-1.1.1-.6s.8.2,1.9-1.5c.8-1.2,1.6-2.5,2-3,.2-.5.6-1,.9-1a.46.46,0,0,0,.4-.5,15.61,15.61,0,0,1,2-3.6c2.1-3.2,2.5-4.5,1.2-4.1-.4.2-.8.5-.8.9a2.69,2.69,0,0,1-.8,1.3c-.4.5-1.6,2-2.6,3.5s-2.3,3.2-2.9,3.9c-1,1-4.5,7-4.5,7.8a1,1,0,0,1-.4.7,2.23,2.23,0,0,0-.4,1.3c0,.5-.2.9-.5.9s-.5.5-.5,1-.2,1-.5,1-.5.5-.5,1-.2,1-.5,1-.5.4-.5.9a2.17,2.17,0,0,1-.5,1.4c-1,1.1-5.6,15.5-5.5,17.5,0,.5.5-.9,1.1-3.1s2.1-6.2,3.1-8.8Zm-42,6.3a7.33,7.33,0,0,0-.6-2.6,17.22,17.22,0,0,0,.1,3,8.15,8.15,0,0,0,.5,2.6c.2,0,.2-1.4,0-3Zm366.8-12.5c0-.4-.2-.8-.5-.8s-.5.4-.5.8.2.8.5.8A.79.79,0,0,0,389.41,205.8Zm7.6-1.9a.91.91,0,0,0-1.2-.1c-.5.3-.3.6.3,1.1,1.1.7,1.8-.1.9-1ZM64.41,193.5c1.1-2.2,1.9-4,1.6-4s-4.1,7.1-4.1,7.8S62.61,197,64.41,193.5Zm-35.3-5.1a18.14,18.14,0,0,0,.3-1.9c0-.6-.1-.6-.5,0-.8,1.4-1.1,3-.6,3,.2,0,.6-.5.8-1.1ZM69,185.7c.9-.9,1.4-1.6,1.1-1.6s0-.4.4-.9a5.42,5.42,0,0,0,1-1.8.84.84,0,0,1,1.2-.6c.6.2.7.1.2-.2s-.4-.8.5-2.2a78.89,78.89,0,0,1,8.2-9.8c2.8-2.8,3.3-4.1,1.6-4.1-1.1,0-1.2.1-4,4l-2.5,3.4a2.26,2.26,0,0,0-.5,1,3.43,3.43,0,0,1-.9,1.4,107.25,107.25,0,0,0-7.8,11.6c-.2.6-.6,1.1-.9,1.1s-.5.5-.5,1.1c0,1,0,1,.6.1.6-.5,1.5-1.7,2.3-2.5Zm16.4-6.3c0-.6-.8-.5-1,.2-.1.3,0,.5.4.4s.6-.4.6-.6Zm-2-1.1a6.64,6.64,0,0,1,2-2.5,9.54,9.54,0,0,0,2-2.2c0-.3.4-.7.8-.9s.7-.5.5-.6c-.2-.3-3.6,2.9-6,5.7-.9,1-.9,1.1-.1,1.1a.64.64,0,0,0,.8-.6Zm-2.8-4.9a3.16,3.16,0,0,0,.8-1.5c0-1-2.4,1.7-2.7,3.1-.4,1.2-.4,1.2.5.2A22,22,0,0,1,80.61,173.4Zm7.3-4.6c0-.4.2-.8.5-.8s.4.5.2,1-.1,1,0,1c.4,0,4.1-2.9,6.1-4.8,4.2-4,5.1-4.8,5.3-4.6s3.1-2.2,3.1-2.8c0-.4.4-.6.9-.8a12.55,12.55,0,0,0,2.9-2c1.8-1.6,1.9-1.9,1.1-2.4s-.6-.6.8-.7c.9,0,1.8.2,1.9.5.5.9,1,.5,1-.9,0-1.1.4-1.6,1.9-2.3,1-.5,1.9-1.2,1.9-1.6s.5-.7,1.2-.7a1.82,1.82,0,0,0,1.7-1,2.91,2.91,0,0,1,1.8-1.2c.7-.2,1.2-.7,1.2-1.1s.3-.7.8-.5a1,1,0,0,0,1.2-.7,3.52,3.52,0,0,1,1.8-1.3c.7-.1,1.2-.6,1.2-1s.3-.6.8-.5a.85.85,0,0,0,1.1-.5c.1-.5.6-.6,1.2-.5s1,0,1-.5c0-1.1,1.4-2.4,2.2-2,.5.1.8,0,.8-.5a1,1,0,0,1,1-.8c.5,0,1-.2,1-.5s.7-.7,1.5-1,1.5-1,1.5-1.4.3-.6.8-.5a2.2,2.2,0,0,0,1.8-.7,4.13,4.13,0,0,1,1.8-1c.4,0,.6-.2.6-.5s.5-.5,1-.5,1-.2,1-.4.6-.8,1.4-1.1,2.3-1.3,3.5-2a8.33,8.33,0,0,1,2.6-1.4c.3,0,.5-.1.5-.4a12.84,12.84,0,0,1,3.5-2.1,21.51,21.51,0,0,0,3.5-2c0-.2-.4-.6-.9-1-.8-.6-.8-.6-.5.1s-.3,1.1-2.5,2.1c-1.5.7-3.2,1.5-3.8,1.8s-1.1.4-1.3.2-.6.1-.8.5-.6.6-1.3.5-1-.1-1,.5a.91.91,0,0,1-1,.8c-.5,0-1,.2-1,.5s-.4.4-1,.2a1.9,1.9,0,0,0-2,.7,2.11,2.11,0,0,1-2,.7c-.8-.2-1,0-1,.5a.79.79,0,0,1-.8.8,11.61,11.61,0,0,0-4.2,2c-.5.5-5.7,3-6.5,3s-.7,0,0,.5.6.5-.1.5a1.21,1.21,0,0,0-1.1.8,1.64,1.64,0,0,1-1.2.8c-.4,0-1,.2-1,.5s-.3.5-.7.3a1.19,1.19,0,0,0-1.3.5,2.39,2.39,0,0,1-1.1.7c-.4,0-1,.4-2.6,1.9a2.81,2.81,0,0,1-1.5.6,3.34,3.34,0,0,0-2,1.2,4.13,4.13,0,0,1-1.8,1.2c-.8,0-5,3-5,3.5,0,.3-.5.5-1,.5a2.2,2.2,0,0,0-1.6.9,5.94,5.94,0,0,1-2,1.8,2.94,2.94,0,0,0-1.4,1.9c0,1-.8,1.8-1.1.9-.2-.7-2.4.5-4,2.2a3.87,3.87,0,0,1-1.9,1.4,1.21,1.21,0,0,0-.9.7c-.1.4-.9.9-1.5,1-.9.2-1.1.5-1,1s0,.9-.7,1c-.5.1-1,.5-1,.8a7.44,7.44,0,0,1-1.8,2.2,11.32,11.32,0,0,0-1.8,1.9c0,.6,1.4.2,2.2-.6a4.43,4.43,0,0,1,2-1.1c.5-.1,1-.5,1-.8a1.07,1.07,0,0,1,.6-.9c1.5-.5.7,1-1.2,2.5-1.2.9-2,1.9-2,2.5,0,1.5-.8,1.9-1.6.6-.8-1.1-1.4-.9-1.4.5a5.09,5.09,0,0,1-1.5,2.6,8.12,8.12,0,0,0-1.5,2.3.47.47,0,0,1-.5.5.65.65,0,0,0-.5.6c0,.3,1-.5,2.2-1.8a5,5,0,0,0,2.3-2.5Zm292.9.4c-2.8-5-7.3-11.4-9.2-13.1s-1.8-1.6.3.8a81.07,81.07,0,0,1,6.2,9.3c2.2,3.7,4,6.5,4.2,6.3a9.65,9.65,0,0,0-1.5-3.3Zm-289.6,1c-.4-.4-1.9.4-1.9.9,0,.3.5.2,1,0,.7-.4,1.1-.8.9-.9Zm-6.5-1.6c-.5-.4-1.3.5-1.3,1.3s.1.8.8-.1c.3-.5.6-1,.5-1.2Zm324-14.1c-1.8-5-5-12.1-4.5-10a31.67,31.67,0,0,0,1.5,4c.7,1.5,1.8,4.6,2.8,6.9a15.28,15.28,0,0,0,1.8,4C410.31,159.3,409.61,157.1,408.71,154.5ZM131.41,153c.7-.5.9-.9.5-.8s-1.1.5-1.6.6-.9.5-.9.8C129.41,154.3,130,154.1,131.41,153Zm-11.8-5.2c-.3-.8-1.2-1.1-1.2-.5,0,.4,1.2,1.7,1.4,1.5a2.68,2.68,0,0,0-.2-1Zm39.3-10.8c.6-.5.6-.5,0-1-1.1-.8-1.5-.6-1.5.5S157.81,137.8,158.91,137Zm2.7-1.4a.83.83,0,0,0-.2-.8c-.8-.5-2.1.1-1.8.8A1.34,1.34,0,0,0,161.61,135.6Zm1.8-1.3c0-.4-.2-.8-.5-.8s-.5.4-.5.8.2.8.5.8A.79.79,0,0,0,163.41,134.3Zm2-.7c0-.2.5-.5,1.1-.7s1-.5.8-.6-.9,0-1.6.3c-1.2.6-1.6,1.5-.8,1.5.3-.1.5-.3.5-.5Zm6.7-3.1a21.84,21.84,0,0,1,4-1.5,1,1,0,0,0,1-.6c.2-.4,0-.5-.9-.2a18.29,18.29,0,0,1-2.5.6,2.21,2.21,0,0,0-1.4.6c0,.2-.9.6-2,1a6.9,6.9,0,0,0-2.2,1.1c-.5.9.7.5,4-1Zm-104.2-2.2c0-.2-.5,0-1,.6s-.9,1.3-.7,1.6c.3.5.6.3,1-.5S67.81,128.6,67.91,128.3Zm112.2-.8c.1-.2-.1-.5-.7-.5a1.73,1.73,0,0,0-1.3.5c-.1.3.1.5.7.5S180,127.8,180.11,127.5Zm216.4-.8c-.2-.5-.8-1.8-1.3-2.9-1.8-4-3.5-7.4-4.3-8.1s-.8-.8-.2.6c3.3,7.1,5.5,11.2,5.9,11.2.1,0,.1-.3-.1-.8Zm-213.9-.2c.1-.2,0-.5-.5-.5s-.9.2-1,.5,0,.5.5.5S182.51,126.8,182.61,126.5Zm3.3-1c.6-.5.6-.5,0-.5a3,3,0,0,0-1.5.5c-.6.5-.6.5,0,.5A3,3,0,0,0,185.91,125.5Zm184.5-17.4c-.5-1-1.5-1.9-1.5-1.2a5.63,5.63,0,0,0,1.8,2.2C370.81,109,370.71,108.6,370.41,108.1ZM97.81,94c1-1.5.5-1.6-.9-.2-.8.9-1,1.2-.5,1.2A2.07,2.07,0,0,0,97.81,94Z" />
            <path class="cls-1"
                d="M94.41,159.8c.1-.5.5-1,.9-1a.75.75,0,0,0,.7-.5c.2-.8,3.1-2.6,3.6-2.4.2.1,0,.6-.5,1s-1,1.2-.9,1.7-.1,1-.4,1.1-.5,0-.5-.2c0-.8-1-.6-2.1.4-.9.8-.9.8-.8-.1Z" />
            <path class="cls-1"
                d="M37.41,513.2a2.77,2.77,0,0,1,.5-1.2c.5-.7.5-.7.5,0,0,.5.6,0,1.5-1s1.5-1.5,1.5-1-.8,1.3-1.7,2.2C37.91,513.6,37.41,513.8,37.41,513.2Z" />
            <path class="cls-1"
                d="M402.91,510.8c-.2-.2-2.1-.5-10.7-1.6a9.94,9.94,0,0,1-2.5-.7,4.44,4.44,0,0,0-2-.5,4.3,4.3,0,0,1-2-.4,27.49,27.49,0,0,0-3.2-1.3c-1.4-.5-3.5-1.2-4.5-1.7a25.82,25.82,0,0,0-2.8-1.2c-4.3-1.7-17.7-9-16.4-9a23.47,23.47,0,0,1,6.5,3.3,19.48,19.48,0,0,0,6,2.8,1.39,1.39,0,0,1,1,.5,1.92,1.92,0,0,0,1.2.3,11.26,11.26,0,0,1,3.3,1.3,11.69,11.69,0,0,0,4.2,1.3c.8,0,1.6.2,1.6.5s.5.3,1.2.1a7.18,7.18,0,0,1,3.6.5c3,1,13.7,1.8,16.7,1.3,2.5-.5,2.3-.5-3.2-.8-4.5-.2-14.2-1.7-15-2.2a15,15,0,0,0-4-1,41,41,0,0,1-7.2-2c-2-.8-4.4-1.6-5.2-1.8s-1.1-.5-.7-.5a11.18,11.18,0,0,1,3.2.8,33.17,33.17,0,0,0,6.2,1.5,33.93,33.93,0,0,1,5.2,1.1c2.3.7,19.8,1.1,19.8.5a.65.65,0,0,0-.6-.5c-.3,0-3.3-.2-6.7-.4-5.7-.4-11.5-1.5-12.5-2.6a2.54,2.54,0,0,0-1.3-.5,3.91,3.91,0,0,1-1.9-1,8.82,8.82,0,0,0-1.3-1c-.8,0-13.2-6-16.5-8a25.23,25.23,0,0,0-3.2-1.8,145.72,145.72,0,0,1-12.8-9A98.09,98.09,0,0,1,333,463.7a19.82,19.82,0,0,1-2.2-2.8,71.18,71.18,0,0,1,6.2,5.8c3.2,3.2,6.7,6.4,7.6,7.2a30.71,30.71,0,0,1,3.4,2.9,7,7,0,0,0,2.2,1.7,10.94,10.94,0,0,1,3,1.8,13,13,0,0,0,2.9,1.8,4,4,0,0,1,1.3,1,3.49,3.49,0,0,0,1.5,1,2.09,2.09,0,0,1,1.3.8,5.35,5.35,0,0,0,2.5,1.5c1,.4,1.9,1,1.9,1.2s.3.5.8.5a8.45,8.45,0,0,1,2.5,1,11.23,11.23,0,0,0,2.5,1,4.64,4.64,0,0,1,2,1,5.22,5.22,0,0,0,2.2,1,2.15,2.15,0,0,1,1.5,1,2.15,2.15,0,0,0,1.5,1,1.6,1.6,0,0,1,1.4.8c.2.5.6.8.8.8a5.75,5.75,0,0,1,3,1.4c.8.7,1,.7,1.3,0s.5-.6.5.2a.82.82,0,0,0,.9.8,5.26,5.26,0,0,1,2.3.8c1.4.8,6.8,1,14.2.8,3.7-.2,3.2-1-.5-1a52,52,0,0,1-5.9-.5c-1.5-.3-3.5-.6-4.5-.7s.5,0,3.2.1c7.7.5,17.2.3,19.8-.3,1.2-.3,3.2-.8,4.5-1.1s3-.7,3.8-.8a18.09,18.09,0,0,0,2-.6,11.48,11.48,0,0,1,2.8-1,31.21,31.21,0,0,0,4.3-1.5,13.67,13.67,0,0,1,2.7-1,3.39,3.39,0,0,0,1.4-.5c.5-.2,1.5-.7,2.3-1,3-1.2,9.5-4.6,9.7-5.1a.84.84,0,0,1,.7-.4,11.6,11.6,0,0,0,2.6-1.3c3.5-2.2,5-3.2,6-3.5.5-.2.8-.5.8-.7s.5-.5,1-.8c1.2-.3,3.5-2.5,4.7-4.3.7-1,1.2-1.2,2.1-1.1,1.2.2,1.2,1.7,0,1.7a1.89,1.89,0,0,0-1.3.7,89.23,89.23,0,0,1-8.3,6.5,6.94,6.94,0,0,0-2.1,1.8c0,.2-.3.5-.8.5a1.51,1.51,0,0,0-1.1.7,7.43,7.43,0,0,1-2.2,1.8,5.81,5.81,0,0,0-1.9,1.5.68.68,0,0,1-.7.5,19.66,19.66,0,0,0-5.3,2.5c-.2.2-3.3,1.8-7,3.5a50.32,50.32,0,0,1-10.8,4.2c-2.2.5-4.5,1.1-5.2,1.3a24.59,24.59,0,0,1-4,.6,15.57,15.57,0,0,0-3.5.5,8.8,8.8,0,0,1-1.5.5c-.4.2,1,.2,3.2,0a29.86,29.86,0,0,0,4.8-.7,5.36,5.36,0,0,1,2.4-.5c1.7,0,5.5-1,9-2.2a11.45,11.45,0,0,1,3.4-.8c.6,0,1.1-.2,1.1-.5s.3-.5.8-.5a3.69,3.69,0,0,0,1.7-.5c.5-.2,2.9-1.5,5.3-2.6s5.5-2.6,6.9-3.2c3.1-1.5,3-1-.1.5a12.77,12.77,0,0,0-2.7,1.7c-.2.5-12.5,6.6-13.3,6.6a.84.84,0,0,0-.7.4,6,6,0,0,1-2.7,1.2c-1.3.5-4,1.4-6,2.1s-3.8,1.2-4.2,1.3c-1,0-4.7,1-4.4,1.2.4.4,9.3-1.8,12.1-3a8.4,8.4,0,0,1,3-.8,2.54,2.54,0,0,0,1.6-.5,10,10,0,0,1,2.8-1,8.91,8.91,0,0,0,2.7-1,1.6,1.6,0,0,1,1-.5c1,0,9.5-4,13.4-6.3,6-3.5,16.4-10.8,18.6-12.9.5-.5,2.7-2.5,4.7-4.2a110.43,110.43,0,0,0,12.2-13.5c3.1-3.8,4-4,1.4-.2a14.43,14.43,0,0,0-1.8,3.2c.2.2,0,.4-.2.4s-.9.8-1.5,1.7-1.5,2.1-2,2.8-1,1.1-.8,1.1-.5.8-1.4,1.8a34.58,34.58,0,0,0-2.3,3.1,13.05,13.05,0,0,1-2.2,2.9c-5.1,5.3-5.9,6.3-4.8,5.8.6-.3,1.1-.8,1.1-1a.47.47,0,0,1,.5-.5,7.33,7.33,0,0,0,2.5-1.8c4.9-4.5,7.8-7.5,8-8s1.2-1.8,6.5-7.8a12.78,12.78,0,0,0,2.1-2.9c.2-.5.5-.9.8-.9s1.2-1.2,2.3-2.8c1.8-2.8,2.8-3.7,1.7-1.6a67.12,67.12,0,0,1-5.5,8.1,5.91,5.91,0,0,0-1.4,1.9q0,.3-.6,0c-.4-.2-.4-.2-.2.2.4.7-1.9,4.2-3.7,5.8a3.49,3.49,0,0,0-1,1.5c0,.5-5.8,7.2-7.3,8.4-.2.2-1.7,1.5-3.2,2.8-11.2,9.5-12.4,10.3-25,16.5-8,4-8.8,4.2-11.2,5.1-10,3.2-18,4.6-27.5,4.6-3.8-.4-6.8-.5-6.8-.6Zm9-5.8c.6-.4.5-.5-.3-.5a1.81,1.81,0,0,0-1.4.5C409.71,505.7,410.91,505.7,411.91,505Zm-5.3-3c-1.4-.6-2.3-.6-2,0a2.28,2.28,0,0,0,1.7.5C407.51,502.5,407.61,502.4,406.61,502Z" />
            <path class="cls-1"
                d="M54.41,506.9a.88.88,0,0,0-.8-.9c-.4,0-.8-.1-.8-.2,0-.7,1.6-3.3,1.9-3.1a2,2,0,0,1-.2,1.2,1.5,1.5,0,0,0,0,1.8,1.69,1.69,0,0,1,.2,1.5q-.15.45-.3-.3Z" />
            <path class="cls-1"
                d="M55.91,504.1a2.31,2.31,0,0,1,.8-1.1c.4-.3.8-.4.8-.1a2.31,2.31,0,0,1-.8,1.1C56.31,504.3,55.91,504.4,55.91,504.1Z" />
            <path class="cls-1"
                d="M45.41,501.8a2.16,2.16,0,0,1,.8-1c1.1-1.1,1-2.2-.4-2.7-.6-.2-.9-.5-.5-.5a12.08,12.08,0,0,0,1.4-.3c.5-.2.8,0,.8.5,0,1,1.3,1,1.7,0,.2-.5.5-.7.6-.5s-.8,1.3-2,2.6C46.51,501,45.41,502,45.41,501.8Z" />
            <path class="cls-1"
                d="M58.71,501.7a1,1,0,0,1,.7-1.7c.7,0,1.1-.5,1.5-2.1a35.23,35.23,0,0,1,1.5-4.2c.5-1.1,1-2.4,1.2-2.8s.5-.9.8-.9c.8,0,1.3,1.7.6,1.9a.84.84,0,0,0-.6.8,10.05,10.05,0,0,1-2,4,11.65,11.65,0,0,0-1.5,2.5C60,501.5,59.31,502.2,58.71,501.7Z" />
            <path class="cls-1"
                d="M391.21,496a40.15,40.15,0,0,1-12.8-3.2c-1-.5-1.9-.7-1.9-.5s-.2.2-.4-.2a37.08,37.08,0,0,0-5.6-3.3c-8.8-4.5-9.7-5.1-11-6.3a12.54,12.54,0,0,0-2.1-1.4c-.5-.2-.9-.5-.9-.8s-.5-.5-1-.5-1-.2-1-.3c0-.5-2.2-2.7-5-5a97.7,97.7,0,0,1-13.2-13.3c-2.8-3.3-5.2-6.2-5.5-6.5a10.75,10.75,0,0,1-1.3-1.5c-1.5-2,3.3,2.2,7.8,6.8,2.5,2.5,5.2,5.2,6.2,6a55.75,55.75,0,0,1,5.2,4.7,27.48,27.48,0,0,0,3.9,3.3,24.07,24.07,0,0,1,3.8,2.2,76.17,76.17,0,0,0,10.4,5.8,64.63,64.63,0,0,0,13,4.8c2.3.6-.6-.8-3.7-1.8-7.3-2.4-19.1-9.1-23.8-13.5a5.77,5.77,0,0,0-2-1.5c-1,0-10.8-9.2-11.8-11.2-.8-1.5,1.1-.2,2.2,1.5a15.71,15.71,0,0,0,2.5,2.7l1.5,1.2-1.2-1.7c-.7-.9-2.2-2.5-3.2-3.5a77.25,77.25,0,0,1-10.2-11,40,40,0,0,0-4.8-5.8c-1.4-1.5-2.3-2.7-2-2.7.5,0,6.7,6.5,7,7.5a23.7,23.7,0,0,0,3.6,3.5,56.43,56.43,0,0,1,4.3,3.8,3,3,0,0,0,1.6,1.2,6.89,6.89,0,0,1,2,1.5,13.46,13.46,0,0,0,2.8,2.2,43.75,43.75,0,0,1,5.5,3.3,36.54,36.54,0,0,0,5,2.7c4.3,1.8,10.5,4.7,11.6,5.2a3.39,3.39,0,0,0,1.4.5,16.47,16.47,0,0,1,2.7,1c3.2,1.5,7.5,3,7.8,2.8s-3-2.2-6.4-3.9a35.9,35.9,0,0,1-4.5-2.6,8.33,8.33,0,0,0-2.1-1.2c-.5,0-3.8-2.2-5.3-3.5a5.6,5.6,0,0,0-1.8-1c-.3,0,0-.2.6-.4,1.2-.3,1.1-.4-1-1.8a14.8,14.8,0,0,0-2.5-1.5,24,24,0,0,1-6.2-3.6c-1.4-1.2-1.6-2-.8-2.2.3-.1.2-.5-.2-1.2-.7-.8-.8-.8-1.2-.3s-.5.5-.8-.3c-.2-.6-.5-1-.8-1-.7.2-6.5-5.8-6.8-7.2a3.61,3.61,0,0,0-1.5-1.5,5,5,0,0,1-2.1-2c-.5-.8-1.2-1.5-1.5-1.5s-.7-.2-.7-.5c0-.7,1.2-.7,1.9.1a2.53,2.53,0,0,1,.6,1.5,1.52,1.52,0,0,0,1,1.2,15.5,15.5,0,0,1,2.9,2.2,26.52,26.52,0,0,0,3.1,2.6,11.2,11.2,0,0,1,2,1.7,2.09,2.09,0,0,0,1.3.8,4.78,4.78,0,0,1,1.8,1.2c1.3,1.2,5.2,4,13.5,9.3,6.8,4.5,9,5.8,11.3,6.5a14,14,0,0,1,2.5,1,2,2,0,0,0,.9.5c.8,0-.7-1.5-1.7-1.8-2.7-.8-11.2-7.4-19.7-15.2-1.7-1.5-4-3.5-5.2-4.5a31.45,31.45,0,0,1-3.7-3.5c-.8-1-4.2-4.5-7.7-7.8-3.3-3.3-6.8-7-7.5-8.2a31.77,31.77,0,0,0-4.5-5.3,31.24,31.24,0,0,1-3.8-4.6,30,30,0,0,0-2.5-3.8,7.71,7.71,0,0,1-1.5-2.3,93.69,93.69,0,0,0-6.4-8.5c-1.8-1.9-3.9-5.9-3.9-7.5a2.07,2.07,0,0,0-.3-1.1c-.3-.2-1.3-1.9-3.3-6.2a10.71,10.71,0,0,0-1.5-2.2,20.67,20.67,0,0,1-2.5-4.7c-.8-2-2.4-5.4-3.5-7.7-2-4.2-7.5-17.8-7.5-18.6,0-1,1.9-2.5,5-4.2,1.8-1,3.3-1.8,3.5-2a22.15,22.15,0,0,1,4.7-2.5c.8-.3,1.3-.8,1.3-1s.8-.7,1.8-1c1.5-.5,1.7-.8,1.5-1.8s-.1-1.2.5-1.2a.71.71,0,0,1,.8.7c0,.5.3.6,1.4.2,2.7-.9,3.1-1,3.1-1.5,0-.2.5-.6,1-.8a9.15,9.15,0,0,0,1.7-.9c2-1.8,4-3,4.3-2.4s.8.5,6.5-3c3.1-1.8,8.5-4.5,9-4.5a24.75,24.75,0,0,0,3-1.5c2.3-1.4,6-2.1,5.3-1-.5.8.3,3.5,1.7,4.9l1.3,1.5,1.7-1.7a12.15,12.15,0,0,1,2-1.7,8.6,8.6,0,0,0,2-1.5,6.93,6.93,0,0,1,2.3-1.5,1.93,1.93,0,0,0,1.2-.8,2.32,2.32,0,0,1,1.3-.8c.6,0,.6.2.1,1a2.15,2.15,0,0,1-1.5,1,4.29,4.29,0,0,0-2.2,1.5,4.29,4.29,0,0,1-2.2,1.5,1.5,1.5,0,0,0-1.2.5c-.2.3-.1.5.2.5s.4.3.2.8-.5.7-.8.6-1,.9-1.7,2.1c-1.1,2-1.2,2.3-.4,3.1.5.5,1.2.8,1.6.6.7-.2.8-.2.2.4a2,2,0,0,0-.2,2.7c.3.2,1.1,0,1.8-.5,1.5-1,1.8-1,1.8,0s-.7,1.5-2.7,2.8c-.8.5-1.3,1-1.2,1.2.3.3,3.8-1.5,3.8-2a1.65,1.65,0,0,1,.8-1c.7-.5.7-.7-.2-1.6a2.5,2.5,0,0,0-1.9-.8c-.8.2-.4-.3,1.2-1.8a30.57,30.57,0,0,0,2.9-3.3c1-1.6,1.6-1.5,2.2,0,.2.7.6,1.2.8,1.2a8.57,8.57,0,0,0,2-1.2,6,6,0,0,1,2.5-1.2c.5,0,.8-.2.8-.5a.54.54,0,0,1,.5-.5c.3,0,.5.3.5.8a.74.74,0,0,0,.8.8c.5,0,.6-.3.5-.8s-.5-.8-.7-.8-.5-.5-.7-1c-.3-1.4-1.2-1.2-2.2.5q-.9,1.5-1.8,1.2c-.7-.2-.9,0-.9.8s-.2.9-.7.8c-.8-.3-.5-2.7.5-2.7.4,0,.7-.2.7-.5a.68.68,0,0,1,.7-.5,4.56,4.56,0,0,0,1.8-1.2,4,4,0,0,1,1.7-1.2c.7,0,3.7-2.5,3.7-3.2a4.25,4.25,0,0,1,.2-1.1c.1-.9,5.5-6.2,6.3-6.2.6,0,.2.8-1.5,2.9a18.33,18.33,0,0,0-2.3,3.5c0,1.2,1.3.5,2.7-1.4.8-1.1,1.7-2,2-2,.6,0,3.2-2.3,6.3-5.7,1.2-1.3,2.3-2.2,2.5-2.1.3.3-5.3,7.2-6.5,7.8a2,2,0,0,0-.9,1.8c0,.8-.2,1.2-.5.9-.6-.3-3.5,2.2-3.5,3,0,.3.3.1.8-.4s.9-.8,1.1-.6-.3,1-1.2,1.8a6.59,6.59,0,0,0-1.6,2c0,.9,1.4.5,2.3-.7a16.89,16.89,0,0,1,3-2.6,10.38,10.38,0,0,0,2.6-2.5,4.46,4.46,0,0,1,2-1.8c.8-.4,1.5-1,1.5-1.2s.8-1.2,1.8-2,3.2-2.7,4.7-4.2,3.2-3,3.8-3.5,2-1.8,3.5-3c3.2-3,2.1-1.5-5.7,7.3a36.6,36.6,0,0,0-4,5.2,12.54,12.54,0,0,1-2.2,3.2,12.77,12.77,0,0,0-2.2,3.1.47.47,0,0,1-.5.5.68.68,0,0,0-.5.7,6.87,6.87,0,0,1-1.5,2.2,6.85,6.85,0,0,0-1.5,2.1,1.94,1.94,0,0,1-.8,1.1,7,7,0,0,0-1.7,2.2,11.53,11.53,0,0,1-1,1.8,5.3,5.3,0,0,0-.8,1.7c-.3.8-.8,1.3-1.2,1.3-.2,0-.5.5-.5,1a2.74,2.74,0,0,1-1.2,1.8,8.41,8.41,0,0,0-2.3,3c-.6,1.2-1.2,2.2-1.5,2.2s-.8.6-1.2,1.4a77.25,77.25,0,0,1-6.8,8.9c-2.6,2.8-3,3.4-2,4,.3.2.5,0,.5-.5,0-.9,4.1-5.2,5-5.2.3,0,.5.4.5.9,0,1-1.2,2.6-1.9,2.6s-2.6,3.2-2.6,4.3c0,1.3.8.7,1.8-1.3a8.41,8.41,0,0,1,2-2.8c1.3-.8,1.8-2.6,1.1-3.5-.5-.7-.2-1.4.5-1.4.5,0,3.1-2.6,3.1-3.1a22.11,22.11,0,0,1,3.5-4,25.34,25.34,0,0,0,3.5-4,1.89,1.89,0,0,1,1-1,1.68,1.68,0,0,0,1-1.2,1,1,0,0,1,1-.8c.5,0,1-.2,1-.5a10.16,10.16,0,0,1,2.2-2.7c3.2-3.3,7.9-8.7,10.9-12.2a38.42,38.42,0,0,1,2.8-3.2c.3,0,.2.5-.5,1.1-.3.3-1.5,1.8-2.5,3.2a50.89,50.89,0,0,1-4.5,5.3c-4.7,5.2-7.3,8.3-7.3,8.8,0,.3-.5.8-1,1a1.68,1.68,0,0,0-1,1.2,7.79,7.79,0,0,1-2.2,2.5c-1.4,1.2-2.1,2.2-2,2.8s-1,2-3.2,4.3a37.51,37.51,0,0,0-4.2,5,31.63,31.63,0,0,1-2.2,3.5c-.8,1.1-2,2.8-2.6,3.8a13,13,0,0,1-1.8,2.2c-.7.5-.3,1.5,2.5,7.5a232.47,232.47,0,0,0,15.5,27c2.2,3.2,4.1,6,4.2,6.4a1.7,1.7,0,0,0,2.5.8c.5-.5.8-.3,1,.3a1,1,0,0,1-.3,1.2c-1.1.7,1.5,4.1,7.2,9.7,4.2,4.2,5.2,4.9,6.2,4.6.8-.2,1.1-.1,1,.2-.3.5,2.5,2.9,4.5,4a97.24,97.24,0,0,0,10.5,3.5c2.7.8,10.3.2,16-1,3.8-.8,11-3.9,16.3-6.8,2.6-1.5,4.8-2.8,5-3a22.1,22.1,0,0,1,2.5-2,22.1,22.1,0,0,0,2.5-2c.2-.2,1-.9,2-1.7s3.7-3.3,6.2-5.7,4.3-4,4.3-3.8a2.76,2.76,0,0,1-.8,1.3,3,3,0,0,0-.8,1.8c0,.8-.2,1-1,.8-.5-.2-1-.1-1,.2,0,1-12.4,12.8-16,15.1l-2.2,1.5c-1.8,1.4-9.5,5.3-13,6.7a15.75,15.75,0,0,0-3.2,1.6c.2.2,6.6-1.7,10-3,6.2-2.3,17.7-8.9,18.2-10.5a4.53,4.53,0,0,1,1.2-1.5c.8-.9.9-.9.9-.1,0,.5.2.7.5.5a1.91,1.91,0,0,0,.5-1.5c0-.7.2-1.2.5-1.2a.47.47,0,0,1,.5.5c0,1,1.2.5,3.2-1.2a9,9,0,0,0,1.8-2.2,1.55,1.55,0,0,1,.7-1c.8-.5,4.3-5,4.3-5.5a17.31,17.31,0,0,1,2.8-3.3c1.5-1.7,2.8-3.2,2.8-3.3a5.78,5.78,0,0,1,1.2-1.7,25.74,25.74,0,0,0,2.6-3.7,18.7,18.7,0,0,1,1.7-2.6c.2-.2,3.5-5,4.6-6.7a79.19,79.19,0,0,0,3.9-9,2.4,2.4,0,0,1,.7-1.3c.8-.9,6.8-16.1,6.8-17.2a2.93,2.93,0,0,1,.3-1,13.22,13.22,0,0,0,1.7-5.4,2.28,2.28,0,0,1,.5-1.7,4.14,4.14,0,0,0,.8-2.5c.3-2.1,1.8-4.3,2.4-3.4s-.9,6.2-1.8,6.7a1.7,1.7,0,0,0-.8,1.3c0,.8.1.8.7,0s.7-.5.5,1.8a31.11,31.11,0,0,1-1.8,8.7,61,61,0,0,0-2.3,8.2,35.61,35.61,0,0,1-1,3.6,7.87,7.87,0,0,0-.5,3.4c.1.9.3.7,1.5-1,.8-1.2,1.3-1.8,1.3-1.5a6,6,0,0,1-1,2,23.53,23.53,0,0,0-1.8,4.1,131.09,131.09,0,0,1-5.8,15.5,10.27,10.27,0,0,0-1,2.7c0,.5-.2.7-.5.7s-.5.5-.5,1-.2,1-.5,1-.5.3-.5.8a6.8,6.8,0,0,1-1.5,3.2c-.3.2-5,8.9-5,9.2s.3.1.8,0,.8-.6.8-.9a4.07,4.07,0,0,1,1.3-1.8,8.62,8.62,0,0,0,2-2.7,20.55,20.55,0,0,1,1.2-2,79.2,79.2,0,0,0,6.6-11.4,112.59,112.59,0,0,0,4.9-11.7c.7-1.7,1.8-4.2,2.5-5.6a12.81,12.81,0,0,0,1.4-3.1,32.75,32.75,0,0,1,2-4.8,25.18,25.18,0,0,0,2-5c0-1.2.5-2.3,1-2,.7.4.9-1.7.2-2.2-.8-.7-.8-.5-2,3.5-.6,2-1.3,3.5-2,3.9a2.54,2.54,0,0,0-1.2,2,2.33,2.33,0,0,1-.4,1.4,18.8,18.8,0,0,0-1.6,4,21.46,21.46,0,0,1-1.3,3.6c-.2-.2,1.2-6,1.8-7.5.2-.5.6-1.5.8-2.1s.5-1.2.8-1.2c1,0,6-12.9,6-15.5a2.28,2.28,0,0,1,.5-1.7,2.8,2.8,0,0,0,.4-1.9,10.59,10.59,0,0,1,.3-2.7,3.07,3.07,0,0,0-.2-2.1c-.4-.7-.3-1.1.2-1.5.7-.5,1-3.3,1.6-12.9.2-4,.5-5.2,1-5.2,1.3,0,.2,16.2-1.8,25.2a13.7,13.7,0,0,0-.2,3.4c.2,1,0,1.3-.5,1.3s-.8.4-.8,1a2.69,2.69,0,0,1-.8,1.8c-.8.8-.7,2.2.3,2.2.3,0,.5-.4.2-1s-.1-1,.2-1,.6-.5.8-1.1.2.2.1,1.8c-.1,1.8-.4,3.2-.8,3.5s-.5.5-.1.7.5.5.2,1.1c-.8,1.5-1.7,5.1-1.4,5.5.2.2.1.6-.2,1a18.74,18.74,0,0,0-1.2,3.8c-.4,1.7-1,3.6-1.2,4.2s-.5,1.5-.7,2.2c-.7,3.4-2.1,8.2-2.5,8.4a1.42,1.42,0,0,0-.4,1.1c0,.5-.2,1.1-.5,1.2-.7.4-.7,4.1,0,4.5s1.5-1.3,1.5-3c0-1.5,1.8-5.7,2.5-5.7.2,0,.5-.7.5-1.5s.2-1.5.4-1.5.7-1,1-2.3a27.67,27.67,0,0,1,1.3-3.4,11.55,11.55,0,0,0,.8-1.5,4.41,4.41,0,0,1,.8-1.5,11.33,11.33,0,0,0,.9-2c1-4.2,3.2-11.8,3.2-10.9a16.49,16.49,0,0,1-.8,3.7,83.07,83.07,0,0,0-2.5,13.4c-.2,1.4-.5,2.6-.7,2.6s-.4,1-.5,2.3a10.63,10.63,0,0,1-.8,3.5c-.5.7-.5,1.2-.2,1.2.5,0,.2,2.5-.5,3a9.08,9.08,0,0,0-.5,2.5,4.86,4.86,0,0,1-1,3,10.11,10.11,0,0,0-2.2,5.1,16.08,16.08,0,0,1-1.9,4.6c-1,2-2.2,4.5-2.6,5.4a50.85,50.85,0,0,1-2.1,4.9,16.82,16.82,0,0,0-1.4,3.8,4.74,4.74,0,0,1-1,1.8,5.22,5.22,0,0,0-1,2.2c0,.5-.2.8-.5.8s-.7.5-.8,1a6.08,6.08,0,0,1-.9,1.6,31.69,31.69,0,0,0-2,3.5,17,17,0,0,1-2.7,4.1,4.72,4.72,0,0,0-1.2,1.7,5.91,5.91,0,0,1-1.4,1.9,10.09,10.09,0,0,0-2,2.9c-.4.8-.9,1.3-1.2,1.3s-.7.5-1,1.2c-1.2,2.8-2,3.8-5.3,7-.7.6-1.2,1.2-1.2,1.5a23,23,0,0,1-2.8,3.3c-1.6,1.6-3.9,4-5.1,5.2a20.55,20.55,0,0,1-3.8,3.3,15.37,15.37,0,0,0-3,2.8c-.8,1-1.7,1.8-2,1.8a22.15,22.15,0,0,0-4.3,3,44.08,44.08,0,0,1-4,3c-.3,0-8.2,5.2-9.5,6.2-.6.5-11.3,5.6-15.2,7.2a109.33,109.33,0,0,1-15.8,4.5,99.23,99.23,0,0,1-20.8.5Zm12.7-27c-1.5-.5-4.8-1.7-7.2-2.5A94.55,94.55,0,0,1,373,454.3c-2.8-2.2-6.5-4.8-8-5.8-2.8-1.9-2.8-1.9-1-.2,1,.9,3.8,3.1,6.2,4.8s4.2,3.2,4.1,3.4-1.5-.8-3-2c-4.6-3.5-5.2-3.8-3.5-2,4.2,4.7,18.5,12.2,29,15.5C402.81,469.8,408.41,470.6,403.91,469Zm-24-2.7c-.1,0-1-.4-1.8-.7-1.8-.6-2.2-.3-.5.4C378.61,466.5,380.31,466.7,379.91,466.3Zm-13.3-.8a1.91,1.91,0,0,0-1-.5,1.15,1.15,0,0,1-1-.8c-.2-.6-2.8-2.2-3.5-2.2-1.2,0,4.1,3.8,5.5,4C366.81,466,366.81,465.8,366.61,465.5Zm9.8-3.9a60.83,60.83,0,0,1-11.6-7.7,7.63,7.63,0,0,0-1.8-1.4,53.6,53.6,0,0,1-4.8-4.2,30.38,30.38,0,0,0-5-4.2c-.3,0-1.2-.9-2-2s-1.6-1.9-1.7-1.8c-.3.3,2,3.4,3,4.2.5.4,2.8,2.4,4.9,4.5a58.82,58.82,0,0,0,7.3,6,43.75,43.75,0,0,1,4.7,3.5c1.2,1.2,10.7,6,11.8,6,.3-.1-1.9-1.3-4.8-2.9Zm-12-11.4c-7.5-7.8-12-12-9-8.5,2.5,2.8,10.8,11.2,11.2,11.2S365.81,451.7,364.41,450.2Zm-15.2-14.1c-2.5-2.5-4.6-4.3-4.8-4.2s8.5,8.6,8.9,8.6c.2-.1-1.7-2-4.1-4.4Zm-2.8,1.4a16,16,0,0,0-3.2-2.5c-.3,0,.7,1.1,2.2,2.5a21.8,21.8,0,0,0,3.2,2.5C348.91,440,347.91,438.9,346.41,437.5Zm-4.4-3.3c-.2-.5-.2-.7.2-.5s.6.2.6-.2c0-.7-4.7-5-5-4.7-.2.1.6,1,1.7,1.8,1.3,1.2,1.8,2,1.8,3,0,.8.2,1.3.5,1.3s.4-.3.2-.7Zm134.5-10.3c-.5-.5-.6-.3-.6.6s.2,1,.6.6.4-.8,0-1.2Zm14-2.2c.9-1.6,2.2-3.9,3-5.2a87,87,0,0,0,4.5-8.8,3.72,3.72,0,0,0,.2-1.8c-.2-.5-.3-.3-.6.3s-.9,2.2-1.5,3.6-1.5,3.1-1.7,3.8a29.5,29.5,0,0,1-2,3.7,47.84,47.84,0,0,0-2.3,4.2c-.5.8-1,1.6-1.2,1.6s-.4.3-.4.8C488.41,425,488.71,424.7,490.51,421.7Zm-9.2-2.2a9.92,9.92,0,0,0,2.1-3.1c0-.3-.5,0-1.2.7-4,4.7-4.8,5.9-4.8,6.5s.3.2.9-.5A42.77,42.77,0,0,1,481.31,419.5Zm7.3-1.5c.5-1.5.1-1.6-.6-.2-.3.7-.3,1.2-.2,1.2C488.11,419,488.51,418.5,488.61,418Zm-10.4-7.3c-.8-.8-.8-.8-.8,0a1,1,0,0,0,.7,1c.9.3,1-.1.1-1Zm21.4-8.5c1-2.4,1-4,0-3.2a5.29,5.29,0,0,0-1,2c-.2.8-.5,1.8-.6,2.2C497.41,404.9,498.91,404,499.61,402.2Zm-6.8-10a23.36,23.36,0,0,0,1.8-4.2c.2-.7,1.2-2.8,2-4.7a12.06,12.06,0,0,0,1.7-5.5c0-2-.1-1.9-2,2.7a39,39,0,0,0-2,5.2,23.72,23.72,0,0,1-1.5,3.5,19.32,19.32,0,0,0-1.5,3.8,2.2,2.2,0,0,1-.6,1.5c-.5.5-.5.6,0,.6S492,393.7,492.81,392.2Zm10.8-7.2c.2-.8.2-1-.1-.5a7.56,7.56,0,0,0-.8,2c-.2.8-.2,1,.1.5A13.77,13.77,0,0,0,503.61,385Zm-3.2-19.6c.8-1.8,2.3-5.7,3.8-10,.2-.5,0-.9-.2-.9-.5,0-1.3,2.2-2.5,6.5a9.43,9.43,0,0,1-1.2,3c-.5.3-1.5,3.5-1.2,3.5s.7-1,1.3-2.1Zm5-19.2c0-.4-.2-.6-.5-.5a1.91,1.91,0,0,0-.5,1c0,.4.2.6.5.5S505.41,346.6,505.41,346.2Zm-147.5-5.4c-.6-.8-1.5-.6-1.5.3,0,.2.5.5,1,.5C358.31,341.5,358.41,341.4,357.91,340.8Zm2-1.3a1.65,1.65,0,0,0-.8-1c-.7-.5-.8-.5-.8.5,0,.6.3,1,.8,1S359.91,339.8,359.91,339.5Zm3.8-4.3c-.5-.5-1.9.8-1.5,1.4.2.3.7.2,1.1-.3s.6-.9.4-1.1Zm-7.8,0c0-.5-.3-.6-.8-.5s-.8.5-.8.8.3.5.8.5A.74.74,0,0,0,355.91,335.2Zm11.8-1.5a11.09,11.09,0,0,1,1.9-2.3c.8-.8.9-1,.3-1.3s-.5-.5.4-.5c.7,0,1.1-.3,1.1-.8a.77.77,0,0,0-.7-.8c-.9,0-2,1.3-1.5,2,.3.5-.8,2-1.7,2-.3,0-.8.7-1,1.5-.7,1.9,0,2,1.2.2Zm-27.3-2.9c.8-1,0-1-1.3,0-.8.6-.8.7-.2.8A3.15,3.15,0,0,0,340.41,330.8Zm28.4-4.3c1.7-2.1,2-3,1-3-.8,0-3.9,3.7-3.9,4.5C365.91,329.1,367.31,328.4,368.81,326.5Z" />
            <path class="cls-1"
                d="M48,495.3a2.53,2.53,0,0,0,.9-2c0-.7.2-1.3.5-1.3s.6-.6.7-1.3l.2-1.4.1,1.5c0,1.2.2,1.3,1,1.2,2.5-.7.1,2.8-2.5,3.6-1.5.3-1.6.3-.9-.3Zm2.8-1.7c.1-.3-.1-.6-.6-.6a.74.74,0,0,0-.8.8C49.41,494.6,50.51,494.5,50.81,493.6Z" />
            <path class="cls-1" d="M40.51,491.5c.1-.3.4-.6.5-.6.6,0,.5.8-.1,1C40.51,492,40.41,491.9,40.51,491.5Z" />
            <path class="cls-1"
                d="M351.91,489.9c-1.2-.9-2.7-2-3.5-2.5s-1-.9-.8-.9a32.65,32.65,0,0,1,4,2.5c1.8,1.4,3.2,2.5,2.9,2.5A11.52,11.52,0,0,1,351.91,489.9Z" />
            <path class="cls-1"
                d="M57.61,488.4c-.2-.3-.1-.5.4-.2s1.3-.5,2.5-2c1.3-1.7,1.8-2,1.9-1.3.1.5-.4,1.2-.9,1.7-.8.5-1,1.1-.8,1.7s0,.8-1.2.8c-.9-.1-1.7-.3-1.9-.7Z" />
            <path class="cls-1"
                d="M42.41,487.5c0-.2.5-.5,1-.5,1,0,1.5-1,.4-1-.4,0,.4-1,1.6-2.1s1.9-1.8,1.4-1.4-.9.4-.9.2c0-.8,1.1-1.7,2.1-1.7s.9,0,0,1.5c-.5.8-1.2,1.7-1.8,1.8s-.8.5-.6.7c.3.5-2,3-2.8,3A.46.46,0,0,1,42.41,487.5Z" />
            <path class="cls-1" d="M83.41,487.8c0-.5,1.5-3.3,1.8-3.3a3.37,3.37,0,0,1-.6,1.7c-1,1.8-1.2,2.2-1.2,1.6Z" />
            <path class="cls-1" d="M89.41,486.2c0-.6,2-4,2-3.5s-1.4,3.8-1.7,3.8A.32.32,0,0,1,89.41,486.2Z" />
            <path class="cls-1"
                d="M60.61,479.5c0-.6.2-.8.6-.4.8.7,1.5-.3,2.1-2.9.6-2.3,1.3-2.7,2.4-1.2.9,1.2.9,1.5-.3,1.8-.5.2-1,.6-1,1,0,.8-1.5,2.1-2.8,2.4-.7.1-1-.1-1-.7Z" />
            <path class="cls-1"
                d="M46.61,479.5A2.05,2.05,0,0,1,48,479a4,4,0,0,0,2.2-.8c1.4-.9,1.5-.2.2,1C49.51,480.1,46.21,480.4,46.61,479.5Z" />
            <path class="cls-1"
                d="M48.61,477.9a11.64,11.64,0,0,0,.6-1.5c.4-1.1,4.2-3.2,4.2-2.3,0,.7-2.6,3.2-4.2,4C48.51,478.5,48.41,478.5,48.61,477.9Z" />
            <path class="cls-1"
                d="M93.21,472c-.2-.3,0-1,.5-1.5a2.76,2.76,0,0,0,.8-1.3c0-.8,2-3,2-2.2a5.24,5.24,0,0,1-1,2,5.52,5.52,0,0,0-1,2.1C94.41,472.1,93.61,472.7,93.21,472Z" />
            <path class="cls-1"
                d="M471.91,465.1c0-.2.5-.7,1.2-1,1.5-.7,1.7.1.3.9C472.21,465.6,471.91,465.7,471.91,465.1Z" />
            <path class="cls-1"
                d="M490.51,455.3c1-2.2,1.9-3,1.9-1.8a.47.47,0,0,1-.5.5c-.3,0-.7.7-1,1.5s-.8,1.7-1.1,1.8.1-.8.7-2Z" />
            <path class="cls-1"
                d="M496.41,454.1a1.78,1.78,0,0,1,.8-1.1c.5-.3.8-.4.8-.1a1.78,1.78,0,0,1-.8,1.1C496.71,454.3,496.41,454.4,496.41,454.1Z" />
            <path class="cls-1"
                d="M492.51,450c-.5-.3-.3-.6.5-1.2a26,26,0,0,0,3.8-5.3c1.5-2.5,2.8-4.5,3-4.3s-1.3,3.2-1.9,3.8a42.17,42.17,0,0,0-3.5,6c0,.8-1.3,1.5-1.9,1Z" />
            <path class="cls-1"
                d="M500.91,437.9a20.88,20.88,0,0,1,2.5-5.2c.3-.2-.1.9-.8,2.3-1.3,2.8-1.7,3.4-1.7,2.9Z" />
            <path class="cls-1"
                d="M464.91,414.8a1.89,1.89,0,0,1,.7-1.3c.6-.5.7-.4.5.5C465.71,415.2,464.91,415.8,464.91,414.8Z" />
            <path class="cls-1"
                d="M159.41,408a2,2,0,0,1,1.4-1c.7,0,.7.1-.1,1-.5.5-1.1,1-1.4,1S159.11,408.5,159.41,408Z" />
            <path class="cls-1" d="M470.71,401c1-1.7,2-2.7,2.4-2.3s-1.8,3.3-2.7,3.7c-.4,0-.2-.4.3-1.4Z" />
            <path class="cls-1" d="M173.41,399.8c.7-.9,2.5-2.1,2.5-1.7,0,.2-.8.8-1.6,1.3-1.2,1-1.5,1-.9.4Z" />
            <path class="cls-1" d="M177.91,396.5c1.8-1.5,5.5-3.7,5.9-3.3.1.1-.5.5-1.5,1s-2.6,1.5-3.9,2.3l-2.2,1.5Z" />
            <path class="cls-1"
                d="M475.71,395.2c1.7-2.8,4.1-4.8,3.3-2.9-.2.4-.5.7-.7.5s-1,.7-1.5,1.8c-.7,1.1-1.3,2-1.5,2S475.21,395.9,475.71,395.2Z" />
            <path class="cls-1"
                d="M184.41,392.6c0-.2.8-.8,1.8-1.2a9.79,9.79,0,0,1,1.8-.7,6.15,6.15,0,0,1-1.8,1.2C185.21,392.5,184.41,392.8,184.41,392.6Z" />
            <path class="cls-1" d="M484.11,389.5c-.2-.3,0-.9.5-1.3.8-.8.8-.7.8.5S484.71,390.5,484.11,389.5Z" />
            <path class="cls-1"
                d="M486.41,386.5c0-.2-.3-.5-.8-.5-1,0-1-.7,0-1.5.6-.5.8-.4,1.2.4.7,1.2.7,2,0,2C486.61,387,486.41,386.8,486.41,386.5Z" />
            <path class="cls-1"
                d="M486.91,382a1.27,1.27,0,0,1,.4-.7,15.16,15.16,0,0,0,1.3-3.5,14,14,0,0,1,1.8-4.3c1.5-2,1.2,0-.5,3.5a17.5,17.5,0,0,0-1.5,4,1.44,1.44,0,0,1-.8,1.3C487.21,382.4,486.91,382.2,486.91,382Z" />
            <path class="cls-1"
                d="M230.41,377.7a4,4,0,0,1,1.5-1.5l1.5-1.2v1.2c0,1.3-.8,2.2-1.1,1.2-.1-.5-.4-.5-1,0S230.41,377.9,230.41,377.7Z" />
            <path class="cls-1"
                d="M235.11,374c.9-.8,1.6-1.5,1.9-1.5a13,13,0,0,0,2.9-1.8,16.91,16.91,0,0,1,2.8-1.8,19.57,19.57,0,0,0,2.6-1.6,19.57,19.57,0,0,1,2.6-1.6c.1,0,1-.5,2-1,3-1.9,5-2.8,5.5-2.5.2.2.4,0,.4-.3s.2-.8.8-.8.8,0,.6.3-.1.5.1.5a1.2,1.2,0,0,0,.8-.5c.1-.2,0-.5-.2-.5-1.6,0,.8-1.9,5.9-4.6,1.5-.8,3.3-1.8,4-2.3a40.46,40.46,0,0,1,3.8-2.1,48.13,48.13,0,0,0,4.2-2.4,39.72,39.72,0,0,1,3.5-2,12.66,12.66,0,0,0,2.7-1.7,3.15,3.15,0,0,1,1.7-.9c.3,0,.7-.2.7-.5s.5-.7,1.2-.8c1-.3,3.3-1.7,8.1-4.6.5-.3,2.7-1.5,4.8-2.5s5.1-2.7,6.8-3.7,4.6-2.6,6.5-3.5a25,25,0,0,0,3.8-2c.2-.2,2.2-1.2,4.5-2.5,3.8-2,7.3-3.8,16.2-8.5a28.76,28.76,0,0,0,3.5-2,17,17,0,0,1,2.6-1.2,7.66,7.66,0,0,0,2.2-1,14.58,14.58,0,0,1,2.7-1.5c1.3-.7,3.3-1.7,4.3-2.2a20.86,20.86,0,0,0,3.1-2,17.45,17.45,0,0,1,2.5-1.6c1.4-.7,1.5-.5,1.4,1.3,0,.6,0,.5.6-.2.5-.5,1-.8,1.6-.5.8.3.6.5-.8,1.2a13.41,13.41,0,0,1-2.7,1,2.9,2.9,0,0,0-1.8.8,60.15,60.15,0,0,1-7.3,4c-3.5,1.8-8.3,4.2-10.5,5.3a21.28,21.28,0,0,0-4.2,2.5,1.52,1.52,0,0,1-1.2.4c-.5,0-1,.2-1,.4s-.6.7-1.3,1-1.8.8-2.2,1-1.2.7-1.8,1c-1.5.7-4.4,2.2-5.2,2.7-.4.2-1.1.6-1.5.8a40.12,40.12,0,0,0-4,1.9,3.38,3.38,0,0,1-1.2.6c-1.2.2-8,5.3-7.9,6a1.28,1.28,0,0,1-.4,1c-.2.2-.5,0-.5-.5s-.2-.7-.8-.3c-.5.2-2,1-3.5,1.7a7.2,7.2,0,0,0-2.7,1.8c0,.5-.4.5-1.2.3-1.6-.4-2,.3-1,1.5.8.8.8.8-.3.5a3.5,3.5,0,0,0-4,1.8c-.4.7-1,1.5-1.5,1.6s-.3-.2.4-1c1.5-1.5,1-2.3-.6-1-1.9,1.7-3.5,2.4-3.8,1.8a.43.43,0,0,0-.7-.2c-.3.2-.2.5.2.8s.5.5-.2.8a1.38,1.38,0,0,1-1.4-.3c-.4-.5-.5-.5-.2.2s-.3,1.1-2,1.9a33.56,33.56,0,0,0-3.9,2.3,3,3,0,0,1-1.8.9c-.2-.1-.5.1-.9.5a2.32,2.32,0,0,1-1.3.8c-.4,0-.7.2-.7.5a.47.47,0,0,1-.5.5,17.74,17.74,0,0,0-3.1,1.7c-1.5.9-3.5,2-4.4,2.5a18.59,18.59,0,0,0-4,2.4,30.15,30.15,0,0,1-3,1.7,66.19,66.19,0,0,0-10.4,6.3,4.89,4.89,0,0,1-1.9,1.2,9.51,9.51,0,0,0-4,2.2l-1.5,1.2-.2-1.1c-.2-.8-.4-1-.7-.5a2,2,0,0,0-.1,1.3.82.82,0,0,1-.5,1c-.4.2-.6.1-.6-.1.1-1-.1-1.2-.8-.6-.5.5-.6.8-.2,1s.3.5-.2,1-.8.5-.8-.2c0-.5-.2-.8-.5-.8a.54.54,0,0,0-.5.5c0,.3-.4.6-.9.8s-.4-.4.5-1.4Zm118.3-64.8c.1-.1-.2-.2-.8-.2a1.25,1.25,0,0,0-1.3.8c-.2.7-.1.7.8.2C352.61,309.7,353.31,309.3,353.41,309.2Zm4.2-2.2a.83.83,0,0,0,.2-.8c-.4-.5-3.3.8-3.3,1.3s2.4.1,3.1-.5Z" />
            <path class="cls-1"
                d="M506.41,339.2a13.9,13.9,0,0,1,.8-3.4l.8-2.5-.2,2.5a23.31,23.31,0,0,0-.2,3.3c0,.5-.2,1-.5,1A.86.86,0,0,1,506.41,339.2Z" />
            <path class="cls-1"
                d="M278.91,334.8a3.94,3.94,0,0,1,1.4-1l1.3-.9-1,1C279.91,334.9,278.91,335.3,278.91,334.8Z" />
            <path class="cls-1"
                d="M348.91,334.8c0-.8,2.3-3.2,3-3.2,1.2,0,1.7-1,.7-1.3-.7-.2-.5-.5.5-1.6.7-.7,1.2-1.5,1-2-.2-.3,0-.7.5-.7s.8.2.8.5c0,.8,1.3.5,2.2-.5a3.29,3.29,0,0,1,1.8-1c.6,0,.9-.3.9-1.2a1.61,1.61,0,0,1,.9-1.5c.5-.2,1.7-.8,2.6-1.3,1.8-1,1.8-1,.4-1-.8,0-1.4-.2-1.4-.5s.3-.3.7-.2a1.17,1.17,0,0,0,1.3-.4,12,12,0,0,1,3.5-2.4c.2,0,.2.3.1.8a1.33,1.33,0,0,1-1,.8,2.09,2.09,0,0,0-1.3.8c-.5.7-.5.8,0,1.2s.5.5-.5,1c-1.8.7-3.7,2.5-3.2,3,.2.2.5,0,.6-.2a1.45,1.45,0,0,1,1-.7c1.3,0-.2,1.4-2.2,2a10.51,10.51,0,0,0-3,1.5,5.6,5.6,0,0,1-1.8,1c-.8,0-.9.6-.1,1.4.3.3.4.8.2,1s-.6,0-.8-.5c-.5-1-1.7-1.2-2.2-.3a1.11,1.11,0,0,0,.2,1.2c.4.5.2,1-1.1,1.8-.9.7-2.1,1.5-2.6,2-.8.7-1.7.9-1.7.5Z" />
            <path class="cls-1"
                d="M282.91,331.8a1.94,1.94,0,0,1,1.1-.8c.3,0,.2.3-.1.8a1.56,1.56,0,0,1-1.1.8C282.51,332.5,282.61,332.2,282.91,331.8Z" />
            <path class="cls-1" d="M345.41,325.2a8.28,8.28,0,0,1,1.3-1.2c.5,0,0,1-.7,1.7-1.2,1.3-1.9.9-.6-.5Z" />
            <path class="cls-1"
                d="M344.41,323.6c0-.6,3.4-2.4,3.8-2,.2.2-.5.8-1.4,1.3C344.91,324.1,344.41,324.2,344.41,323.6Z" />
            <path class="cls-1"
                d="M358.31,321.9c.2-1,.2-1.1-.5-.5-.5.3-.8.5-.8.2a2.39,2.39,0,0,1,1-1.1c1.3-.8,2.2-.2,1.7,1.3s-1.8,1.6-1.4.1Z" />
            <path class="cls-1"
                d="M515.11,322.4c-.2-.3-.5-6.1-.5-12.8-.2-11-.7-22.5-1.4-29l-.2-2.2.5,2.2c.8,3.4,2,14.3,2.7,25,.2,2.2.4,13.3.3,16.2-.1,1.3-.8,1.7-1.4.6Z" />
            <path class="cls-1"
                d="M307.61,319.5a1.91,1.91,0,0,1,1-.5c.4,0,.7.2.7.5s-.5.5-1,.5S307.51,319.8,307.61,319.5Z" />
            <path class="cls-1" d="M312.21,318.5c.6-.7,1-.8,1.1-.5s-.1.8-.5,1c-1.2.8-1.6.5-.6-.5Z" />
            <path class="cls-1"
                d="M317.41,316.8c.1,0,.6-.5,1.1-.8.7-.6.8-.5.8.2,0,.5-.4.8-1.1.8C317.71,317,317.31,317,317.41,316.8Z" />
            <path class="cls-1"
                d="M368.41,315.3c-.7-.8.1-1.6,1-1,.3.2,1-.2,1.8-.8.9-.8,1.2-1,1.2-.4s-2.5,3-3.2,3A5.72,5.72,0,0,1,368.41,315.3Z" />
            <path class="cls-1"
                d="M321.61,314.8q1.8-1.35,1.8-.3a.47.47,0,0,1-.5.5,12.08,12.08,0,0,0-1.4.3c-.8.2-.8.2.1-.5Z" />
            <path class="cls-1"
                d="M376.41,314c.3-.5.8-1,1-1s.8-.7,1.3-1.5,1.2-1.5,1.5-1.5c1,0,.8.7-1.4,2.9s-3.3,2.8-2.4,1.1Z" />
            <path class="cls-1"
                d="M330.91,312.2a1.94,1.94,0,0,1,1.1-.8c.3,0,.2.3-.1.8a1.56,1.56,0,0,1-1.1.8C330.51,313,330.61,312.7,330.91,312.2Z" />
            <path class="cls-1"
                d="M374.41,310.8a11.6,11.6,0,0,1,2.5-1.2c.5,0-3.7,2.5-4.2,2.5C372.41,312,373.21,311.5,374.41,310.8Z" />
            <path class="cls-1"
                d="M346.61,303.2c1.8-1,2.2-1,1,0a5.15,5.15,0,0,1-1.7.8C345.51,304,345.81,303.7,346.61,303.2Z" />
            <path class="cls-1"
                d="M349.91,302a.66.66,0,0,1-.4-.8c.2-.2.7,0,1.2.5C351.61,302.5,351.11,302.8,349.91,302Z" />
            <path class="cls-1" d="M351.41,301c0-.6,1.4-1.2,1.8-.8.2.2-.2.5-.8.8S351.41,301.3,351.41,301Z" />
            <path class="cls-1"
                d="M354.21,299.2a2,2,0,0,1,1.7-.8c1.2,0,1.2,0,.3.8C354.91,300.2,353.91,300.2,354.21,299.2Z" />
            <path class="cls-1" d="M357.61,297.7a4.3,4.3,0,0,1,1.7-.5c1-.1,1.2,0,.7.3-.9.5-2.9.7-2.4.2Z" />
            <path class="cls-1"
                d="M358.41,295.5a.68.68,0,0,1,.7-.5c.3,0,1.2-.2,1.8-.3.9-.2.8,0-.5.5C358.51,296.2,358.41,296.2,358.41,295.5Z" />
            <path class="cls-1"
                d="M366.21,294.5c-.4-.7.8-1.5,2.2-1.5,2.2-.2,2.2,0,.2,1C366.41,295.2,366.61,295.1,366.21,294.5Z" />
            <path class="cls-1"
                d="M371.91,292.5c0-.7,2-2.4,2.9-2.5a3.74,3.74,0,0,0,1.5-.5c.5-.3,2.3-1.1,4-1.9s3-1.5,2.6-1.5-.5-.6-.5-1.1c0-.9.2-.9,1-.4,1.3.9,1.7,1.9.6,2.2-.5.2-2.5,1-4.5,2s-4.2,1.9-4.9,2.2a1.6,1.6,0,0,0-1.2,1.2.79.79,0,0,1-.8.8c-.5,0-.7-.2-.7-.5Z" />
            <path class="cls-1" d="M117.41,276.6c1.9-1.4,4-2.6,4-2.4,0,.4-4.4,3.3-4.8,3.3-.2,0,.2-.4.8-.9Z" />
            <path class="cls-1"
                d="M102.41,274.5c0-.7.2-1,.7-.8a2.66,2.66,0,0,0,2-.9c.7-.7,1.3-1,1.3-.9s.5-.1,1.2-.5,1.4-.6,1.5-.4-.2.6-.9.8a14.34,14.34,0,0,0-3.3,2,14.49,14.49,0,0,1-2.3,1.8,2,2,0,0,1-.2-1.1Z" />
            <path class="cls-1"
                d="M316.61,262.5c.8-1,3.2-3,3.9-3,.2,0-.5.9-1.7,2C316.81,263.6,315.41,264.2,316.61,262.5Z" />
            <path class="cls-1"
                d="M123.91,254c-.6-.4-.6-.5.1-.5a1.39,1.39,0,0,0,1.2-.7,4.32,4.32,0,0,1,1.6-1.3c1.2-.6,1.2-.6-.2,1.1C124.91,254.6,124.91,254.6,123.91,254Z" />
            <path class="cls-1"
                d="M128.31,250.5c-.2-1,2-3,3.1-3,.3,0,.8-.5,1-1,.4-.5.7-.9.9-.8.3.3-2.3,3.5-2.9,3.5a1.2,1.2,0,0,0-.8.4c-.2.2-.1.4.3.4s.5.1,0,.8C129,251.8,128.51,251.7,128.31,250.5Z" />
            <path class="cls-1"
                d="M138,241.1a4.48,4.48,0,0,0,1.4-2,.53.53,0,0,1,.6-.6,4.69,4.69,0,0,0,1.8-1.1c.9-.8,1.1-.9,1.1-.4s-.6,1.1-1.5,1.6a8.16,8.16,0,0,0-2.5,2.4c-.6.9-1.3,1.5-1.6,1.5S137.31,241.9,138,241.1Z" />
            <path class="cls-1"
                d="M144.41,234.8c0-.5,3-4,3.2-3.6a10.44,10.44,0,0,1-1.5,2.1C145.21,234.4,144.41,235,144.41,234.8Z" />
            <path class="cls-1"
                d="M148.41,229.9a21.17,21.17,0,0,1,1.6-1.6l1.6-1.5-1.5,1.6C148.81,229.9,148.41,230.2,148.41,229.9Z" />
            <path class="cls-1" d="M9.21,223.8a33.82,33.82,0,0,1-.2-4.1v-3.4l.4,4c.3,4.2.3,4.8-.2,3.5Z" />
            <path class="cls-1"
                d="M138.91,219.4c.1-.1,2.1-1.5,4.5-3.1a96.1,96.1,0,0,0,12.5-10c2.8-2.6,6.5-5.7,6.9-5.7,1.1,0-7.1,7.6-13.2,12.1C145,216,137.81,220.6,138.91,219.4Z" />
            <path class="cls-1"
                d="M51.41,192c0-1.3,2.5-9.7,2.8-9.4a11.88,11.88,0,0,1-.8,3.4,19.7,19.7,0,0,0-1,4.5,3.94,3.94,0,0,1-.5,2C51.51,193.1,51.41,193,51.41,192Z" />
            <path class="cls-1" d="M106.41,175.7a7.63,7.63,0,0,1,1.7-1.3c1-.5.9-.4-.1.8-1.3,1.4-2.7,1.9-1.6.5Z" />
            <path class="cls-1"
                d="M119.21,175a24.58,24.58,0,0,1,3.5-3c1.4-1,2.6-2,2.8-2.1a47.61,47.61,0,0,1,4.2-3c2.2-1.5,5.1-3.5,6.5-4.5s2.1-1.4,1.6-.8a48.82,48.82,0,0,1-4.5,3.5,40.31,40.31,0,0,0-3.8,2.8.82.82,0,0,1-.6.4c-.4,0-3,1.9-8.7,6.1-1.5,1.4-1.8,1.5-1,.6Z" />
            <path class="cls-1"
                d="M109.61,173.5a25.52,25.52,0,0,1,4.2-3.1c5.1-3.3,5.6-3.6,6.3-4.2.3-.2,1.4-1,2.3-1.5a5.33,5.33,0,0,0,2-1.4,1.09,1.09,0,0,1,1-.2c.5.1,0,.6-1.1,1.1s-1.9,1.1-1.9,1.4-.3.4-.6.4a3.3,3.3,0,0,0-1.6.9c-1.4,1.2-5.5,4.1-6,4.1a14.44,14.44,0,0,0-2.6,1.6c-1.3.8-2.2,1.3-2,.9Z" />
            <path class="cls-1"
                d="M53.41,171.2a15.35,15.35,0,0,1,1.2-3c.6-1.4,1-2,.9-1.2C55.21,168.5,53.41,172,53.41,171.2Z" />
            <path class="cls-1"
                d="M126.71,162.5a19.39,19.39,0,0,1,2-1.4c4-2.2,11.6-7.4,11.6-7.8,0-.2.3-.4.7-.4a6,6,0,0,0,2-1,5.52,5.52,0,0,1,2.1-1,2.2,2.2,0,0,0,1.5-.9c.4-.5.7-.6.9-.2.4.5-4.6,4-7.6,5.5a12,12,0,0,0-2,1.1c-1.1.7-7.5,4.5-9.4,5.6-1.7,1.1-2.6,1.3-1.8.5Z" />
            <path class="cls-1" d="M69.31,158a4.27,4.27,0,0,0,1.1-1.9,1,1,0,0,1,.5-.8c1-.6-.1,1.7-1.4,2.8l-1.4,1.1Z" />
            <path class="cls-1" d="M81.21,154c.5-.5,1-.9,1.1-.8.4.3-.9,1.8-1.5,1.8C80.51,155,80.61,154.5,81.21,154Z" />
            <path class="cls-1"
                d="M152.41,146.5c0-.4,1.6-1.2,3.2-1.8.8-.2.8-.1-.2.6C154,146.5,152.41,147.1,152.41,146.5Z" />
            <path class="cls-1" d="M86.31,123.2c-.5-.5.2-1.7.9-1.7.4,0,.5.4.4,1C87.31,123.5,86.81,123.8,86.31,123.2Z" />
            <path class="cls-1"
                d="M135.41,119.9c0-.5,5.2-3.7,7.3-4.6,3.2-1.3,2.5-.8-1.8,1.5-2.3,1.2-4.5,2.5-4.9,2.8s-.6.4-.6.3Z" />
            <path class="cls-1"
                d="M165.11,111.7a5.67,5.67,0,0,1,2.6-.5c.3.2-3.2,1.3-4.4,1.2A6.36,6.36,0,0,1,165.11,111.7Z" />
            <path class="cls-1"
                d="M154.11,111.2a3.42,3.42,0,0,1,1.6-.8,1.15,1.15,0,0,0,.9-.6c.1-.4.4-.5.6-.2.5.5.3.7-2,1.6-1.8.8-1.9.8-1.1,0Z" />
            <path class="cls-1"
                d="M158.71,108.8c.8-1.1,1.6-1.9,1-.8-.5.7.5.6,2.8-.3,1.1-.5,2.1-.7,2.3-.5a7.28,7.28,0,0,1-2.4,1.1,10.94,10.94,0,0,0-3.1,1.3c-1.1.9-1.4.4-.6-.8Z" />
            <path class="cls-1"
                d="M165.51,106.8a5.79,5.79,0,0,1,2-1.2c.9-.5,1.6-1.1,1.5-1.5-.1-.7.5-.8,1.1-.1.2.3,1.4,0,2.8-.7a8.15,8.15,0,0,1,2.6-.9c.1.1.5,0,.9-.3.8-.6,11-4.2,11.2-4a27.51,27.51,0,0,1-4.2,1.8c-2.4.9-5,2-5.9,2.3-1.9.8-10.7,4.2-11.8,4.6-.2.2-.4.2-.2,0Z" />
            <path class="cls-1"
                d="M197.41,96.8a5.28,5.28,0,0,1,1.8-.7c.3,0,0,.3-.8.7a5.28,5.28,0,0,1-1.8.7C196.41,97.5,196.71,97.2,197.41,96.8Z" />
            <path class="cls-1" d="M200.41,96c0-.2.4-.5.8-.5s.8.2.8.5-.4.5-.8.5S200.41,96.3,200.41,96Z" />
            <path class="cls-1"
                d="M104.91,88.1c.5-1,2.5-2.9,2.5-2.4,0,.2.7-.4,1.5-1.3,1.3-1.4,1.5-1.5,1-.4-.9,1.8-3.4,4-3.7,3.3-.1-.3-.4,0-.5.6s-.5,1.1-.9,1.1-.3-.3.1-.9Z" />
        </g>
    </g>
</svg>