<svg xmlns="http://www.w3.org/2000/svg" viewBox="0 0 213.02 288.83"><defs><style>.cls-1{fill:#5382a1;}.cls-2{fill:#f8981d;}</style></defs><g id="Layer_2" data-name="Layer 2"><g id="Layer_1-2" data-name="Layer 1"><path class="cls-1" d="M68.61,223.37s-11,6.42,7.85,8.59c22.89,2.61,34.59,2.24,59.81-2.54a103.83,103.83,0,0,0,15.89,7.76c-56.54,24.24-128-1.4-83.55-13.81"/><path class="cls-1" d="M61.7,191.75s-12.38,9.16,6.52,11.12c24.45,2.52,43.76,2.73,77.17-3.71a34.18,34.18,0,0,0,11.89,7.25C88.92,226.4,12.77,208,61.7,191.75"/><path class="cls-2" d="M119.94,138.11c13.94,16-3.66,30.47-3.66,30.47s35.38-18.26,19.13-41.13C120.24,106.12,108.6,95.53,171.6,59c0,0-98.88,24.7-51.66,79.12"/><path class="cls-1" d="M194.72,246.76s8.17,6.73-9,11.94c-32.64,9.88-135.84,12.87-164.51.39-10.3-4.48,9-10.7,15.1-12a39.52,39.52,0,0,1,10-1.12c-11.46-8.07-74.07,15.86-31.8,22.71,115.28,18.69,210.15-8.42,180.24-21.91"/><path class="cls-1" d="M73.91,159s-52.49,12.47-18.59,17c14.32,1.92,42.86,1.48,69.44-.74,21.73-1.84,43.54-5.73,43.54-5.73a92.28,92.28,0,0,0-13.2,7.06c-53.31,14-156.29,7.5-126.64-6.84C53.53,157.61,73.91,159,73.91,159"/><path class="cls-1" d="M168.08,211.62c54.19-28.16,29.14-55.22,11.65-51.57a40.69,40.69,0,0,0-6.2,1.66,9.88,9.88,0,0,1,4.63-3.57C212.76,146,239.37,194,167,213a4.72,4.72,0,0,0,1.09-1.42"/><path class="cls-2" d="M135.41,0s30,30-28.46,76.19c-46.89,37-10.7,58.14,0,82.27C79.56,133.76,59.47,112,73,91.79,92.73,62.09,147.52,47.69,135.41,0"/><path class="cls-1" d="M79.24,287.93c52,3.33,131.89-1.85,133.78-26.46,0,0-3.64,9.33-43,16.74-44.39,8.35-99.15,7.38-131.63,2,0,0,6.65,5.5,40.84,7.7"/></g></g></svg>