<svg xmlns="http://www.w3.org/2000/svg" viewBox="0 0 1649.72 1469.15"><defs><style>.cls-1{fill:#61dafb;}</style></defs><g id="Layer_2" data-name="Layer 2"><g id="Layer_1-2" data-name="Layer 1"><path class="cls-1" d="M1649.72,734.74c0-109.28-136.85-212.85-346.69-277.08,48.43-213.87,26.91-384-67.92-438.49C1213.25,6.39,1187.7.34,1159.78.34v75c15.47,0,27.92,3,38.34,8.75,45.73,26.23,65.57,126.1,50.1,254.55-3.69,31.61-9.75,64.9-17.15,98.86-65.91-16.14-137.87-28.58-213.53-36.65-45.39-62.21-92.47-118.7-139.89-168.13C987.28,130.81,1090.18,75,1160.12,75V0c-92.48,0-213.53,65.91-335.93,180.24C701.79,66.58,580.73,1.35,488.26,1.35v75c69.61,0,172.84,55.49,282.46,156.7a1589.8,1589.8,0,0,0-138.88,167.8c-76,8.07-148,20.51-213.86,37-7.74-33.63-13.45-66.25-17.49-97.52-15.8-128.45,3.7-228.32,49.1-254.89,10.08-6,23.2-8.74,38.67-8.74v-75c-28.25,0-53.81,6.05-76,18.83C317.77,75,296.59,244.8,345.34,458,136.19,522.56,0,625.79,0,734.74,0,844,136.86,947.6,346.69,1011.82c-48.42,213.87-26.9,384,67.93,438.5,21.86,12.77,47.41,18.83,75.66,18.83,92.47,0,213.53-65.91,335.93-180.24,122.4,113.66,243.46,178.9,335.93,178.9,28.24,0,53.8-6.06,76-18.84,94.48-54.48,115.67-224.29,66.91-437.48,208.49-64.23,344.67-167.8,344.67-276.75ZM1211.91,510.45c-12.45,43.38-27.91,88.1-45.4,132.83-13.79-26.9-28.25-53.8-44-80.71-15.47-26.9-32-53.13-48.42-78.68,47.74,7.06,93.81,15.8,137.87,26.56Zm-154,358.13c-26.23,45.4-53.12,88.44-81,128.45-50.11,4.37-100.88,6.73-152,6.73-50.78,0-101.55-2.36-151.32-6.39q-41.87-60-81.38-127.79c-25.55-44-48.75-88.77-69.94-133.82,20.85-45.07,44.39-90.13,69.61-134.18,26.23-45.39,53.13-88.44,81-128.45,50.11-4.37,100.88-6.73,152-6.73,50.78,0,101.56,2.36,151.32,6.39q41.87,60,81.38,127.78c25.56,44,48.76,88.78,69.94,133.84C1106.32,779.46,1083.12,824.53,1057.89,868.58Zm108.62-43.71q26.48,65.73,46.41,133.82c-44.06,10.76-90.46,19.85-138.55,26.91,16.48-25.89,33-52.46,48.43-79.7,15.46-26.9,29.92-54.14,43.71-81Zm-341,358.79a1389.91,1389.91,0,0,1-93.48-107.61c30.27,1.35,61.2,2.36,92.47,2.36,31.61,0,62.89-.67,93.49-2.36A1311.78,1311.78,0,0,1,825.53,1183.66ZM575.35,985.6c-47.75-7.06-93.82-15.81-137.86-26.57,12.43-43.38,27.91-88.1,45.39-132.83,13.79,26.91,28.25,53.81,44,80.71S558.88,960,575.35,985.6Zm248.5-699.77a1383.55,1383.55,0,0,1,93.48,107.6c-30.26-1.34-61.2-2.35-92.47-2.35-31.61,0-62.88.67-93.48,2.35A1311.52,1311.52,0,0,1,823.85,285.83ZM575,483.89c-16.47,25.89-33,52.46-48.41,79.69-15.47,26.9-29.93,53.81-43.72,80.7q-26.47-65.73-46.4-133.83C480.53,500,526.93,491,575,483.89Zm-304.32,421c-119-50.77-196-117.35-196-170.15s77-119.71,196-170.15c28.92-12.44,60.53-23.54,93.15-34,19.17,65.91,44.39,134.5,75.66,204.79-30.93,69.94-55.82,138.2-74.65,203.78-33.29-10.43-64.9-21.86-94.16-34.31Zm180.92,480.53c-45.74-26.23-65.58-126.1-50.1-254.56,3.7-31.6,9.74-64.9,17.14-98.86,65.91,16.14,137.87,28.59,213.53,36.66,45.4,62.2,92.47,118.69,139.89,168.13-109.62,101.89-212.52,157.7-282.47,157.7C474.47,1394.16,461.7,1391.13,451.61,1385.42Zm797.62-256.23c15.8,128.45-3.7,228.32-49.1,254.88-10.08,6.06-23.19,8.75-38.67,8.75-69.6,0-172.84-55.49-282.46-156.7a1588.37,1588.37,0,0,0,138.88-167.8c76-8.07,148-20.52,213.86-37,7.74,34,13.79,66.58,17.49,97.86Zm129.46-224.3c-28.92,12.45-60.53,23.55-93.15,34-19.16-65.91-44.38-134.51-75.65-204.79,30.94-69.94,55.82-138.2,74.65-203.78,33.29,10.43,64.9,21.86,94.49,34.3,119,50.77,196,117.36,196,170.15-.34,52.8-77.34,119.71-196.38,170.15Z"/><path class="cls-1" d="M824.52,888.42A153.68,153.68,0,1,0,670.85,734.74,153.67,153.67,0,0,0,824.52,888.42Z"/></g></g></svg>