<svg xmlns="http://www.w3.org/2000/svg" xmlns:xlink="http://www.w3.org/1999/xlink" viewBox="0 0 141.79 158.58"><defs><style>.cls-1{fill:#0f80cc;}.cls-2{fill:url(#linear-gradient);}.cls-3{fill:#003b57;}</style><linearGradient id="linear-gradient" x1="-298.01" y1="616.23" x2="-289.13" y2="616.23" gradientTransform="matrix(0, 11.49, 11.49, 0, -7022.4, 3435.84)" gradientUnits="userSpaceOnUse"><stop offset="0" stop-color="#97d9f6"/><stop offset="0.92" stop-color="#0f80cc"/><stop offset="1" stop-color="#0f80cc"/></linearGradient></defs><g id="Layer_2" data-name="Layer 2"><g id="svg2985"><path id="solid-background" class="cls-1" d="M111.63,7H12.13A12.16,12.16,0,0,0,0,19.16V128.9A12.16,12.16,0,0,0,12.13,141H77.66C76.92,108.41,88.05,45.13,111.63,7Z"/><path id="gradient-background" class="cls-2" d="M108,10.57H12.13a8.6,8.6,0,0,0-8.59,8.59V120.89c21.71-8.33,54.31-15.52,76.85-15.2C84.92,82,98.23,35.6,108,10.57Z"/><path id="feather" class="cls-3" d="M134.84,3.44C128-2.63,119.78-.19,111.63,7c-1.21,1.07-2.41,2.26-3.61,3.53C94.09,25.35,81.15,52.73,77.14,73.63A58.73,58.73,0,0,1,80.73,84c.21.79.39,1.54.54,2.17.35,1.5.54,2.48.54,2.48s-.12-.48-.63-2l-.34-1c0-.15-.13-.33-.21-.53-.91-2.11-3.43-6.57-4.53-8.51-.95,2.79-1.78,5.4-2.48,7.77,3.19,5.84,5.14,15.85,5.14,15.85s-.17-.65-1-2.91a107.2,107.2,0,0,0-5.1-9.67c-1.44,5.3-2,8.89-1.49,9.76A34.18,34.18,0,0,1,74,105.27c1.89,7.26,3.2,16.11,3.2,16.11s0,.59.12,1.49A147,147,0,0,0,77.66,141c.63,7.58,1.81,14.08,3.31,17.56l1-.55c-2.21-6.86-3.1-15.85-2.71-26.22.59-15.84,4.24-34.95,11-54.87,11.38-30.06,27.17-54.19,41.63-65.71-13.18,11.9-31,50.41-36.34,64.67a258.09,258.09,0,0,0-12.77,45.32C87.19,107.76,101.42,102,101.42,102s7-8.61,15.15-20.92c-4.89,1.12-12.92,3-15.61,4.16-4,1.66-5,2.23-5,2.23s12.85-7.82,23.87-11.37c15.16-23.87,31.67-57.79,15-72.63"/></g></g></svg>